<?xml version="1.0" encoding="utf-8"?>
<!-- Generator: Adobe Illustrator 27.5.0, SVG Export Plug-In . SVG Version: 6.00 Build 0)  -->
<svg version="1.1" id="Layer_1" xmlns="http://www.w3.org/2000/svg" xmlns:xlink="http://www.w3.org/1999/xlink" x="0px" y="0px"
	 viewBox="0 0 3000 4000" style="enable-background:new 0 0 3000 4000;" xml:space="preserve">
<g>
	<path style="fill:#D4002F;" d="M344.109,1836.633c14.247-17.254,47.614-18.593,58.766,2.612c-5.291-1.01-11.371-3.359-16.135,0.417
		c-12.118,7.552-9.944,28.494,3.885,32.862c2.283-2.942,3.644-7.068,7.573-8.166c6.212-2.678,13.149,1.339,16.684,6.476
		c6.564,9.505,6.739,22.589,1.032,32.533c3.907-3.71,8.276-6.893,12.754-9.9c3.798,2.788,7.639,5.576,11.349,8.517
		c-5.488-12.008-3.6-28.889,8.078-36.462c4.72-3.534,10.427-1.317,15.3,0.571c0.878,2.327,1.756,4.654,2.634,7.003
		c4.105-2.524,8.539-5.181,10.647-9.703c4.961-9.439-0.373-23.137-10.954-25.772c-3.885-0.329-7.661,0.966-11.459,1.559
		c2.327-3.271,4.105-7.266,8.166-8.847c-0.373,1.559-1.141,4.654-1.515,6.213c8.21-5.927,18.462,3.402,20.525,11.613
		c4.588,13.061-5.071,27.221-17.627,30.908c-5.861,1.471-11.108-2.261-13.457-7.398c-10.976,11.327-6.629,30.491,3.644,40.765
		c14.027,11.766,28.933,22.457,42.609,34.662c2.283,2.415,5.883,2.063,8.913,1.778c14.488-1.998,26.694-15.498,26.123-30.316
		c0.373-21.03-18.879-39.58-39.711-39.404c-7.749,0.132-16.025,3.512-20.042,10.471c-4.391,7.354-3.095,18.418,4.763,22.94
		c8.232,5.686,24.564-2.327,19.274-13.105c-4.149-6.278-11.635-2.524-15.871,1.471c-1.361-10.691,12.052-16.179,19.998-10.471
		c8.21,4.347,9.22,16.749,1.998,22.545c-9.264,9.066-27.418,8.21-34.135-3.556c-6.278-10.713-1.361-25.969,9.725-31.391
		c5.576-3.315,12.161-3.688,18.506-3.776c-0.22-5.181,0-11.569,5.751-13.72c4.281-3.205,9.769,0.176,10.866,4.873
		c-3.293-0.132-7.486-3.359-10.054,0.066c-5.378,4.149,1.383,11.503,6.717,9.966c6.081-1.273,9-8.232,8.913-13.896
		c-0.088-13.896-9.615-27.286-22.874-31.589c-9.571-2.942-20.35-2.656-29.416,1.756c-1.317-1.076-2.59-2.173-3.864-3.249
		c11.349-4.764,24.63-7.047,36.309-2.085c14.774,5.554,24.806,21.271,24.059,36.945c-0.461,7.069-5.29,12.337-10.076,17.035
		c9.483,1.998,14.993,10.471,20.328,17.737c2.458-12.403,16.003-18.11,27.33-19.186c19.625-1.558,37.823,15.806,37.714,35.365
		c1.449,22.83-18.637,41.687-39.404,46.977c5.356,3.644,11.854,5.29,16.991,9.352c5.729,4.215,9.703,10.208,13.654,16.025
		c-5.049,8.21-11.722,15.301-19.932,20.393c24.367,11.722,48.733,26.518,76.437,27.835c14.554,0.812,32.818-7.727,33.279-24.169
		c2.129-13.939-15.498-27.616-27.747-19.076c-7.091,4.39-4.939,15.213,1.932,18.637c4.039,2.59,7.903-1.405,11.678-2.415
		c2.437,7.442-6.827,12.03-12.666,8.649c-10.713-3.556-15.41-18.132-8.495-27.133c6.915-8.759,20.525-9.659,29.438-3.49
		c8.276,4.478,10.339,14.423,12.908,22.677c1.098,14.84-11.02,27.638-24.762,31.238c-16.157,4.676-33.257,0.417-48.536-5.444
		c-16.442-6.805-32.401-15.147-46.736-25.75c-2.503,0.593-4.983,1.207-7.486,1.844c13.237,6.234,27.374,13.632,34.311,27.264
		c4.171,9.242,12.732,15.103,20.174,21.557c20.481,16.486,45.814,27.901,72.376,28.779c24.586,1.339,49.963-5.971,68.973-21.864
		c17.298-14.313,28.318-36.967,25.706-59.644c-2.063-26.211-24.696-49.502-51.126-51.258c-12.666-1.207-26.803,3.007-34.443,13.72
		c-9.703,12.864-5.334,33.938,9.33,41.138c9.988,5.466,26.716,4.259,30.448-8.342c3.359-8.803-5.883-14.796-9.725-21.447
		c15.323-1.537,21.228,19.12,12.996,29.613c-12.469,17.101-42.982,11.81-50.951-7.222c-3.161-7.815-7.727-15.893-5.268-24.586
		c3.051-17.54,19.779-29.547,36.813-31.106c31.238-3.403,62.497,20.964,67.415,51.829c6.63-32.335,40.084-58.085,73.32-50.973
		c19.428,3.402,35.979,22.72,31.391,42.938c-3.381,5.29-3.842,11.986-7.617,17.079c-8.759,10.976-24.696,15.169-37.779,10.318
		c-11.064-4.105-18.44-18.22-12.293-29.086c2.217-6.015,8.386-9.286,14.642-8.934c-2.524,5.532-8.254,9.066-10.098,14.927
		c-2.107,9.834,7.683,18.791,17.232,17.891c16.508,1.581,30.535-15.103,28.23-31.04c-1.8-14.049-14.62-24.762-28.318-26.299
		c-26.167-4.324-52.465,14.225-60.083,39.031c-6.761,19.823-1.229,42.214,11.152,58.634c15.147,20.108,39.689,31.742,64.407,34.245
		c37.253,4.368,73.978-12.403,100.299-38.043c7.09-5.795,9.549-15.125,15.959-21.491c7.617-8.276,18.132-12.71,27.594-18.374
		l-0.988,0.9c18.132-6.651,38.021-8.452,57.295-7.442c-0.154-11.064-0.11-22.106-0.044-33.17
		c-19.252,1.12-39.184-0.768-57.207-7.442l0.944,0.966c-13.5-7.31-28.12-14.993-35.452-29.262
		c-9.198-16.793-3.644-40.238,13.061-50.094c15.937-10.449,40.809-4.829,48.624,13.149c4.346-7.683,11.086-13.523,18.505-18.132
		c-3.71-3.644-7.859-7.552-8.583-12.996c-2.942-17.913,9.747-36.309,27.045-41.028c14.532-4.039,33.191-0.527,40.765,13.852
		c-6.015-1.032-13.149-3.117-17.913,2.041c-10.581,8.825-7.003,27.33,5.905,32.028c1.164-8.605,12.161-12.469,18.747-7.091
		c11.349,7.947,12.205,24.169,7.573,36.155c3.842-2.766,7.244-7.508,12.205-7.815c3.754,1.998,6.915,4.917,10.164,7.661
		c-3.183-9.856-3.82-21.491,2.195-30.426c3.688-5.554,10.976-10.318,17.671-7.003c4.061,0.988,5.268,5.071,6.542,8.539
		c13.676-4.654,16.596-24.937,4.72-33.082c-4.632-4.061-10.888-2.02-16.157-0.768c1.559-2.766,3.249-5.422,5.115-7.99
		c0.285,1.098,0.878,3.271,1.185,4.368c10.713-4.39,20.876,6.959,21.469,17.057c1.712,12.227-8.188,24.147-19.845,26.518
		c-5.73,1.163-9.593-3.6-13.237-7.09c-9.659,13.281-5.071,33.652,7.859,43.136c13.215,10.273,26.364,20.635,39.14,31.479
		c3.293,3.49,8.517,2.459,12.688,1.383c12.227-3.183,21.711-14.444,22.698-27.067c1.537-21.403-17.254-41.314-38.526-41.885
		c-9.593-0.439-20.086,4.698-23.094,14.335c-3.337,8.474,2.239,20.35,11.964,20.679c6.937,1.076,14.62-4.039,15.498-11.13
		c-0.746-4.368-4.61-6.937-8.781-7.354c-3.227,1.405-6.081,3.469-9.044,5.312c-0.702-8.232,7.661-14.752,15.476-12.425
		c8.517,1.493,14.225,11.24,10.647,19.296c-6.805,14.313-31.062,15.345-38.306,0.922c-5.905-10.603-0.724-24.718,9.593-30.426
		c5.905-3.732,12.996-4.105,19.779-3.929c-5.444-10.098,10.998-22.259,15.915-9.396c-3.447,0.527-8.759-3.271-10.735,1.076
		c-3.995,4.764,2.415,10.954,7.53,9.286c5.247-1.295,8.013-6.761,8.43-11.788c1.405-16.091-11.042-31.94-26.891-34.75
		c-7.947-1.317-16.574-1.361-23.818,2.59c-1.493-0.944-2.964-1.888-4.412-2.854c11.217-5.488,24.762-6.893,36.396-1.866
		c15.059,6.212,25.245,23.028,22.61,39.316c-0.527,5.51-5.071,9.176-8.254,13.259c7.112,4.786,14.093,10.186,18.066,18.001
		c8.1-17.781,32.555-23.599,48.624-13.237c15.718,9.308,22.062,30.711,14.576,47.285c-7.222,16.837-24.257,25.947-40.04,33.257
		c-17.254,3.951-34.948,7.112-52.729,5.203c-0.285,11.13-0.132,22.281-0.176,33.433c18.308-1.558,36.616,1.339,54.309,5.861
		c11.151,5.993,23.357,11.239,31.523,21.337c4.478,5.203,6.564,12.073,11.569,16.903c22.128,21.974,51.17,38.592,82.825,40.545
		c26.694,2.129,54.77-5.795,74.659-24.125c16.376-14.839,26.43-37.714,22.852-59.885c-3.49-24.718-24.564-46.253-49.721-48.47
		c-15.871-2.349-34.377,5.356-39.645,21.425c-6.41,16.947,8.451,37.867,26.803,36.199c8.737,0.768,18.044-6.3,17.518-15.52
		c0.417-7.661-8.649-10.756-9.791-17.891c14.488,0.285,21.14,19.252,12.666,29.964c-11.591,16.618-39.031,12.557-49.611-3.205
		c-2.173-5.159-3.293-10.779-6.498-15.454c-1.405-8.869-0.219-18.418,5.115-25.837c8.034-12.117,22.83-18.506,37.121-18.308
		c27.44-0.198,53.19,19.998,60.522,46.275c6.256-18.923,20.832-35.189,39.601-42.324c14.598-5.554,31.83-5.729,45.572,2.305
		c12.557,6.783,20.591,21.579,18.703,35.804c-2.02,6.147-5.334,11.744-7.595,17.803c-10.471,16.047-38.592,19.318-49.677,2.349
		c-7.42-10.581-1.076-30.294,13.676-28.559c-4.237,6.849-13.94,13.479-9.352,22.676c7.266,15.476,31.26,11.745,39.382-1.185
		c10.076-13.369,4.895-34.618-10.208-41.884c-23.774-12.644-54.265,0.198-67.327,22.391c-11.986,19.296-10.691,45.024,1.032,64.122
		c12.096,20.964,34.487,34.201,57.69,39.316c21.733,4.478,44.782,2.459,65.351-5.927c18.703-7.442,35.255-19.493,49.458-33.63
		c4.171-4.698,6.278-10.822,10.318-15.63c7.727-9.417,18.747-15.301,29.767-19.998c-2.546-0.703-5.137-1.449-7.617-2.107
		c-14.225,10.669-30.162,18.857-46.495,25.684c-16.244,6.278-34.816,10.778-51.741,4.522c-11.832-4.127-21.601-15.147-21.842-28.011
		c-0.724-6.981,4.083-12.666,6.542-18.835c7.881-12.052,28.604-14.005,36.836-1.229c6.586,10.581-1.383,26.035-13.808,26.781
		c-5.005,0.703-10.581-4.5-8.298-9.637c3.798,0.922,7.837,5.159,11.832,2.327c6.586-3.446,8.627-13.764,2.195-18.308
		c-7.661-6.081-18.879-1.91-24.257,5.224c-7.178,9.066-4.346,23.269,4.522,30.206c9.659,7.573,22.808,8.693,34.574,6.717
		c23.862-4.303,45.199-16.376,66.668-27.001c-8.254-5.093-14.927-12.205-19.911-20.459c6.739-11.832,17.715-20.481,30.667-24.608
		c-13.83-4.632-26.76-13.457-34.289-26.145c-10.208-16.837-5.115-41.555,12.183-51.697c15.63-10.186,41.511-5.115,48.185,13.457
		c4.632-7.617,11.305-13.654,18.813-18.352c-4.347-4.149-8.43-9.066-8.912-15.301c-1.251-16.618,10.098-33.169,25.925-38.24
		c14.818-4.895,34.684-1.559,42.302,13.522c-3.754-0.658-7.442-1.8-11.24-1.624c-10.778,2.503-16.266,16.442-11.13,25.969
		c2.107,4.347,6.432,6.871,10.252,9.571c1.054-2.437,2.129-4.873,3.205-7.288c4.566-1.383,9.747-3.842,14.225-0.724
		c12.469,7.222,14.664,24.981,8.715,37.209c3.71-3.161,7.639-6.059,11.656-8.869c4.434,3.095,8.803,6.322,12.908,9.9
		c-6.234-9.769-5.664-23.203,0.9-32.643c3.819-5.642,11.876-9.571,18.22-5.576c3.403,1.273,3.995,5.159,5.51,7.99
		c12.995-4.741,16.486-23.225,5.971-32.225c-4.895-4.895-11.854-3.161-17.737-1.625c5.62-12.754,21.293-16.859,34.114-15.366
		c20.152,1.559,36.682,21.711,33.433,41.819c-0.439,5.708-4.61,9.856-8.517,13.544c6.915,5.071,17.474,10.23,17.167,20.02
		c3.117-0.834,4.237-3.842,3.929-6.937c8.913-11.701,25.596-16.618,39.404-11.371c18.901,6.454,29.394,29.833,21.82,48.317
		c-6.146,15.718-21.118,27.967-37.209,31.94l-1.361,0.505c-0.571,0.834-1.712,2.502-2.283,3.337
		c-17.606,2.919-35.277,6.805-53.3,4.917c0.088,11.13-0.044,22.281,0.198,33.411c14.664-1.185,29.591-0.329,43.86,3.512
		c3.688,1.163,7.464,0.878,11.327,0.549c-0.044,0.9-0.11,2.7-0.132,3.6c17.079,4.324,31.918,16.552,39.338,32.599
		c18.308,20.13,42.565,35.54,69.215,41.797c26.803,5.993,56.241,2.393,79.62-12.491c15.323-9.922,27.945-24.806,32.906-42.587
		c6.191-20.591,0.615-44.387-15.037-59.336c-15.301-15.454-41.687-21.755-60.698-9.549c-12.008,7.617-16.903,24.411-9.9,36.989
		c5.971,12.513,22.523,18.527,34.948,12.161c7.859-3.929,10.098-16.091,3.358-21.974c-2.129-2.612-5.641-4.698-5.247-8.495
		c13.918-0.659,19.867,17.913,13.04,28.208c-10.164,16.947-37.209,14.752-48.47,0.132c-3.227-5.685-5.708-11.744-8.561-17.584
		c-3.447-17.254,7.53-34.75,23.774-40.611c34.42-13.588,74.878,13.478,80.652,48.865c5.729-33.74,42.389-60.017,76.108-50.446
		c18.308,4.456,32.313,23.094,28.362,42.17c-2.744,5.444-5.049,11.108-7.771,16.574c-10.844,15.564-38.921,18.242-49.304,0.834
		c-6.761-10.274-0.878-28.538,12.864-28.208c0.439,7.2-10.427,9.637-8.935,17.54c-0.9,10.559,10.735,16.947,20.086,15.366
		c19.186-0.263,31.699-24.169,22.194-40.501c-9.505-17.781-33.345-20.854-50.731-14.203c-17.891,6.564-31.721,22.633-35.935,41.182
		c-5.027,21.381,2.744,44.497,17.825,60.083c19.427,20.942,49.15,30.25,77.249,28.406c32.906-1.537,63.134-19.01,85.876-42.06
		c5.422-7.069,8.495-16.025,15.937-21.491c7.091-5.115,14.401-11.218,23.335-12.381l1.164-0.461c0.812-0.79,2.415-2.327,3.227-3.095
		c17.189-3.907,34.772-7.025,52.465-5.093c0.219-11.13,0.066-22.259,0.198-33.367c-13.193,0.549-26.583,0.483-39.492-2.656
		c-5.356-1.076-10.954-3.227-16.354-1.054c0.373-1.427,1.12-4.259,1.492-5.664l-1.185,4.39c-7.244-6.059-16.333-9.242-23.511-15.344
		c-7.749-6.344-14.071-14.862-16.376-24.718c-5.115-18.33,6.696-39.645,25.157-44.629c14.993-4.786,32.643,2.283,39.997,16.289
		c4.719-7.178,11.042-13.105,18.483-17.386c-16.025-12.249-8.364-37.604,6.015-47.943c15.476-11.788,43.553-10.998,52.992,7.969
		c-5.861-1.537-12.754-3.271-17.628,1.515c-10.822,9.11-7.024,28.033,6.41,32.533c0.439-10.8,14.993-12.644,20.986-5.181
		c8.671,9.198,9.9,24.586,3.051,35.145c4.127-3.49,8.451-6.717,12.842-9.856c4.039,2.766,8.035,5.664,11.788,8.89
		c-5.949-12.271-3.798-30.074,8.781-37.274c6.893-4.237,15.652,0.483,17.671,7.881c3.6-2.656,7.749-5.049,9.834-9.22
		c5.291-9.549-0.219-23.708-11.107-26.167c-3.82-0.11-7.442,0.988-11.108,1.646c10.844-20.415,42.367-19.976,57.141-4.193
		c11.547,11.24,16.64,33.214,2.085,44.211c7.464,4.676,14.181,10.625,18.659,18.308c6.542-17.298,29.833-23.093,45.463-14.971
		c18.286,8.429,25.376,32.774,16.573,50.402c-7.002,14.291-21.074,23.884-35.738,29.152c12.996,3.886,23.906,12.688,30.601,24.477
		c-4.961,8.298-11.788,15.235-19.779,20.657c20.547,9.791,40.633,21.425,63.156,26.101c12.733,2.854,27.374,2.261,38.021-6.059
		c8.824-6.937,11.634-21.074,4.521-30.162c-5.4-7.156-16.75-11.371-24.388-5.181c-7.508,5.312-3.118,18.615,5.795,19.164
		c3.117-0.966,6.103-2.349,9.22-3.446c0.022,5.115-3.622,10.756-9.374,9.834c-13.654-0.856-21.337-19.537-11.59-29.416
		c10.295-10.756,28.34-6.234,36.374,5.071c0.549,4.456,3.161,8.232,4.632,12.425c2.217,12.578-5.466,25.464-16.706,31.018
		c-13.895,7.42-30.645,5.927-45.243,1.537c-20.854-6.564-40.567-16.947-58.194-29.833c-2.24,1.251-6.388,1.207-7.157,3.798
		c16.662,3.6,30.294,16.135,37.692,31.216c23.928,26.803,58.897,45.529,95.425,44.87c23.928,0,48.163-8.473,65.922-24.74
		c16.442-15.257,26.211-38.592,22.018-61.049c-4.412-28.23-32.796-51.324-61.619-46.758c-14.51,1.558-28.735,13.456-28.56,28.823
		c-1.317,15.498,12.93,30.36,28.648,28.582c8.671,0.549,16.969-6.805,17.144-15.564c-0.834-7.09-7.485-11.24-10.493-17.276
		c16.047-1.076,21.535,21.162,11.7,31.37c-13.127,14.598-38.526,9.637-48.953-5.839c-0.483-4.632-2.458-8.89-5.378-12.447
		c-4.764-15.564,3.908-33.126,18.066-40.48c17.979-10.12,41.204-6.805,57.844,4.588c15.674,10.537,26.979,27.879,28.867,46.846
		c3.205,25.289-8.759,50.797-28.011,66.91c-27.769,23.73-68.095,29.328-102.45,18.725c-22.479-6.827-42.784-20.152-58.524-37.516
		c1.888,15.278-5.817,31.633-20.02,38.284c-15.674,8.166-38.68,2.327-45.573-14.774c-4.544,7.53-11.173,13.479-18.527,18.176
		c4.303,4.105,8.386,9.044,8.869,15.279c1.273,16.881-10.493,33.653-26.716,38.482c-14.664,4.5-34.048,1.054-41.49-13.764
		c3.644,0.637,7.266,1.624,11.042,1.624c10.954-2.371,16.486-16.53,11.261-26.101c-2.129-4.193-6.234-6.673-9.9-9.286
		c-2.019,7.42-10.822,12.139-17.715,7.837c-12.534-7.222-14.576-24.938-8.803-37.209c-3.71,3.227-7.683,6.103-11.745,8.847
		c-4.39-3.139-8.737-6.366-12.798-9.856c7.771,12.03,5.334,31.655-8.079,38.635c-5.246,3.03-10.712-0.154-15.059-3.095
		c-0.022-1.559-0.088-4.676-0.11-6.234c-5.115,3.073-11.042,6.432-12.623,12.644c-2.766,8.539,0.834,19.625,9.615,23.072
		c4.324,1.954,9.044-0.351,13.435-0.988c-5.598,12.71-21.206,16.859-33.938,15.388c-20.218-1.449-36.858-21.623-33.609-41.775
		c0.395-5.751,4.588-9.9,8.54-13.588c-7.727-4.412-14.049-10.713-19.164-17.913l3.117-2.59c-3.315,0.944-6.037,3.161-4.874,7.112
		c-8.824,11.964-25.728,16.969-39.601,11.657c-15.125-5.203-24.828-21.14-24.389-36.835l2.129-4.566
		c-15.542,16.837-34.618,30.777-56.57,37.955c-30.952,10.493-66.844,7.99-94.833-9.483c-19.164-11.678-33.872-31.062-38.262-53.234
		c-4.39,23.313-20.547,43.355-40.962,54.902c-27.177,15.74-61.049,17.869-90.662,8.276c-22.567-7.068-42.104-21.293-58.041-38.46
		c4.039,4.895,1.69,11.481,0.439,16.947c-4.28,16.289-20.964,28.428-37.867,26.452c-10.756-1.427-23.313-7.091-25.399-18.945
		c-0.483-0.066-1.449-0.198-1.932-0.241c-2.81,8.781-10.427,14.335-17.913,18.967c3.161,3.227,7.003,6.41,7.991,11.086
		c4.61,18.813-8.978,39.009-27.528,43.355c-14.159,3.337-32.884,0.066-39.492-14.444c4.347,0.615,9,2.898,13.369,0.988
		c10.449-4.127,13.61-18.747,7.485-27.637c-2.437-3.403-6.234-5.313-9.659-7.42c-0.198,8.473-10.669,12.469-17.254,7.99
		c-12.271-7.771-14.269-26.254-6.783-38.021c-4.105,3.534-8.43,6.783-12.82,9.922c-4.083-2.788-8.078-5.686-11.766-8.957
		c5.729,11.986,3.907,28.801-7.595,36.682c-4.632,3.644-10.405,1.625-15.323-0.11c-1.098-2.437-2.151-4.873-3.205-7.288
		c-3.842,2.7-8.188,5.202-10.296,9.593c-5.115,9.549,0.373,23.401,11.13,25.969c3.798,0.066,7.508-0.988,11.261-1.624
		c-11.042,20.437-42.653,19.954-57.405,3.973c-11.371-11.283-16.398-32.994-1.954-44.014c-7.42-4.632-13.939-10.625-18.549-18.067
		c-6.893,17.013-29.789,22.852-45.419,14.774c-14.291-6.586-22.04-23.05-20.152-38.372c-24.52,27.243-60.983,44.563-97.972,42.455
		c-38.657-0.593-78.391-25.179-89.059-63.639c-6.564,27.791-30.447,48.777-56.812,57.756
		c-45.748,16.179-99.772-0.834-130.241-37.999c4.017,17.43-7.31,36.484-24.323,41.665c-15.235,5.312-33.433-1.734-41.028-16.003
		c-4.676,7.178-11.064,13.062-18.44,17.43c4.522,4.083,9.088,9.176,8.869,15.74c1.91,20.196-15.696,39.228-35.804,39.733
		c-12.118,0.878-26.891-3.293-31.765-15.564c5.313,1.273,11.569,3.359,16.223-0.724c11.766-8.188,8.913-28.428-4.786-33.016
		c-1.251,3.381-2.481,7.464-6.476,8.451c-6.629,3.337-13.896-1.295-17.583-6.783c-6.212-8.957-5.51-20.701-2.371-30.645
		c-3.424,2.898-6.915,5.729-10.383,8.561c-4.324-2.459-8.32-5.422-11.942-8.759c4.544,12.03,3.798,28.252-7.573,36.243
		c-6.608,5.378-17.584,1.515-18.813-7.091c-5.927,3.293-12.227,8.452-11.898,15.959c-1.273,8.495,4.346,17.803,12.952,19.559
		c3.666-0.088,7.288-0.944,10.91-1.558c-11.283,20.745-43.772,19.823-58.217,3.007c-10.712-11.305-15.147-32.708-0.9-43.092
		c-7.376-4.434-13.698-10.383-18.506-17.496c-8.122,16.201-29.987,22.413-45.814,14.093c-14.093-6.651-21.623-22.677-20.306-37.867
		c-23.159,25.223-56.373,42.17-90.991,42.104c-28.472,0.856-57.668-9.9-77.249-30.865c-9.769-10.471-16.069-23.598-19.976-37.252
		c-4.829,26.716-25.728,48.404-50.073,59.007c-19.581,8.978-41.753,10.822-62.936,7.947c-28.625-4.72-55.275-19.779-74.571-41.358
		c2.107,16.793-7.727,34.728-24.191,39.997c-14.905,5.4-35.694-0.636-41.182-16.64c-4.786,7.617-11.393,13.918-19.274,18.308
		c5.664,4.171,9.352,10.625,9.527,17.715c-0.373,15.015-9.878,29.657-24.081,35.057c-11.744,5.005-25.003,2.656-36.44-2.042
		c1.295-1.12,2.59-2.195,3.908-3.249c14.159,6.739,33.169,4.434,43.706-7.771c7.617-9.066,13.149-24.872,3.381-34.333
		c-4.676-4.785-15.344,0.659-11.569,7.135c2.393,4.61,7.398,1.932,11.174,1.273c-1.098,4.807-6.783,8.078-11.086,4.763
		c-5.576-2.217-5.707-8.539-5.532-13.61c-6.717-0.066-13.72-0.593-19.515-4.346c-10.471-5.795-14.796-20.591-8.649-30.908
		c7.903-13.83,31.852-12.381,37.999,2.261c3.425,7.486-2.02,16.837-9.9,18.44c-7.705,2.92-17.123-3.49-16.069-12.052
		c3.666,1.866,7.2,6.608,11.832,4.434c3.117-0.746,4.961-3.864,5.378-6.849c-0.966-11.415-18.089-14.927-24.389-5.883
		c-7.837,9.593-1.493,25.201,10.076,28.34c23.313,7.683,49.502-13.786,48.712-37.867c0.549-14.73-11.635-28.099-25.991-30.162
		c-3.095-0.373-6.739-0.615-9.088,1.822c-13.61,12.183-28.516,22.83-42.477,34.596c-10.339,10.229-14.708,29.46-3.688,40.787
		c2.481-5.949,9.132-9.396,15.323-6.893c9.813,4.302,18.264,14.4,16.662,25.706c-0.527,9.922-9.132,19.888-19.757,18.066
		c-1.361,0.966-2.722,1.932-4.083,2.919c-1.317-2.48-2.656-4.961-3.995-7.398c5.51,1.317,12.052,3.337,16.793-1.032
		c10.361-7.705,9.22-25.135-2.305-31.194c-3.666-3.293-4.544,3.469-6.015,5.422c-4.742,2.085-10.405,3.951-15.015,0.483
		c-11.547-7.595-13.303-24.191-8.144-36.177c-3.71,2.832-7.486,5.554-11.261,8.298c-4.434-3.03-8.759-6.234-12.666-9.9
		c7.068,11.92,5.268,30.162-6.981,37.977c-4.763,3.381-10.471,1.251-15.213-0.966c-0.812-2.305-1.625-4.588-2.459-6.849
		c-4.039,2.502-8.627,5.005-10.647,9.615c-4.61,8.912-0.637,21.71,9,25.398c4.347,1.712,8.956-0.461,13.325-1.032
		c-11.569,21.579-45.858,19.823-59.753,1.471c-9.483-11.547-12.842-31.347,0.329-41.555c-6.717-5.202-17.232-10.164-16.859-19.866
		c-3.029,0.79-4.061,3.732-3.93,6.717c-10.142,13.72-30.733,17.605-45.309,8.803c-12.688-7.53-21.798-24.059-16.596-38.679
		c-12.974,14.115-28.274,26.233-45.99,33.806c-31.26,14.071-69.237,14.159-99.684-2.217c-18.989-9.966-34.574-26.913-41.423-47.372
		c-7.222-21.14-3.995-46.033,10.296-63.529c15.257-19.735,43.224-30.689,67.217-21.557c15.015,5.181,26.606,20.415,25.025,36.638
		c0.373,7.266-5.115,12.798-6.959,19.515c-10.208,14.971-34.596,19.669-47.724,6.081c-10.405-10.186-5.598-32.116,10.559-32.621
		c-1.624,7.42-11.393,11.547-9.483,20.108c0.9,9.659,11.503,14.664,20.284,13.259c17.803-0.307,29.92-21.074,23.467-37.187
		c-5.532-15.279-23.291-22.391-38.57-20.459c-25.377,1.888-46.977,23.598-50.358,48.558c-1.032,10.361-0.637,21.14,3.227,30.952
		c8.056,22.15,27.352,38.943,49.216,46.868c26.869,10.01,57.602,8.188,83.615-3.556c16.354-7.135,30.755-18.001,43.706-30.118
		c5.444-5.049,7.573-12.513,12.359-18.067c7.442-9.264,18.681-13.808,28.626-19.647c-2.898-0.834-6.212-2.722-8.825-0.132
		c-18.089,12.03-37.406,22.742-58.436,28.625c-12.601,3.424-26.518,4.588-38.877-0.395c-10.625-4.149-19.493-13.852-20.832-25.442
		c-1.449-6.959,4.786-12.381,4.303-19.296c5.62-6.498,13.281-12.315,22.325-11.766c10.361-0.395,20.832,9.088,18.901,19.867
		c-1.12,9.22-10.954,18.22-20.415,14.883c-4.39-0.944-3.468-5.971-3.995-9.286c4.829,4.522,12.952,5.29,16.267-1.427
		c5.949-7.486-2.239-17.496-10.581-17.057c-12.996,0.022-23.533,14.181-19.164,26.694c4.698,14.949,22.237,20.679,36.528,19.098
		c26.123-2.81,49.348-16.201,72.464-27.681c-8.035-5.247-14.818-12.183-19.713-20.437c6.717-11.459,17.21-20.832,30.338-24.059
		c-15.322-6.63-30.974-16.53-36.967-32.95c-7.31-17.869,1.822-40.633,19.845-47.855c15.542-6.981,36.857-0.637,43.75,15.586
		c4.434-7.683,10.998-13.896,18.923-17.913C329.665,1869.342,333.902,1848.158,344.109,1836.633 M355.7,1832.748
		c-9.593,5.269-15.498,15.718-16.859,26.364c-0.768,6.915,2.546,15.959,10.515,16.749c3.644-0.834,7.946-3.161,6.564-7.661
		c-0.615-5.949-7.749-3.82-11.613-2.92c1.515-4.302,6.388-7.925,10.778-4.873c6.037,1.91,5.839,8.781,5.642,13.939
		c7.837-0.219,16.157,0.856,22.391,6.037c10.076,7.508,12.096,24.125,3.029,33.17c-8.43,7.793-23.006,7.244-31.216-0.615
		c-6.761-5.795-5.905-18.242,2.173-22.435c8.056-5.729,20.745-0.395,20.459,10.076c-4.061-1.734-7.903-6.344-12.688-3.973
		c-5.576,1.646-6.191,9.659-2.064,13.193c5.883,6.344,17.584,6.059,22.347-1.537c7.025-10.208-0.176-25.047-11.788-27.77
		c-23.357-6.717-48.185,14.444-48.075,38.153c-0.241,16.793,15.959,32.555,32.906,30.052c14.839-12.249,29.964-24.169,45.002-36.177
		c10.054-10.12,14.313-28.933,4.127-40.326c-4.632,8.539-16.332,9-22.698,2.195c-11.657-7.705-13.369-26.233-3.051-35.694
		c3.71-3.82,9.264-3.929,14.181-4.763C383.755,1826.887,367.971,1825.745,355.7,1832.748 M1786.906,1830.377
		c-14.554,5.224-24.564,21.82-20.942,37.077c1.427,6.432,10.274,11.393,15.169,5.422c3.6-3.095-0.219-6.937-2.195-9.593
		c-2.678,0.834-5.334,1.668-7.99,2.524c0.373-1.032,1.075-3.051,1.449-4.083c7.42-7.178,18.528,4.369,14.225,12.688
		c6.586-0.132,13.479,0.219,19.274,3.754c10.976,5.488,16.003,20.745,9.505,31.391c-7.595,13.018-29.152,12.513-36.923-0.044
		c-5.598-7.683,0.198-19.076,9.066-20.767c7.639-2.722,16.903,3.688,15.849,12.14c-4.171-2.985-9.988-7.617-14.686-2.788
		c-6.849,6.388,1.866,16.113,9.352,16.069c8.715,1.668,16.837-6.849,15.761-15.432c0.571-9.966-8.517-17.649-17.693-19.142
		c-22.281-3.49-44.87,16.332-44.299,38.899c-0.834,15.871,13.237,30.162,28.911,30.601c3.512,0.483,6.19-2.02,8.627-4.149
		c12.798-11.481,26.913-21.403,39.997-32.533c10.317-10.273,14.488-29.306,3.798-40.809c-2.678,5.686-8.978,9.483-15.257,7.047
		c-11.151-4.632-20.24-17.145-16.245-29.547c1.976-9.549,11.174-15.454,20.635-15.125
		C1811.624,1827.962,1798.496,1826.096,1786.906,1830.377 M1064.662,1836.809c-9.308,8.298-15.279,23.84-7.947,35.057
		c3.469,6.3,15.147,3.995,14.005-3.644c-1.405-5.708-7.178-4.149-11.349-2.744c0.373-0.944,1.12-2.832,1.493-3.776
		c7.354-7.266,18.374,4.632,13.698,12.754c12.469-1.493,26.803,4.434,30.777,17.166c5.181,12.161-4.72,27.989-18.33,27.286
		c-12.183,2.173-27.572-10.383-20.613-23.05c5.378-11.81,26.803-9.242,25.311,5.137c-3.007-1.822-5.751-4.215-9.132-5.268
		c-5.093,0.132-10.383,5.642-7.595,10.734c4.456,9.681,19.976,10.691,25.113,1.098c6.278-10.229-0.966-24.059-12.03-26.979
		c-24.674-7.442-51.434,16.991-47.877,42.126c1.383,11.942,10.669,22.193,22.172,25.333c4.171,1.097,9.439,2.239,12.842-1.208
		c12.71-10.866,25.859-21.184,39.053-31.457c13.039-9.483,17.847-29.943,8.034-43.311c-3.929,4.412-9.198,9.022-15.608,6.783
		c-7.595-3.095-14.444-9.308-16.837-17.342c-4.237-12.798,5.642-28.077,19.625-27.572
		C1096.076,1825.35,1076.582,1825.811,1064.662,1836.809 M1887.797,1833.933c10.691-0.461,20.459,8.056,20.635,18.901
		c1.844,11.854-7.332,22.611-18.044,26.189c-6.234,1.8-10.976-2.832-14.927-6.849c-7.2,9.571-6.125,23.137-0.659,33.279
		c3.842,7.727,11.788,11.832,18.11,17.21c11.108,8.452,21.579,17.737,32.686,26.167c19.406,2.371,36.726-18.396,31.743-37.143
		c-3.929-21.03-27.133-37.692-48.185-30.909c-11.283,3.095-17.891,17.869-10.778,27.725c6.212,10.734,27.111,5.488,24.74-7.617
		c-3.688-7.705-12.205-4.39-17.123,0.066c-0.812-8.956,9.022-15.432,17.057-11.854c8.474,2.129,12.447,12.557,8.32,20.064
		c-8.649,15.323-37.165,12.556-39.557-6.147c-3.907-17.671,14.664-31.26,30.974-28.603c-0.461-5.291-0.571-12.271,5.708-14.093
		c4.39-3.073,8.825,0.9,10.625,4.851c-4.083-0.461-10.8-3.227-11.613,3.029c-1.712,7.749,9.593,9.615,13.369,4.259
		c7.881-11.02,1.822-26.079-6.717-34.838C1921.999,1825.723,1901.89,1825.35,1887.797,1833.933 M2494.947,1833.604
		c-11.613,7.683-19.999,24.542-12.645,37.692c3.118,6.432,15.63,5.4,14.379-3.008c-1.163-6.322-7.529-3.622-11.788-3.095
		c1.866-3.907,6.125-7.991,10.603-4.873c6.234,1.822,6.212,8.803,5.686,14.093c8.342-0.417,17.298,0.966,23.62,6.937
		c9.418,7.815,10.757,24.016,1.646,32.555c-9.066,7.793-24.586,6.695-32.313-2.458c-5.488-6.564-3.534-17.979,4.588-21.447
		c8.1-5.027,19.779,0.68,19.625,10.603c-2.92-1.69-5.839-3.271-8.803-4.742c-5.159-0.285-10.295,4.127-8.825,9.549
		c3.754,10.669,20.964,12.227,25.794,1.625c6.037-10.361-1.69-24.147-12.864-26.65c-24.806-6.849-51.105,17.737-47.328,42.85
		c2.019,12.666,12.622,23.445,25.31,25.53c2.964,0.307,6.695,1.01,9.088-1.427c11.525-9.747,23.313-19.186,35.233-28.45
		c15.52-8.693,24.147-31.94,12.096-46.626c-3.139,3.556-6.871,7.815-12.205,6.981c-14.971-2.107-25.267-20.086-18.374-33.96
		c2.985-7.595,10.91-11.13,18.637-11.349C2523.813,1826.469,2507.195,1825.723,2494.947,1833.604 M2601.743,1833.911
		c9.11-0.154,18.198,5.203,20.393,14.467c4.786,13.083-5.597,27.44-18.176,30.776c-5.883,1.339-10.581-2.744-13.105-7.552
		c-10.647,11.481-6.564,30.491,3.732,40.743c12.666,10.822,26.321,20.437,38.811,31.479c10.208,11.503,28.208,1.471,34.596-9.549
		c12.469-21.008-3.842-49.216-26.518-54.002c-12.227-4.039-29.832,2.063-31.172,16.354c-2.107,9.176,6.037,19.449,15.761,17.518
		c7.332,0,15.85-9.439,9.44-15.871c-4.654-5.115-10.735-0.439-14.884,2.656c-1.12-8.408,8.1-14.862,15.739-12.205
		c7.728,1.471,13.698,10.559,10.471,18.089c-5.488,13.961-27.154,16.596-36.418,5.159c-6.827-7.727-5.796-20.13,0.505-27.857
		c6.256-7.859,16.859-10.383,26.496-9.681c-0.176-1.69-0.527-5.049-0.725-6.717c1.186-8.035,14.906-12.315,16.442-2.151
		c-4.281-1.581-10.142-3.139-11.678,2.766c-0.9,7.683,11.042,9.791,14.356,3.293c6.74-10.669,1.383-25.025-6.695-33.477
		C2636.909,1825.504,2616.319,1825.547,2601.743,1833.911 M538.253,1897.067c-3.776,5.685-1.449,14.093,4.456,17.298
		c4.061,2.437,9.659-0.527,10.976-4.742c-0.351-2.107-1.054-6.3-1.405-8.386c3.995,0.571,8.759,3.732,6.981,8.342
		c-1.844,9.659-13.698,12.776-21.425,7.859c0.22,19.603-16.947,37.209-36.726,36.572c0.132,4.171,0.263,8.342,0.395,12.513
		c10.076,0.988,21.228-3.315,30.404,2.393c-10.032,1.624-20.196,1.668-30.294,1.01c-0.022,11.108-0.022,22.237,0,33.367
		c16.706-1.383,33.477,0.505,49.655,4.785c13.347-1.844,24.74-10.603,32.247-21.491c-7.53-10.778-18.791-19.537-32.05-21.403
		c-6.366,1.054-12.6,2.788-18.945,3.885c-0.198-1.822-1.098-4.566,1.515-5.005c20.854-4.368,43.882-12.513,54.77-32.27
		c8.978-15.762,1.163-37.845-15.652-44.541C561.215,1882.886,545.278,1885.608,538.253,1897.067 M979.313,1916.407
		c-0.746,15.432,11.108,27.901,23.533,35.255c20.152,11.459,43.948,15.323,66.888,14.642c-0.198-4.456,5.466-18.637-4.325-12.864
		c-17.759-1.317-32.028-18.44-31.435-36.045c-4.127,1.251-8.43,3.776-12.754,1.8c-6.3-1.822-9.308-8.473-9.747-14.554
		c2.854-1.098,5.708-2.107,8.605-3.073c-0.79,1.734-2.393,5.246-3.205,6.981c2.02,3.117,4.478,6.454,8.539,6.849
		c9.022-0.812,12.249-12.974,7.178-19.537c-5.883-8.21-16.727-11.459-26.452-10.361
		C990.882,1886.596,978.83,1901.414,979.313,1916.407 M1714.705,1885.916c-16.793,3.469-27.638,22.72-22.808,38.987
		c3.183,11.722,12.491,20.635,22.633,26.716c20.262,11.613,44.233,15.257,67.305,14.774c-0.329-4.566,2.415-10.691-0.461-14.313
		c-7.683,3.271-15.674-1.317-21.733-5.751c-9.044-6.783-13.544-17.825-14.335-28.845c-7.749,5.071-19.186,1.449-21.271-7.859
		c-2.107-4.961,3.403-7.771,7.442-8.144c-0.703,2.656-1.515,5.291-1.998,8.012c1.668,4.303,7.178,7.552,11.503,4.764
		c5.773-3.49,7.771-11.986,3.864-17.605C1738.699,1886.772,1725.528,1883.874,1714.705,1885.916 M1963.488,1898.889
		c-4.083,7.925,5.334,21.03,13.764,14.554c4.764-2.722,1.756-7.793,1.01-11.854c10.647-1.032,8.166,13.457,1.032,16.398
		c-4.917,3.381-10.603,1.383-15.52-0.703c0.922,19.735-16.574,36.879-36.067,36.923c0,4.083,0.044,8.188,0.066,12.293
		c19.559,0.329,39.492-2.349,57.624-9.966c11.591-5.093,22.984-12.513,29.174-23.949c7.09-12.623,4.698-30.031-6.366-39.645
		C1995.911,1880.911,1971.566,1882.996,1963.488,1898.889 M2424.985,1887.123c-14.137,5.422-22.348,21.886-18.835,36.528
		c3.205,14.971,16.244,25.245,29.416,31.501c18.901,8.605,40.041,11.898,60.698,11.152c-0.044-4.061-0.044-8.1-0.022-12.118
		c-19.471-0.044-36.945-17.188-35.979-36.901c-4.983,2.107-10.734,4.083-15.63,0.659c-7.025-3.051-9.549-17.188,1.01-16.398
		c-0.834,4.127-3.6,9.198,1.185,11.942c8.474,6.344,17.672-6.673,13.698-14.62
		C2454.247,1886.201,2437.498,1882.645,2424.985,1887.123 M264.797,1913.992c-1.405,14.752,8.364,28.055,20.35,35.628
		c20.767,13.369,46.319,17.188,70.62,16.815c0.022-4.105,0.066-8.188,0.11-12.249c-19.581,0.132-36.945-17.057-36.396-36.748
		c-4.852,1.91-10.383,3.842-15.213,0.681c-5.752-2.678-6.937-9.308-5.927-14.949c2.195-0.549,4.412-1.12,6.629-1.668
		c-0.659,4.127-3.446,9.352,1.361,12.052c7.727,5.883,16.64-5.334,14.137-12.974c-3.49-10.449-15.454-15.783-25.882-15.234
		C278.978,1884.84,265.894,1898.955,264.797,1913.992 M1254.372,1894.652c-5.269,5.708-4.193,17.188,3.688,20.02
		c4.478,2.393,8.957-2.151,10.888-5.905c-0.944-2.59-1.712-5.225-2.305-7.903c2.481,1.69,7.925,2.305,7.156,6.52
		c0.154,10.8-13.632,15.718-21.93,9.988c1.251,19.581-16.574,37.253-36.067,36.55c0.176,4.193,0.373,8.386,0.571,12.6
		c23.247,0.176,47.416-3.381,67.7-15.366c12.096-7.31,23.379-19.603,22.611-34.64c0.505-12.842-8.078-25.333-20.108-29.701
		C1275.555,1883.413,1262.099,1885.52,1254.372,1894.652 M2679.058,1896.826c-4.654,6.739-0.461,18.045,8.166,18.659
		c3.798-0.768,6.037-3.951,7.969-7.047c-1.053-2.349-2.042-4.698-2.963-7.047c4.061,0.439,9.878,3.117,7.771,8.232
		c-2.174,9.308-13.632,12.996-21.337,7.749c-0.11,19.515-16.881,37.34-36.792,36.572c0.044,4.149,0.132,8.298,0.241,12.447
		c18.879,0.593,38.087-2.151,55.758-9.044c14.379-5.861,28.867-15.806,33.872-31.216c5.115-15.103-3.359-33.258-18.22-38.987
		C2701.734,1882.996,2686.016,1885.608,2679.058,1896.826 M362.659,1954.011c-0.154,21.71-0.088,43.443-0.044,65.154
		c22.303,17.21,43.948,35.277,65.856,52.992c22.325-17.649,44.08-36.045,66.58-53.453c-0.637-21.25-0.988-42.521,0.176-63.749
		c-22.303-17.913-44.409-36.067-66.8-53.87C406.563,1918.8,384.94,1936.822,362.659,1954.011 M1138.355,1904.684
		c-20.525,16.728-40.897,33.697-61.927,49.809c0.439,21.403,0.483,42.806,0,64.209c22.698,17.276,44.343,35.892,66.8,53.475
		c21.996-17.979,43.904-36.111,66.361-53.497c-0.351-21.381-0.307-42.784,0-64.166c-22.018-16.837-43.114-34.816-64.824-52.004
		C1142.526,1899.987,1140.265,1903.719,1138.355,1904.684 M1788.223,1954.538c0.702,21.381,0.724,42.763,0,64.122
		c22.588,17.386,44.343,35.826,66.668,53.519c21.974-17.847,43.772-35.913,66.141-53.278c-0.044-21.513-0.088-43.026,0.022-64.539
		c-22.325-17.408-44.167-35.431-66.141-53.299C1832.544,1918.712,1810.811,1937.173,1788.223,1954.538 M2502.937,1954.384
		c0.088,21.491,0.088,42.982,0,64.473c22.303,17.408,44.168,35.343,66.031,53.299c22.523-17.518,44.189-36.155,66.865-53.497
		c-0.768-21.359-0.746-42.741-0.022-64.1c-22.632-17.364-44.343-35.87-66.734-53.497
		C2547.126,1918.953,2525.262,1936.954,2502.937,1954.384 M274.455,1986.719c4.061,8.056,11.635,13.874,19.647,17.693
		c4.939,2.129,10.361,4.83,15.805,2.876c14.818-4.061,30.316-5.159,45.616-3.907c0.154-11.174,0.132-22.347,0.022-33.521
		c-16.903,1.668-33.784-0.768-50.182-4.698C292.873,1967.643,280.295,1975.063,274.455,1986.719 M1699.8,1986.609
		c7.727,10.734,18.967,19.823,32.467,21.447c16.091-4.237,32.774-6.103,49.414-4.807c-0.022-11.108-0.022-22.193,0-33.301
		c-13.566,0.746-27.374,0.505-40.611-2.832C1724.716,1961.211,1708.954,1974.053,1699.8,1986.609 M2682.943,1967.116
		c-13.259,3.359-27.067,3.534-40.633,2.876c0.044,11.086,0.044,22.172,0.022,33.257c16.64-1.339,33.301,0.593,49.414,4.764
		c13.5-1.515,24.696-10.713,32.467-21.403C2715.059,1974.075,2699.297,1961.211,2682.943,1967.116 M276.738,2030.316
		c-13.588,11.7-16.552,34.421-3.732,47.746c11.635,14.269,38.218,13.237,46.846-3.644c4.281-7.727-5.071-21.008-13.501-14.774
		c-4.829,2.678-2.063,7.859-1.317,12.008c-2.239-0.527-4.456-1.076-6.695-1.581c-1.032-5.576,0.176-12.205,5.795-14.906
		c4.851-3.249,10.471-1.383,15.344,0.659c-0.571-19.691,16.793-36.989,36.396-36.748c-0.044-4.105-0.088-8.21-0.11-12.293
		C328.172,2006.454,297.922,2011.152,276.738,2030.316 M501.483,2006.74c-0.132,4.127-0.241,8.298-0.351,12.469
		c19.801-0.659,36.77,16.947,36.792,36.484c7.771-4.807,19.581-1.646,21.359,8.012c1.69,4.632-3.029,7.661-7.047,8.254
		c0.593-4.105,3.315-9.725-1.537-12.337c-7.705-5.861-16.574,5.488-13.896,12.952c3.468,11.24,16.662,16.223,27.55,15.235
		c18.857-0.571,32.533-21.952,27.067-39.58c-3.227-12.096-13.04-21.162-23.576-27.22
		C547.758,2009.813,524.204,2006.388,501.483,2006.74 M1001.506,2022.369c-11.876,7.376-22.984,19.625-22.193,34.531
		c-0.615,16.376,14.005,32.138,30.777,30.974c10.669,0.219,23.818-6.059,24.981-17.803c0.461-6.41-4.324-10.691-9.593-13.105
		c-3.446,1.822-6.476,4.281-8.583,7.595c0.768,1.822,2.305,5.488,3.073,7.31c-2.81-1.186-8.803-1.734-7.815-6.234
		c0.285-10.471,13.457-15.586,21.798-9.856c-0.681-19.581,16.727-37.231,36.375-36.506c-0.154-4.149-0.285-8.276-0.417-12.381
		C1046.42,2006.257,1021.922,2010.186,1001.506,2022.369 M1215.802,2019.274c19.537-0.681,37.208,16.947,36.111,36.55
		c8.21-5.532,21.732-1.032,21.886,9.637c1.098,4.807-4.829,5.576-8.056,5.971c0.878-1.625,2.634-4.829,3.512-6.454
		c-1.932-3.754-5.203-6.256-8.934-7.99c-6.893,2.744-11.217,10.164-8.429,17.452c4.434,9.527,15.805,14.093,25.881,13.413
		c16.069,0.154,29.526-15.235,28.911-30.952c0.856-15.103-10.449-27.484-22.567-34.816c-20.284-12.03-44.475-15.52-67.7-15.432
		C1216.197,2010.866,1215.978,2015.059,1215.802,2019.274 M1732.245,2013.61c-15.257,5.181-30.799,13.961-38.175,28.911
		c-6.761,13.062-2.612,30.36,9,39.228c10.713,8.649,27.616,8.144,38.087-0.68c4.851-4.127,7.683-11.481,4.193-17.298
		c-2.107-5.4-9.439-7.969-13.676-3.403c-3.973,3.03-0.856,7.595-0.241,11.437c-3.973-0.439-9.461-3.293-7.42-8.188
		c2.107-9.374,13.632-12.996,21.381-7.815c0.066-19.471,16.881-37.362,36.77-36.484c-0.11-4.193-0.198-8.364-0.263-12.535
		C1765.129,2006.278,1748.226,2008.474,1732.245,2013.61 M1927.728,2006.893c-0.022,4.039-0.022,8.078,0,12.139
		c19.449-0.022,36.989,17.167,36.023,36.88c4.917-2.064,10.581-4.061,15.52-0.703c7.134,2.964,9.659,17.43-1.01,16.42
		c0.768-4.127,3.754-9.176-1.054-11.876c-7.595-6.015-16.727,4.917-14.247,12.622c3.227,10.823,15.761,16.157,26.386,15.476
		c16.201,0.242,29.526-15.213,29.262-30.974c0.329-15.059-10.493-27.725-22.896-34.882
		C1975.342,2010.054,1951.019,2006.257,1927.728,2006.893 M2417.214,2030.426c-13.369,11.744-16.289,34.355-3.6,47.658
		c11.635,14.203,38.021,13.171,46.802-3.556c4.281-7.969-5.115-21.25-13.677-14.752c-4.675,2.788-1.953,7.903-1.163,12.03
		c-2.305-0.659-4.566-1.295-6.805-1.932c-0.242-4.83-0.264-10.449,4.237-13.479c4.895-4.369,11.722-3.205,17.232-0.725
		c-0.746-19.603,16.618-36.616,36.023-36.638c-0.066-4.127-0.088-8.232-0.11-12.337
		C2468.582,2006.63,2438.354,2011.196,2417.214,2030.426 M2642.112,2006.783c-0.11,4.171-0.198,8.342-0.241,12.535
		c19.911-0.878,36.704,17.057,36.77,36.528c7.705-5.269,19.208-1.581,21.359,7.749c2.085,4.939-3.49,7.749-7.486,8.166
		c1.186-4.193,3.798-9.834-1.471-12.293c-7.595-5.532-15.652,5.334-13.72,12.556c2.986,11.547,16.42,16.662,27.33,15.805
		c18.417-0.351,32.028-20.393,27.879-37.823c-2.942-13.413-13.852-23.467-25.486-29.789
		C2687.246,2009.703,2664.306,2006.366,2642.112,2006.783 M325.384,2052.268c-1.734,24.147,22.918,46.582,46.824,40.809
		c10.932-2.151,19.011-14.576,14.466-25.223c-3.073-9.264-15.959-11.81-22.874-5.334c-4.983,3.205-5.049,12.249,1.12,14.093
		c4.763,2.393,8.561-2.305,12.578-4.039c0.351,8.693-9.066,14.927-16.903,11.635c-8.649-1.954-12.82-12.623-8.627-20.174
		c6.827-11.305,24.477-13.193,34.07-4.456c9.176,8.956,7.2,25.684-2.876,33.213c-6.234,5.181-14.576,6.322-22.413,6.059
		c0.176,5.115,0.395,12.008-5.62,13.94c-4.368,3.051-9-0.615-11.086-4.5c2.261,0.176,6.783,0.527,9.044,0.702
		c6.937-3.578,0.746-14.115-5.927-11.02c-11.459,4.434-9.373,20.306-4.28,29.042c9.286,19.164,35.826,23.05,52.86,12.227
		c-10.91,0.615-20.657-8.078-20.833-19.054c-1.668-11.744,7.442-22.479,18.11-25.969c6.015-1.756,10.998,2.305,14.313,6.805
		c10.208-11.415,5.949-30.228-4.127-40.326c-15.059-12.03-30.184-23.972-45.046-36.199
		C342.002,2022.172,326.504,2036.375,325.384,2052.268 M1040.274,2050.007c-4.105,25.706,24.016,51.082,49.041,42.148
		c11.547-3.534,17.693-19.757,8.869-28.933c-6.893-9-25.772-3.029-23.445,8.759c3.029,8.078,12.227,4.851,16.991,0.241
		c0.132,4.961-2.173,10.295-7.31,11.788c-9.922,4.412-22.435-5.839-19.406-16.508c4.961-16.157,31.216-18.264,38.921-3.293
		c6.651,11.13,0.263,26.32-11.064,31.501c-5.598,3.161-12.074,3.117-18.286,3.073c2.239,5.51,0.11,12.403-5.861,14.379
		c-4.127,2.415-8.891-1.076-9.352-5.444c3.249,0.263,8.035,3.6,10.164-0.549c5.093-6.125-5.554-12.798-10.515-8.056
		c-8.934,7.376-5.861,21.403-0.461,30.096c10.208,17.167,34.948,20.547,51.082,10.054c-9.593,0.132-18.242-6.717-20.064-16.113
		c-3.337-12.425,5.927-24.608,17.21-28.823c6.147-2.02,11.635,1.954,14.993,6.761c10.251-11.898,5.839-31.347-5.115-41.226
		c-13.896-11.173-28.12-21.952-41.621-33.609c-3.381-3.249-8.473-2.195-12.513-1.12
		C1051.118,2028.187,1041.81,2038.197,1040.274,2050.007 M1210.797,2026.474c-12.864,10.932-26.145,21.381-39.492,31.743
		c-12.666,9.549-17.145,29.767-7.486,42.894c3.907-4.303,8.934-8.935,15.323-6.805c8.364,3.227,15.915,10.383,17.54,19.515
		c2.744,12.534-7.068,26.079-20.35,25.442c7.398,4.456,16.003,6.739,24.696,5.708c17.101-0.549,31.83-16.266,31.589-33.301
		c-0.022-5.334-2.129-11.547-7.573-13.522c-5.093-2.81-12.798,3.798-8.495,8.913c2.086,4.302,7.376,0.746,10.932,1.339
		c-2.151,3.425-6.168,7.464-10.405,4.632c-6.059-1.888-7.398-8.847-5.686-14.225c-6.827,0.11-13.983-0.219-19.91-4.017
		c-9.747-5.51-15.125-18.637-10.098-29.042c6.103-15.235,30.601-15.279,38.328-1.515c4.171,7.244,0,17.167-7.837,19.713
		c-8.078,3.907-18.549-2.459-17.715-11.722c2.964,1.8,5.817,3.842,9,5.312c4.237-0.439,8.166-3.007,8.847-7.464
		c-0.966-6.981-8.473-12.052-15.322-11.042c-10.01,0.22-15.696,12.579-11.964,21.162c3.161,9.352,13.5,14.291,22.918,13.874
		c21.25-0.549,39.997-20.437,38.548-41.775c-0.966-12.601-10.339-23.862-22.523-27.111
		C1219.446,2024.038,1214.156,2022.962,1210.797,2026.474 M1923.184,2025.969c-14.203,12.249-29.262,23.445-43.728,35.365
		c-9.417,10.273-13.171,28.362-3.512,39.623c3.139-3.578,6.871-7.837,12.271-6.981c15.454,2.173,25.838,21.359,17.649,35.277
		c-3.227,7.003-10.866,9.659-18.066,10.01c14.444,8.868,35.343,8.166,47.307-4.632c7.859-8.781,13.413-23.181,5.839-33.784
		c-3.71-5.4-14.884-3.688-13.545,4.039c0.9,6.344,7.661,3.644,11.876,3.271c-2.085,3.688-6.256,7.815-10.669,4.764
		c-6.344-1.778-6.322-8.803-5.795-14.115c-8.803,0.549-18.352-1.295-24.63-7.925c-8.495-7.991-9.308-23.247-0.746-31.435
		c8.934-7.903,24.323-6.871,32.225,2.063c6.366,7.134,3.161,20.086-6.41,22.545c-8.078,3.688-17.957-2.744-17.342-11.722
		c4.171,2.064,8.144,6.915,13.149,4.083c5.269-2.173,5.708-9.725,1.317-13.04c-6.059-6.761-18.791-5.795-22.808,2.678
		c-6.169,10.318,1.471,24.125,12.622,26.738c24.894,7.025,51.39-17.715,47.482-42.938c-2.063-12.6-12.644-23.313-25.245-25.399
		C1929.286,2024.082,1925.555,2023.423,1923.184,2025.969 M2466.672,2061.51c3.49,17.847,19.954,32.072,38.219,32.555
		c9.373,0.263,19.91-4.588,22.72-14.203c3.907-9.11-3.183-22.084-13.83-20.854c-7.398-0.659-17.43,8.561-11.239,15.564
		c4.61,5.532,11.195,0.856,15.893-1.91c-0.11,8.803-9.637,14.993-17.628,11.415c-8.276-2.217-12.205-12.315-8.32-19.757
		c8.473-15.63,37.45-12.908,39.755,6.015c3.776,17.605-14.796,31.128-31.062,28.45c0.527,5.313,0.549,12.293-5.708,14.137
		c-4.456,3.051-8.649-1.054-10.69-4.764c4.039,0.263,10.844,3.117,11.678-3.051c1.954-7.727-9.593-9.791-13.325-4.324
		c-7.42,10.076-2.481,23.906,4.763,32.665c11.613,13.874,33.411,14.971,48.273,5.839c-4.369-0.878-9.198-0.834-12.754-3.798
		c-10.098-7.749-10.801-24.652-1.69-33.433c4.303-4.368,9.834-8.891,16.442-8.012c4.478,0.241,7.178,4.324,10.318,7.025
		c9.878-13.479,4.807-34.487-8.649-43.729c-13.237-10.23-26.32-20.657-39.118-31.435c-3.073-2.942-7.771-1.668-11.415-0.944
		C2473.74,2028.67,2462.677,2045.814,2466.672,2061.51 M1751.826,2054.617c-0.9,24.564,26.847,46.582,50.292,37.099
		c11.108-3.973,16.157-20.152,7.442-28.757c-6.893-7.881-22.347-3.732-23.642,6.959c0.9,2.876,2.525,6.344,5.905,6.915
		c4.544,1.932,7.903-2.744,11.525-4.588c-0.373,3.578-0.593,7.683-3.951,9.856c-8.803,7.552-23.73-0.593-23.225-11.876
		c1.471-11.174,13.72-17.627,24.191-15.805c13.413,0.417,21.711,16.288,16.442,28.121c-4.237,12.183-18.154,17.452-30.184,16.266
		c1.515,5.159,0.439,11.371-4.961,13.742c-4.149,3.271-10.251,0.154-10.8-4.873c4.786,2.371,11.854,2.283,11.942-4.676
		c-2.415-7.244-12.754-6.717-15.52-0.022c-5.378,11.24,0.176,24.981,8.693,33.147c12.403,11.613,32.203,11.393,46.319,3.073
		c-9.505,0.483-18.659-5.62-20.635-15.147c-3.973-12.381,5.093-24.872,16.266-29.481c4.347-1.756,8.759,0.461,12.754,2.151
		c0.307,1.405,0.944,4.237,1.251,5.664c12.118-10.252,8.078-29.789-1.405-40.414c-14.73-13.149-31.369-24.059-45.616-37.779
		C1767.786,2022.325,1750.926,2037.209,1751.826,2054.617 M2606.835,2050.951c-6.739,5.532-14.927,10.273-18.506,18.615
		c-4.807,10.142-5.949,23.532,2.678,32.006c2.349-5.027,7.354-8.847,13.215-7.486c12.403,3.556,22.654,17.649,17.913,30.667
		c-2.151,9.198-11.173,14.862-20.35,14.401c16.003,9.922,40.128,7.903,51.039-8.605c5.993-8.846,9.725-23.357,0.615-31.391
		c-5.137-5.093-16.354,2.502-10.339,8.342c2.327,3.885,6.717,0.351,10.054,0.176c-0.395,0.944-1.185,2.832-1.581,3.798
		c-7.288,7.2-18.527-4.325-14.071-12.535c-12.183,0.966-26.321-4.281-30.426-16.749c-5.532-12.645,4.676-28.999,18.878-27.901
		c11.789-1.756,26.584,10.493,20.13,22.72c-5.005,12.03-26.957,9.878-25.442-4.698c3.973,2.415,8.429,7.068,13.391,3.864
		c5.422-3.183,4.456-11.064-0.549-14.137c-8.276-7.332-23.181-1.229-23.203,9.988c-1.91,10.757,7.398,20.021,17.496,21.579
		c21.623,3.447,43.574-15.037,44.386-36.792c2.152-18.198-15.125-34.684-33.125-32.577
		C2629.007,2033.938,2617.68,2042.17,2606.835,2050.951 M421.951,1918.953c2.898-2.02,6.695-5.817,10.076-2.261
		c17.452,13.479,34.838,27.177,51.236,41.928c1.998,18.484,0.834,37.384,0.505,56.022c-15.652,13.215-31.567,26.101-47.57,38.877
		c-3.315,2.239-7.464,6.915-11.283,2.832c-17.671-13.281-34.487-27.703-51.587-41.731c-0.483-18.659-0.483-37.34-0.022-56
		C389.396,1945.23,405.531,1931.927,421.951,1918.953 M381.34,1957.018c-1.734,1.558-4.544,2.876-4.368,5.642
		c-0.637,15.959-0.637,31.962,0,47.943c-0.154,2.678,2.568,3.973,4.281,5.532c16.003,11.854,31.764,24.037,47.329,36.484
		c17.013-13.742,34.574-26.782,51.873-40.15c0.022-17.123,0.768-34.289-0.307-51.39c-16.552-14.181-34.772-26.496-51.543-40.48
		C413.06,1933.003,397.321,1945.186,381.34,1957.018 M1140.024,1916.451c4.522-3.644,8.781,2.547,12.469,4.676
		c15.301,13.105,32.314,24.499,46.187,39.097c0.483,17.518,0.483,35.123,0,52.663c-3.49,5.137-8.934,8.605-13.545,12.71
		c-13.149,10.405-25.728,21.601-39.36,31.369c-2.7,2.832-5.971-0.505-8.342-1.932c-13.654-10.581-26.891-21.689-40.304-32.555
		c-3.381-3.029-7.31-5.686-9.659-9.593c-0.922-16.113-0.395-32.313-0.351-48.448c-0.9-5.971,5.071-9.066,8.715-12.622
		C1110.542,1940.027,1124.767,1927.558,1140.024,1916.451 M1140.946,1922.202c-16.266,12.952-32.665,25.772-49.502,37.999
		c-0.132,17.562-0.044,35.123-0.044,52.707c17.386,12.93,34.728,25.947,51.433,39.777c17.057-13.391,34.092-26.825,51.631-39.579
		c0.263-17.693,0.307-35.387-0.022-53.058c-16.025-11.635-31.699-23.752-47.109-36.155
		C1145.49,1922.817,1142.965,1919.458,1140.946,1922.202 M1847.362,1919.546c3.315-2.261,7.573-6.827,11.261-2.547
		c17.671,13.303,34.53,27.66,51.565,41.753c0.351,18.594,0.395,37.165-0.022,55.758c-16.991,14.005-33.784,28.318-51.368,41.599
		c-4.127,4.61-8.781-0.724-12.403-3.183c-14.598-11.832-29.35-23.467-43.619-35.694c-4.522-2.92-3.556-8.517-3.732-13.083
		c0.044-13.896-0.263-27.791,0.219-41.665c-0.417-3.929,3.315-6.146,5.751-8.539
		C1819.065,1942.398,1833.115,1930.873,1847.362,1919.546 M1802.953,1960.596c-0.198,17.364-0.263,34.75,0.044,52.114
		c17.562,13.018,34.772,26.474,52.004,39.909c15.41-12.71,31.391-24.762,47.416-36.682c1.69-1.427,4.149-2.722,3.842-5.334
		c0.505-16.749,1.098-33.63-0.373-50.292c-16.749-13.479-34.443-25.859-50.885-39.711
		C1837.769,1934.078,1820.47,1947.469,1802.953,1960.596 M2562.536,1918.997c2.81-1.866,6.542-5.883,9.9-2.437
		c17.935,13.786,35.826,27.813,52.487,43.114c0.088,17.935,0.088,35.892,0.022,53.848c-14.993,14.159-31.655,26.43-47.548,39.557
		c-3.512,2.437-8.078,7.508-12.096,3.073c-17.627-13.281-34.465-27.616-51.455-41.687c-0.417-18.571-0.439-37.165,0-55.736
		C2529.916,1945.296,2546.094,1931.971,2562.536,1918.997 M2518.149,1960.289c-1.295,17.452-1.295,35.167,0,52.619
		c15.476,12.469,31.786,23.994,47.153,36.682c1.734,1.207,4.215,4.105,6.213,1.186c16.31-12.908,32.796-25.64,49.502-38.043
		c0.263-17.408,0.219-34.794,0.022-52.18c-17.693-12.798-34.42-26.957-52.158-39.558
		C2552.153,1934.32,2534.921,1947.052,2518.149,1960.289 M983.089,1986.5c5.422-10.954,15.454-19.559,27.155-23.137
		c4.017,2.898-1.537,5.181-3.842,6.564c-7.552,3.798-13.303,10.098-18.33,16.727c4.852,6.059,9.966,12.205,16.991,15.849
		c2.415,1.888,8.1,3.073,6.059,7.178c-5.246-2.656-9.022,2.063-13.083,4.281c-17.935,11.437-37.253,21.491-58.151,26.211
		c-14.642,3.205-31.501,2.173-43.487-7.705c-7.771-6.739-13.281-18.067-9.505-28.252l0.571-1.734
		c2.239-6.388,4.72-13.544,11.261-16.727c9.725-6.651,25.377-4.72,30.952,6.388c6.015,10.976-3.973,26.079-16.288,25.311
		c-5.137-0.241-7.398-5.664-6.937-10.164c2.656,1.361,5.312,2.766,7.947,4.259c5.378-1.229,11.02-5.532,10.252-11.678
		c0.79-7.178-7.376-11.459-13.566-10.91c-12.666,0.922-22.216,15.081-17.54,27.111c4.917,15.322,23.247,20.306,37.67,18.549
		c25.267-3.315,48.031-15.805,70.356-27.352C994.987,2000.791,986.535,1995.566,983.089,1986.5 M1271.823,1966.655
		c1.603-1.12,3.227-2.239,4.895-3.315c11.415,4.259,20.679,12.754,26.694,23.269c-4.786,8.342-11.766,15.015-19.515,20.591
		c23.335,11.481,46.758,25.047,73.144,27.572c13.83,1.229,30.821-4.237,35.475-18.659c4.829-12.161-5.115-26.496-17.913-27.177
		c-6.059-0.351-13.896,3.907-13.281,10.844c-0.746,6.213,4.917,10.581,10.405,11.766c2.547-1.493,5.137-2.898,7.771-4.259
		c-0.329,3.82-0.439,8.649-4.983,9.791c-14.027,3.205-26.123-16.31-16.574-27.396c8.803-11.876,27.33-8.934,36.067,1.581
		c1.822,5.137,5.225,9.593,6.651,14.905c1.208,12.666-6.498,25.464-17.957,30.843c-13.281,6.651-29.021,5.576-42.938,1.581
		c-21.491-6.103-40.984-17.408-59.556-29.547c-3.161,0.483-5.949-0.856-8.627-2.173c10.91-3.424,19.889-10.976,26.342-20.262
		C1291.493,1977.477,1282.756,1969.706,1271.823,1966.655 M1983.354,1966.743c1.449-1.207,2.964-2.371,4.5-3.512
		c11.349,4.193,21.535,12.337,26.847,23.379c-3.929,8.737-11.591,14.971-19.186,20.437c22.479,11.261,45.089,24.038,70.378,27.484
		c14.159,1.91,31.742-2.524,37.801-16.859c6.235-12.491-4.302-28.516-17.935-28.735c-7.332-0.483-15.608,6.959-12.359,14.598
		c1.405,4.632,5.839,6.783,10.076,8.298c2.283-1.603,4.632-3.183,7.003-4.72c0.022,2.063,0.088,6.169,0.132,8.21
		c-14.752,8.913-31.72-12.798-21.03-25.552c8.715-11.854,27.111-9.154,35.914,1.273c3.271,8.935,9.505,18.725,5.071,28.362
		c-6.125,16.771-25.64,23.972-42.301,22.237c-26.606-2.656-50.665-16.179-72.749-30.426c-3.798-2.502-8.671-1.976-12.491-4.346
		c10.603-3.578,20.898-10.164,26.079-20.393C2003.66,1976.731,1993.979,1969.772,1983.354,1966.743 M2408.828,1986.588
		c6.234-10.537,15.564-19.318,27.286-23.357c1.471,1.163,2.963,2.327,4.5,3.512c-10.976,2.898-19.977,10.493-26.145,19.801
		c5.532,8.979,14.093,15.454,23.708,19.603c1.405,4.347-6.015,2.261-8.298,4.325c-18.813,12.118-38.679,23.379-60.544,28.977
		c-12.49,3.073-26.254,3.71-38.218-1.69c-10.712-4.698-19.01-15.235-19.537-27.111c-1.273-7.398,5.4-12.666,6.915-19.537
		c8.737-10.537,27.308-13.215,36.001-1.251c10.625,12.754-6.454,34.421-21.118,25.42c0.044-2.042,0.109-6.103,0.154-8.144
		c2.305,1.515,4.61,3.073,6.937,4.676c4.237-1.449,8.693-3.622,10.142-8.232c2.986-6.893-3.644-13.764-10.23-14.532
		c-11.766-1.229-22.808,10.032-21.776,21.754c0.812,10.581,9.483,19.274,19.471,22.04c13.654,4.434,28.252,0.878,41.511-3.402
		c16.991-5.839,32.95-14.225,48.887-22.413C2420.507,2001.734,2413.702,1994.841,2408.828,1986.588L2408.828,1986.588z"/>
</g>
</svg>
