<?xml version="1.0" encoding="utf-8"?>
<!-- Generator: Adobe Illustrator 27.5.0, SVG Export Plug-In . SVG Version: 6.00 Build 0)  -->
<svg version="1.1" id="Layer_14_copy" xmlns="http://www.w3.org/2000/svg" xmlns:xlink="http://www.w3.org/1999/xlink" x="0px"
	 y="0px" viewBox="0 0 9000 581.024" style="enable-background:new 0 0 9000 581.024;" xml:space="preserve">
<path d="M8995.811,413.46c-122.206-76.005-295.502-107.287-516.49-93.943c31.714-12.936,62.991-31.206,92.951-54.483
	c56.409-43.807,101.897-99.956,138.961-149.102c1.976-2.6,2.357-6.067,1.005-9.032c-1.352-2.964-4.229-4.958-7.488-5.166
	c-43.616-2.86-88.688-5.807-133.275-1.699c-19.485,1.82-44.864,5.357-68.197,16.798c-43.513,21.271-70.07,63.812-95.657,109.248
	c-15.637,27.754-33.388,59.218-44.552,93.351c-0.971,2.964-0.313,6.241,1.733,8.598c0.665,0.748,1.566,1.129,2.405,1.616
	c-32.717,3.872-66.142,8.414-100.663,14.003c-49.961,8.078-100.06,17.162-150.229,26.281
	c-194.4,35.243-395.317,71.682-593.149,48.106c-19.201-2.299-37.937-5.664-56.683-8.999c29.542-9.361,58.416-20.66,86.346-33.993
	c0.301,0.29,0.366,0.761,0.708,1.006c2.427,1.716,5.79,2.063,8.529,1.196l100.901,11.428c3.675,12.495,14.77,21.797,28.456,21.797
	c16.646,0,30.142-13.493,30.142-30.14c0-16.646-13.496-30.142-30.142-30.142c-13.274,0-24.198,8.718-28.22,20.636l-83.537-9.454
	c52.673-28.094,101.685-62.971,145.163-104.03c3.885,1.825,8.108,3.01,12.683,3.01c16.646,0,30.14-13.493,30.14-30.14
	c0-16.646-13.494-30.142-30.14-30.142c-16.646,0-30.142,13.496-30.142,30.142c0,5.541,1.9,10.447,4.509,14.908
	c-30.972,29.165-64.841,55.088-100.836,77.645c10.869-25.999,20.768-52.557,28.755-79.557c0.294-0.98-0.247-1.848-0.289-2.813
	c15.958-0.776,28.734-13.708,28.734-29.856c0-16.648-13.494-30.142-30.14-30.142c-16.646,0-30.142,13.493-30.142,30.142
	c0,11.444,6.618,21.05,16.012,26.155c-0.312,0.563-0.973,0.806-1.164,1.452c-9.673,32.556-21.565,64.713-35.434,95.588
	c-0.512,1.157-0.087,2.321-0.093,3.513c-42.42,24.15-87.604,43.352-134.402,57.493c21.526-32.788,41.185-67.019,58.095-102.435
	c1.015,0.102,1.892,0.592,2.932,0.592c16.646,0,30.142-13.496,30.142-30.142s-13.496-30.14-30.142-30.14s-30.14,13.493-30.14,30.14
	c0,9.175,4.321,17.108,10.787,22.636c-18.809,39.315-40.571,77.478-65.105,113.352c-0.62,0.901-0.379,1.961-0.628,2.964
	c-153.321-33.015-292.458-97.05-427.039-162.622c19.585,1.894,39.224,3.084,58.908,3.084c131.819,0,263.637-41.848,370.563-119.095
	c2.565-1.855,3.952-4.906,3.64-8.044c-0.312-3.138-2.253-5.894-5.131-7.211c-73.468-33.925-161.809-39.126-248.729-14.666
	c-20.17,5.692-40.136,13.188-59.936,21.919c-0.216,0.032-0.353,0.238-0.567,0.286c-53.612,23.724-105.753,58.193-155.531,103.564
	c-0.54,0.49-0.471,1.246-0.86,1.822c-0.013-0.007-0.028-0.013-0.042-0.02c-58.546-28.658-117.892-57.361-178.544-84.101
	c-3.517-3.218-6.703-6.956-10.308-10.031c-1.595-1.352-3.502-2.046-5.443-2.115c-1.317-2.34-3.641-4.004-6.414-4.421
	c-2.878-0.511-5.97,0.912-7.97,3.292c-123.794-52.487-254.176-94.222-398.303-104.045
	c-236.906-16.157-470.623,58.802-671.021,130.345l-33.908,12.135c-38.112,13.645-76.573,27.256-115.254,40.578
	c-0.208,0.076-0.42,0.139-0.626,0.217c-118.748,40.879-240.585,77.425-367.507,95.867c22.896-6.999,45.399-15.413,66.644-27.379
	c23.125-13.036,43.997-29.539,59.564-42.454c73.641-61.09,136.915-133.084,188.124-213.954c1.769-2.774,1.838-6.31,0.208-9.153
	c-1.595-2.86-5.721-4.316-7.974-4.472c-1.586,0.052-3.172,0.29-4.761,0.351c-0.752-0.095-1.354,0.056-2.108,0.156
	c-25.479,1.016-51.116,2.735-76.341,5.63c-18.445,2.115-39.837,4.993-60.085,12.534c-17.717,6.587-35.607,17.058-56.306,32.955
	c-62.615,48.14-110.288,112.524-156.331,174.776c-20.263,27.347-41.222,55.525-63.121,81.979c-8.217,0.403-16.298,1.341-24.562,1.56
	c-106.197,2.845-221.599-16.926-317.484-55.473c53.101-9.738,101.229-31.611,143.009-59.539c1.116,0.509,2.031,1.391,3.339,1.395
	c1.213,0,2.427,0,3.641,0c45.304,0,90.887-3.838,135.615-11.203c5.484,7.493,13.914,12.681,23.91,12.681
	c16.646,0,30.142-13.496,30.142-30.142c0-16.646-13.496-30.14-30.142-30.14s-30.14,13.493-30.14,30.14
	c0,0.119,0.065,0.217,0.067,0.336c-37.232,5.935-75.143,8.77-112.609,9.736c34.119-25.821,63.446-54.292,87.377-81.104
	c4.357,2.449,9.123,4.219,14.477,4.219c16.646,0,30.14-13.496,30.14-30.142c0-16.646-13.493-30.14-30.14-30.14
	s-30.142,13.493-30.142,30.14c0,4.767,1.337,9.118,3.309,13.127c-42.368,47.675-102.405,101.421-175.946,132.612l48.611-101.551
	c0.598,0.035,1.101,0.344,1.708,0.344c16.646,0,30.142-13.496,30.142-30.142c0-16.646-13.496-30.14-30.142-30.14
	s-30.14,13.493-30.14,30.14c0,9.63,4.806,17.823,11.835,23.342l-54.65,114.167c-0.375,0.784,0.002,1.588-0.13,2.405
	c-22.961,7.901-46.834,13.998-72.055,16.369c-0.228,0.022-0.336,0.258-0.557,0.295c-90.044-41.865-158.253-101.575-176.16-176.354
	c-0.089-0.379-0.501-0.527-0.635-0.884c-0.763-3.131-2.585-5.905-5.935-6.709c-4.169-1.021-7.747,1.376-9.537,4.945
	c-0.035,0.054-0.072,0.091-0.104,0.147c-0.271,0.568-0.904,0.841-1.055,1.478c-17.908,74.772-86.14,134.465-176.202,176.323
	c-0.197-0.033-0.294-0.245-0.498-0.264c-25.234-2.368-49.12-8.466-72.092-16.367c-0.132-0.817,0.247-1.623-0.128-2.407
	l-54.633-114.165c7.03-5.519,11.836-13.712,11.836-23.342c0-16.646-13.494-30.14-30.14-30.14c-16.646,0-30.142,13.493-30.142,30.14
	c0,16.646,13.496,30.142,30.142,30.142c0.606,0,1.109-0.31,1.708-0.345l48.6,101.553c-73.543-31.186-133.569-84.931-175.935-132.614
	c1.972-4.007,3.309-8.36,3.309-13.127c0-16.646-13.496-30.14-30.142-30.14c-16.646,0-30.14,13.493-30.14,30.14
	s13.493,30.142,30.14,30.142c5.354,0,10.119-1.77,14.477-4.219c23.936,26.824,53.268,55.309,87.397,81.132
	c-37.846-0.871-75.433-3.803-112.631-9.756c0.002-0.121,0.07-0.223,0.07-0.344c0-16.646-13.494-30.14-30.14-30.14
	c-16.646,0-30.142,13.493-30.142,30.14c0,16.646,13.496,30.142,30.142,30.142c9.996,0,18.423-5.188,23.908-12.681
	c44.749,7.361,90.342,11.201,135.635,11.201c1.213,0,2.427,0,3.64,0c1.296-0.004,2.206-0.884,3.313-1.387
	c41.754,27.91,89.85,49.777,142.924,59.517c-95.889,38.528-211.271,58.297-317.408,55.486c-8.263-0.219-16.345-1.157-24.562-1.56
	c-21.849-26.419-42.788-54.583-63.016-81.91c-46.095-62.269-93.768-126.687-156.435-174.845
	c-20.664-15.879-38.537-26.35-56.271-32.937c-20.317-7.541-41.657-10.436-60.067-12.551c-25.262-2.897-50.932-4.62-76.421-5.634
	c-0.735-0.089-1.307-0.245-2.039-0.152c-1.588-0.061-3.179-0.299-4.767-0.351c-3.259-0.156-6.362,1.595-7.992,4.472
	c-1.647,2.843-1.56,6.38,0.191,9.153c51.192,80.852,114.483,152.847,188.142,213.954c15.515,12.88,36.318,29.366,59.599,42.455
	c21.227,11.968,43.716,20.38,66.592,27.377c-126.965-18.452-248.844-55.021-367.635-95.924c-0.074-0.026-0.147-0.048-0.221-0.076
	c-38.742-13.342-77.26-26.976-115.428-40.643l-33.995-12.152C3113.514,77.083,2879.936,2.211,2642.874,18.281
	c-144.118,9.823-274.487,51.558-398.277,104.043c-1.974-2.394-4.869-3.879-8.013-3.289c-2.739,0.416-5.079,2.08-6.397,4.421
	c-1.942,0.087-3.848,0.78-5.426,2.115c-3.606,3.075-6.793,6.815-10.31,10.033c-60.642,26.736-119.985,55.43-178.525,84.081
	c-0.022,0.011-0.043,0.022-0.065,0.033c-0.388-0.574-0.319-1.331-0.854-1.818c-49.716-45.313-101.792-79.747-155.367-103.467
	c-0.279-0.069-0.459-0.334-0.743-0.375c-19.801-8.726-39.774-16.217-59.959-21.91c-86.885-24.495-175.192-19.312-248.712,14.666
	c-2.86,1.317-4.802,4.074-5.114,7.212c-0.295,3.138,1.092,6.206,3.641,8.044c106.925,77.229,238.761,119.077,370.562,119.077
	c19.665,0,39.302-1.192,58.88-3.079c-134.564,65.565-273.69,129.589-427.011,162.6c-0.247-0.99-0.002-2.039-0.611-2.93
	c-24.564-35.887-46.314-74.064-65.134-113.361c6.47-5.528,10.798-13.463,10.798-22.642c0-16.646-13.494-30.14-30.14-30.14
	c-16.646,0-30.142,13.493-30.142,30.14c0,16.646,13.496,30.142,30.142,30.142c1.047,0,1.929-0.492,2.947-0.596
	c16.891,35.386,36.521,69.606,58.037,102.403c-46.788-14.137-91.958-33.323-134.367-57.461c-0.009-1.19,0.418-2.353-0.102-3.51
	c-13.868-30.996-25.778-63.153-35.399-95.588c-0.193-0.648-0.86-0.886-1.177-1.452c9.391-5.103,16.007-14.711,16.007-26.153
	c0-16.646-13.496-30.142-30.142-30.142c-16.646,0-30.14,13.496-30.14,30.142c0,16.144,12.774,29.074,28.723,29.854
	c-0.043,0.964-0.583,1.831-0.295,2.813c7.994,26.935,17.897,53.51,28.796,79.576c-36.004-22.556-69.881-48.479-100.873-77.645
	c2.615-4.466,4.522-9.376,4.522-14.926c0-16.646-13.496-30.142-30.142-30.142s-30.14,13.496-30.14,30.142
	c0,16.646,13.494,30.14,30.14,30.14c4.568,0,8.787-1.179,12.666-2.997c43.484,41.048,92.495,75.918,145.165,104.008l-83.522,9.459
	c-4.022-11.914-14.948-20.631-28.22-20.631c-16.646,0-30.142,13.496-30.142,30.142c0,16.646,13.496,30.14,30.142,30.14
	c13.689,0,24.783-9.303,28.456-21.801l100.901-11.426c2.86,0.919,6.119,0.503,8.529-1.196c0.344-0.245,0.41-0.717,0.711-1.008
	c27.927,13.327,56.789,24.625,86.324,33.98c-18.746,3.335-37.479,6.698-56.68,8.997c-197.624,23.611-398.733-12.794-593.132-48.089
	c-50.186-9.118-100.285-18.202-150.229-26.28c-34.528-5.591-67.961-10.135-100.686-14.007c0.845-0.481,1.755-0.867,2.412-1.612
	c2.063-2.358,2.739-5.634,1.768-8.598c-11.199-34.133-28.933-65.597-44.57-93.351c-25.552-45.401-52.076-87.925-95.622-109.231
	c-23.368-11.459-48.747-14.995-68.25-16.815c-44.604-4.091-89.676-1.127-133.257,1.699c-3.259,0.208-6.137,2.202-7.489,5.166
	c-1.369,2.964-0.988,6.432,0.971,9.032c37.029,49.111,82.517,105.226,138.996,149.102c29.966,23.277,61.237,41.544,92.942,54.481
	c-220.97-13.34-394.292,17.947-516.481,93.962c-4.161,2.566-5.443,8.044-2.86,12.204c2.6,4.195,8.13,5.513,12.221,2.843
	c81.104-50.409,186.187-80.172,313.189-90.209c-56.444,30.192-108.264,74.38-154.19,132.332c-2.199-0.511-4.284-1.341-6.639-1.341
	c-16.646,0-30.142,13.496-30.142,30.142c0,16.646,13.496,30.14,30.142,30.14c16.646,0,30.14-13.493,30.14-30.14
	c0-7.71-3.114-14.573-7.877-19.903c42.441-53.077,89.67-94.719,141.108-123.292c-13.654,35.913-24.328,72.963-32.846,110.39
	c-14.475,2.206-25.756,14.163-25.756,29.254c0,16.646,13.496,30.142,30.142,30.142c16.646,0,30.14-13.496,30.14-30.142
	c0-11.76-6.917-21.68-16.74-26.647c10.033-43.737,23.119-86.944,40.266-128.391c0.539-1.304,0.466-2.68,0.368-4.033
	c109.822-6.013,234.622,1.499,375.759,24.332c49.839,8.078,99.817,17.145,149.9,26.229c21.667,3.935,43.434,7.859,65.251,11.738
	c-44.728,8.187-88.495,20.928-130.57,38.587c-10.107,4.264-20.82,9.084-30.857,15.255c-23.42,14.319-41.986,35.295-57.536,53.844
	c-16.521,19.693-32.4,39.906-47.222,60.119c-2.098,2.843-2.288,6.692-0.485,9.743c1.612,2.739,4.525,4.369,7.645,4.369
	c0.381,0,0.763-0.035,1.144-0.069c43.148-5.582,87.059-7.281,130.518-4.923l6.83,0.381c16.018,0.971,32.608,2.011,49.163-0.485
	c18.965-2.808,37.999-10.159,56.566-21.877c49.345-31.171,80.909-85.544,84.042-143.065
	c108.986,18.068,219.356,32.326,329.737,32.326c44.76,0,89.538-2.358,134.194-7.697c209.551-25.067,390.151-113.478,564.789-198.976
	c45.115-22.081,90.632-44.314,136.868-65.584c-13.559,15.582-26.153,32.604-38.047,50.645c-0.876,0.618-1.807,1.177-2.678,1.799
	c-2.546,1.816-3.311,4.685-3.179,7.595c-15.907,25.284-30.723,52.115-43.367,81.821c-25.778,60.57-44.396,128.213-60.379,219.328
	c-0.572,3.224,0.693,6.518,3.276,8.529c1.578,1.248,3.519,1.872,5.461,1.872c1.214,0,2.444-0.243,3.606-0.763
	c45.8-20.352,81.719-42.715,109.82-68.336c21.184-19.346,40.877-43.096,60.206-72.67c30.493-46.615,48.747-90.352,55.785-133.708
	c1.237-7.597,1.304-15.013,1.812-22.501c0.524-1.341,1.315-2.594,1.118-4.126c-0.106-0.817-0.457-1.504-0.6-2.301
	c1.448-35.984-5.662-69.86-20.508-99.178c121.938-51.577,250.142-92.448,391.168-102.056c43.011-2.943,85.639-2.889,127.873-0.449
	c-27.24,11.831-53.542,27.773-78.774,47.781c-1.636-0.862-3.396-1.608-5.309-1.307c-38.929,6.02-77.804,12.451-116.624,19.112
	c-4.115-11.749-15-20.296-28.153-20.296c-16.646,0-30.142,13.493-30.142,30.14c0,16.646,13.496,30.142,30.142,30.142
	c13.773,0,24.905-9.426,28.504-22.042c32.747-5.643,65.556-10.945,98.383-16.135c-8.943,8.2-17.882,16.425-26.506,25.676
	c-42.576,45.711-74.837,97.503-98.899,139.325c-2.771-0.841-5.539-1.734-8.583-1.734c-16.646,0-30.14,13.496-30.14,30.142
	c0,16.646,13.493,30.14,30.14,30.14c16.646,0,30.142-13.493,30.142-30.14c0-7.04-2.789-13.227-6.834-18.358
	c27.47-47.69,52.513-84.569,78.4-115.586c-3.394,34.205,0.793,68.737,5.968,100.66c-11.272,4.362-19.331,15.145-19.331,27.958
	c0,16.646,13.493,30.142,30.14,30.142c16.646,0,30.142-13.496,30.142-30.142c0-14.15-9.957-25.474-23.104-28.718
	c-5.898-36.127-11.047-73.138-5.246-109.35c0.513-3.261-1.198-5.916-3.602-7.853c1.279-1.404,2.505-3.003,3.792-4.386
	c43.477-46.615,91.08-79.292,141.509-97.113c2.691-0.962,4.273-3.166,5.105-5.688c175.907,15.086,344.756,70.263,504.869,127.418
	l33.978,12.152c7.831,2.804,15.747,5.599,23.6,8.408c-19.713,1.283-39.104,4.553-57.578,8.373
	c-10.198,2.111-20.33,4.728-30.506,7.11c-0.604,0.102-1.077,0.165-1.649,0.386c-30.729,7.231-61.324,15.121-91.1,23.154
	c-38.623,10.436-78.564,21.219-118.262,29.592c-4.23,0.901-7.212,4.715-7.038,9.049c0.191,4.334,3.467,7.888,7.766,8.442
	c32.452,4.126,61.818,19.433,92.918,35.642c34.064,17.751,69.29,36.127,108.745,38.138c2.392,0.121,4.785,0.191,7.159,0.191
	c30.805,0,60.535-9.812,83.47-18.601c49.701-19.086,96.42-44.535,141.613-69.134l25.154-13.643c1.129-0.613,1.64-1.755,2.384-2.722
	c140.304,45.343,285.367,81.75,439.15,85.828c221.679,5.953,471.377-78.837,532.086-231.558
	c60.045,153.343,310.317,238.564,532.397,232.581c153.789-4.078,298.861-40.483,439.178-85.823c0.743,0.964,1.257,2.106,2.39,2.717
	l25.171,13.66c45.176,24.599,91.878,50.03,141.596,69.116c22.917,8.789,52.666,18.601,83.453,18.601c2.357,0,4.75-0.069,7.142-0.191
	c39.49-2.011,74.716-20.387,108.763-38.138c31.1-16.209,60.466-31.533,92.918-35.642c4.299-0.555,7.593-4.108,7.766-8.442
	c0.173-4.334-2.808-8.148-7.038-9.049c-39.698-8.373-79.674-19.156-118.297-29.592c-29.752-8.042-60.332-15.927-91.046-23.152
	c-0.583-0.227-1.06-0.286-1.677-0.39c-10.174-2.379-20.304-4.997-30.498-7.108c-18.445-3.816-37.845-7.084-57.541-8.369
	c7.875-2.815,15.814-5.617,23.667-8.429l33.874-12.135c160.125-57.161,328.832-112.29,504.895-127.381
	c0.832,2.509,2.414,4.694,5.114,5.651c50.481,17.855,98.049,50.515,141.457,97.113c1.333,1.43,2.444,2.977,3.758,4.421
	c-2.375,1.939-4.061,4.581-3.55,7.818c5.771,36.053,0.646,73.138-5.248,109.348c-13.145,3.244-23.102,14.57-23.102,28.718
	c0,16.646,13.496,30.142,30.142,30.142c16.646,0,30.14-13.496,30.14-30.142c0-12.804-8.048-23.587-19.31-27.953
	c5.298-32.818,9.335-66.399,6.013-100.182c32.478,39.057,58.497,80.452,78.376,115.04c-4.074,5.14-6.878,11.355-6.878,18.421
	c0,16.646,13.496,30.14,30.142,30.14c16.646,0,30.14-13.493,30.14-30.14c0-16.646-13.494-30.142-30.14-30.142
	c-3.045,0-5.812,0.893-8.583,1.734c-24.066-41.841-56.375-93.659-98.933-139.323c-8.616-9.251-17.548-17.479-26.486-25.68
	c32.824,5.188,65.643,10.484,98.398,16.139c3.597,12.618,14.731,22.038,28.504,22.038c16.646,0,30.142-13.493,30.142-30.14
	c0-16.646-13.496-30.142-30.142-30.142c-13.153,0-24.036,8.544-28.153,20.293c-38.836-6.672-77.671-13.086-116.607-19.106
	c-1.9-0.282-3.662,0.464-5.3,1.328c-25.193-19.986-51.48-35.921-78.72-47.766c42.194-2.436,84.798-2.505,127.81,0.412
	c141.016,9.608,269.211,50.472,391.14,102.047c-14.841,29.316-21.951,63.199-20.503,99.213c-0.141,0.789-0.49,1.467-0.594,2.275
	c-0.193,1.506,0.596,2.741,1.103,4.067c0.505,7.508,0.572,14.941,1.81,22.56c7.038,43.287,25.275,87.024,55.785,133.691
	c19.312,29.574,39.005,53.359,60.224,72.705c28.465,25.968,63.344,47.672,109.837,68.302c1.144,0.52,2.392,0.763,3.605,0.763
	c1.942,0,3.883-0.624,5.478-1.872c2.566-2.046,3.849-5.305,3.259-8.529c-16.018-91.184-34.671-158.81-60.397-219.311
	c-12.64-29.702-27.453-56.531-43.362-81.817c0.143-2.912-0.618-5.784-3.166-7.6c-0.882-0.628-1.82-1.192-2.704-1.816
	c-11.89-18.033-24.48-35.048-38.038-50.63c46.242,21.275,91.763,43.516,136.885,65.604
	c174.637,85.481,355.238,173.875,564.789,198.976c44.622,5.339,89.347,7.662,134.072,7.662c110.418,0,220.826-14.261,329.839-32.326
	c3.116,57.554,34.699,111.926,84.027,143.065c18.514,11.684,37.548,19.069,56.617,21.877c16.365,2.462,32.833,1.526,48.817,0.52
	l7.142-0.381c43.408-2.323,87.37-0.693,130.536,4.889c0.381,0.035,0.763,0.069,1.144,0.069c3.121,0,6.033-1.63,7.663-4.368
	c1.803-3.051,1.595-6.9-0.521-9.777c-15.151-20.56-31.03-40.773-47.222-60.05c-15.567-18.549-34.151-39.525-57.52-53.879
	c-10.297-6.31-21.392-11.233-30.892-15.22c-42.073-17.682-85.832-30.432-130.56-38.613c21.814-3.877,43.577-7.799,65.24-11.73
	c50.1-9.084,100.06-18.15,149.917-26.229c141.134-22.831,265.932-30.348,375.752-24.341c-0.103,1.352-0.176,2.732,0.357,4.041
	c17.21,41.527,30.298,84.731,40.294,128.382c-9.831,4.964-16.75,14.889-16.75,26.653c0,16.646,13.493,30.142,30.14,30.142
	s30.142-13.496,30.142-30.142c0-15.093-11.283-27.052-25.76-29.256c-8.501-37.388-19.18-74.423-32.859-110.403
	c51.467,28.586,98.723,70.241,141.121,123.314c-4.759,5.331-7.873,12.189-7.873,19.897c0,16.646,13.494,30.14,30.141,30.14
	c16.646,0,30.142-13.494,30.142-30.14c0-16.646-13.496-30.142-30.142-30.142c-2.36,0-4.447,0.83-6.65,1.344
	c-45.888-57.952-97.705-102.14-154.178-132.341c127.011,10.031,232.098,39.789,313.187,90.201c4.161,2.67,9.639,1.317,12.204-2.843
	C9001.254,421.504,8999.971,416.026,8995.811,413.46z M8498.604,244.117c2.498,3.419,6.095,4.362,7.653,4.761l43.028,11.114
	c-14.553,10.497-31.574,21.19-50.584,30.913c-0.059-0.013-0.083-0.082-0.142-0.093l-49.906-9.496
	C8465.036,268.549,8481.656,256.124,8498.604,244.117z M8430.634,295.384c2.28,1.025,4.485,1.523,5.728,1.755l34.563,6.525
	c-23.773,9.574-49.854,16.922-77.832,19.739c9.084-5.114,17.301-11.875,25.032-18.254
	C8422.202,301.779,8426.517,298.706,8430.634,295.384z M8566.39,246.795c-0.567-0.29-0.825-0.941-1.469-1.107l-50.011-12.908
	c20.527-14.102,41.417-27.624,62.681-40.587c11.42,5.27,23.446,9.192,35.739,12.016
	C8598.591,219.16,8582.986,233.518,8566.39,246.795z M8625.794,191.293c-1.25-1.621-2.896-2.993-5.053-3.437
	c-8.267-1.721-16.266-4.427-24.161-7.37c24.14-14.18,48.604-27.802,73.567-40.476
	C8656.441,157.117,8641.569,174.417,8625.794,191.293z M8598.98,158.523c5.479-14.785,11.864-29.197,19.967-42.76
	c0.032,0,0.063-0.004,0.095-0.004c18.723,0,37.514,0.815,56.098,1.907C8649.314,130.433,8623.97,144.158,8598.98,158.523z
	 M8573.104,117.717c8.47-0.782,17.034-0.784,25.567-1.09c-9.678,17.803-17.436,36.515-22.993,56.056
	c-19.206,11.55-38.184,23.455-56.828,35.934c5.569-29.323,12.636-53.668,23.674-81.869c0.583-1.476,0.128-2.927-0.078-4.392
	C8551.562,120.372,8561.517,118.794,8573.104,117.717z M8511.077,132.782c3.89-1.907,7.975-3.604,12.27-5.146
	c-11.823,31.347-19.128,59.257-24.884,95.044c-18.499,12.865-36.679,26.17-54.559,39.941c4.688-26.673,9.647-53.463,15.756-79.895
	c0.349-1.495-0.313-2.815-0.698-4.197C8473.736,159.223,8490.353,142.912,8511.077,132.782z M8423.082,234.784
	c4.067-7.218,8.263-14.139,12.434-21.112c-4.514,21.784-9.326,43.579-12.85,65.283c-0.009,0.05-0.013,0.165-0.021,0.219
	c-5.356,4.293-10.943,8.269-16.239,12.644c-6.414,5.27-12.897,10.627-19.728,14.77
	C8397.079,280.931,8410.739,256.678,8423.082,234.784z M5164.229,257.69c3.125,1.816,6.357,2.412,8.215,2.577
	c12.908,1.296,26.207,1.723,39.405,2.42c-34.387,16.631-71.758,26.415-109.356,34.112
	C5123.526,283.865,5144.07,270.817,5164.229,257.69z M5239.288,247.389c-0.748-0.227-1.259-0.901-2.078-0.921
	c-16.774-0.397-33.802-1.664-51.06-3.136c23.813-15.84,47.046-31.843,69.691-48.028c1.363,0.633,2.656,1.012,3.419,1.203
	l35.191,8.835c-3.654,3.133-7.042,6.533-10.748,9.61C5271.703,224.878,5256.055,236.634,5239.288,247.389z M5310.441,191.044
	l-36.233-9.099c27.693-20.194,54.604-40.678,80.66-61.517l21.327,5.654C5355.554,148.938,5333.389,170.387,5310.441,191.044z
	 M5388.979,111.097l-17.043-4.512c21.284-17.379,42.206-34.931,62.473-52.834C5420.003,73.484,5404.915,92.646,5388.979,111.097z
	 M5394.165,24.817c16.62-1.913,33.475-3.058,50.292-4.148c-26.216,23.838-53.261,47.207-81.232,70.115
	c0.234-2.26,0.724-4.553,0.915-6.785l0.312-3.744c1.595-17.734,4.819-35.347,9.639-52.405c0.015-0.056-0.035-0.104-0.02-0.16
	C5380.914,26.613,5387.826,25.543,5394.165,24.817z M5338.24,36.345c5.435-2.022,11.112-3.092,16.729-4.477
	c-3.857,15.353-6.802,31-8.2,46.793l-0.347,3.848c-0.729,8.72-1.422,16.954-4.403,24.062c-0.188,0.442,0.149,0.917,0.039,1.376
	c-24.025,19.173-48.791,38.045-74.217,56.67c1.785-31.854,6.349-63.521,15.064-94.277c0.035-0.121-0.069-0.225-0.039-0.347
	c1.293-1.021,2.407-2.254,3.714-3.259C5305.823,51.964,5322.222,42.291,5338.24,36.345z M5260.742,89.409
	c-6.592,29.191-10.904,58.826-11.6,88.805c-23.117,16.59-46.797,33.002-71.149,49.228c4.39-22.356,10.159-44.476,18.131-65.779
	c0.537-1.454,0.054-2.865-0.156-4.299C5216.017,133.094,5237.552,110.324,5260.742,89.409z M5133.682,237.991
	c11.173-15.095,22.452-30.313,33.997-45.38c-4.188,15.264-7.736,30.712-10.248,46.351c-0.078,0.488-0.163,1.346-0.249,2.111
	c-16.321,10.657-32.944,21.251-49.844,31.78C5116.147,261.188,5125.155,249.527,5133.682,237.991z M3835.78,256.663
	c20.161,13.129,40.706,26.177,61.742,39.117c-37.581-7.686-74.941-17.478-109.348-34.11c13.171-0.689,26.333-1.103,39.455-2.41
	C3829.604,259.053,3832.735,258.44,3835.78,256.663z M3892.668,271.829c-16.902-10.529-33.522-21.121-49.846-31.778
	c-0.093-0.8-0.186-1.679-0.266-2.182c-2.505-15.608-6.054-31.054-10.254-46.327c11.576,15.108,22.883,30.372,34.09,45.512
	C3874.902,248.559,3883.884,260.193,3892.668,271.829z M3804.017,156.308c-0.225,1.454-0.706,2.889-0.154,4.366
	c7.985,21.283,13.756,43.395,18.144,65.742c-24.348-16.224-48.026-32.632-71.136-49.213c-0.709-29.973-5.021-59.621-11.595-88.801
	C3762.455,109.301,3783.979,132.056,3804.017,156.308z M3713.407,65.711c1.307,1.006,2.423,2.238,3.716,3.259
	c0.028,0.121-0.076,0.225-0.041,0.347c8.672,30.601,13.251,62.228,15.058,94.266c-25.423-18.62-50.184-37.479-74.196-56.644
	c-0.111-0.459,0.225-0.93,0.041-1.374c-2.964-7.09-3.658-15.29-4.386-23.958l-0.347-3.952c-1.426-15.801-4.358-31.449-8.189-46.795
	c5.612,1.387,11.279,2.457,16.718,4.479C3677.782,41.285,3694.199,50.941,3713.407,65.711z M3565.577,52.701
	c20.274,17.91,41.206,35.471,62.503,52.86l-17.058,4.518C3595.075,91.617,3579.98,72.444,3565.577,52.701z M3625.934,26.669
	c0.015,0.056-0.035,0.102-0.02,0.158c4.819,17.058,8.061,34.688,9.656,52.422l0.329,3.848c0.189,2.204,0.667,4.462,0.895,6.692
	c-27.988-22.922-55.047-46.301-81.269-70.148c16.824,1.088,33.685,2.238,50.331,4.152
	C3612.185,24.52,3619.093,25.59,3625.934,26.669z M3623.806,125.061l21.348-5.651c26.053,20.837,52.964,41.321,80.664,61.519
	l-36.238,9.088C3666.616,169.357,3644.446,147.918,3623.806,125.061z M3705.578,204.314l35.115-8.83
	c0.782-0.189,2.106-0.579,3.48-1.207c22.664,16.196,45.917,32.212,69.753,48.069c-17.034,1.445-34.164,2.715-51.131,3.099
	c-0.819,0.02-1.331,0.693-2.08,0.921c-16.824-10.783-32.456-22.532-44.379-32.437
	C3712.627,210.85,3709.235,207.448,3705.578,204.314z M450.716,258.969l42.996-11.114c1.543-0.381,5.166-1.318,7.61-4.629
	c0.035-0.046,0.02-0.091,0.054-0.137c16.965,12.022,33.618,24.469,50.043,37.267l-49.976,9.433
	c-0.061,0.011-0.085,0.082-0.145,0.095C482.288,280.159,465.269,269.465,450.716,258.969z M563.626,296.116
	c1.246-0.234,3.45-0.728,5.736-1.753c4.243,3.422,8.679,6.583,12.882,10.057c7.489,6.189,15.567,12.863,24.651,17.96
	c-27.979-2.817-54.056-10.165-77.83-19.741L563.626,296.116z M613.327,305.564c-6.9-4.195-13.522-9.656-20.144-15.134
	c-5.144-4.249-10.59-8.12-15.795-12.295c-0.007-0.046-0.009-0.126-0.015-0.169c-3.569-21.836-8.362-43.553-12.872-65.309
	c4.167,6.971,8.358,13.888,12.421,21.104C589.248,255.655,602.926,279.908,613.327,305.564z M541.021,177.449
	c-0.401,1.402-1.064,2.748-0.711,4.271c6.152,26.547,11.316,53.521,16.321,80.257c-18.033-13.905-36.385-27.347-55.079-40.348
	c-5.773-35.802-13.054-63.701-24.855-94.998c4.29,1.543,8.375,3.24,12.265,5.146C509.668,141.913,526.268,158.187,541.021,177.449z
	 M457.568,121.338c-0.208,1.465-0.663,2.914-0.087,4.388c11.03,28.09,18.064,52.396,23.646,81.819
	c-18.633-12.469-37.611-24.372-56.826-35.923c-5.528-19.466-13.257-38.123-22.918-55.894c8.507,0.305,17.06,0.186,25.501,0.966
	C438.482,117.771,448.443,119.351,457.568,121.338z M381.147,114.959c8.07,13.509,14.427,27.83,19.873,42.517
	c-24.976-14.356-50.314-28.079-76.137-40.851C343.535,115.555,362.351,114.954,381.147,114.959z M403.419,179.451
	c-7.896,2.951-15.905,5.664-24.155,7.383c-2.163,0.444-3.812,1.814-5.06,3.435c-15.79-16.887-30.671-34.194-44.363-51.298
	C354.803,151.643,379.27,165.262,403.419,179.451z M386.677,203.185c12.267-2.821,24.306-6.735,35.748-12.013
	c21.245,12.954,42.127,26.478,62.657,40.584l-49.998,12.908c-0.641,0.167-0.899,0.817-1.467,1.105
	C417.018,232.484,401.416,218.131,386.677,203.185z M909.91,458.797l-63.227-15.086c16.159-5.983,32.482-11.415,49.053-16.007
	c1.283,1.998,3.257,3.523,5.775,3.994c14.384,2.628,29.022,4.533,43.62,6.431C933.69,445.504,921.924,452.382,909.91,458.797z
	 M966.461,423.025c-10.778-1.148-21.485-3.023-32.259-4.598c16.729-3.491,33.559-6.52,50.572-8.607
	C978.892,414.5,972.563,418.615,966.461,423.025z M793.616,467.061c8.041-4.93,16.822-8.804,25.297-12.449
	c0.572,0.277,0.843,0.923,1.487,1.077l64.102,15.305c-17.19,7.955-34.719,15.025-52.646,20.909
	c-21.11-2.769-42.381-4.299-63.792-4.605C775.959,479.801,784.371,472.728,793.616,467.061z M711.706,552.802
	c9.274-11.961,18.861-23.888,28.69-35.572c3.619-4.312,7.411-8.763,11.379-13.214c0.518,0.106,0.878,0.574,1.415,0.594
	c12.429-0.258,24.885,0.115,37.323,0.845c-3.12,1.129-6.26,2.158-9.327,3.489c-17.561,7.628-33.093,18.618-48.123,29.227
	C726.007,543.164,718.952,548.156,711.706,552.802z M736.409,557.552c2.306-1.63,4.611-3.259,6.899-4.854
	c14.961-10.575,29.071-20.56,44.951-27.459c9.378-4.091,19.19-6.969,29.574-10.02l8.945-2.67c2.035-0.618,3.991-1.504,6.02-2.147
	c-4.789,16.064-11.075,31.694-18.629,46.734c-11.318-0.52-22.649-0.901-33.988-0.901
	C765.584,556.235,750.97,556.685,736.409,557.552z M833.164,557.988c8.143-17.264,15.021-35.111,19.739-53.517
	c0.102-0.399-0.238-0.761-0.193-1.166c16.122-5.877,31.934-12.531,47.425-20.035c-6.913,25.405-15.957,50.225-27.472,73.877
	c-0.286,0.046-0.579,0.189-0.865,0.232C859.25,559.18,846.435,558.729,833.164,557.988z M921.482,538.032
	c-8.993,5.686-18.064,9.948-27.141,13.275c11.32-25.355,20.709-51.584,27.026-78.66c12.876-6.988,25.522-14.384,37.744-22.441
	c-1.109,23.195-3.53,46.409-12.735,67.37c-0.069,0.158,0.05,0.319-0.009,0.479C938.683,525.456,930.49,532.342,921.482,538.032z
	 M973.787,483.183c2.325-15.702,3.168-31.349,3.667-46.21c6.195-4.49,12.631-8.665,18.605-13.424
	C992.839,444.538,984.821,464.758,973.787,483.183z M1927.36,178.565c-7.188-10.681-14.726-21.125-22.114-31.672
	c24.423,13.114,48.433,28.874,72.07,46.795C1960.772,188.264,1944.147,183.198,1927.36,178.565z M1859.054,217.639
	c-22.842-3.014-45.56-6.878-67.933-12.397l34.164-33.373c26.749,5.736,53.408,12.141,79.953,19.078l-42.684,22.48
	C1860.807,214.349,1859.849,215.985,1859.054,217.639z M1659.816,98.804c12.516,7.797,23.797,17.528,34.346,28.003
	c-26.582-5.491-52.977-11.522-79.379-17.934c14.581-4.488,29.652-7.743,45.018-10.091
	C1659.809,98.787,1659.807,98.8,1659.816,98.804z M1708.223,147.803l-21.294,19.771c-0.459,0.427-0.375,1.09-0.724,1.582
	c-28.138-12.572-55.09-27.607-80.993-44.305C1639.479,133.3,1673.892,140.847,1708.223,147.803z M1729.105,152.631
	c0.147-0.137,0.115-0.362,0.251-0.507c5.543,1.107,11.212,2.321,16.72,3.419c19.342,3.853,38.86,7.799,58.386,11.851l-31.932,31.193
	c-0.303,0.295-0.21,0.756-0.462,1.081c-23.219-6.516-46.026-14.315-68.328-23.472L1729.105,152.631z M1872.313,130.741
	c9.593,13.266,18.98,26.905,28.38,40.565c-23.301-5.924-46.656-11.398-70.05-16.427c-0.423-0.496-0.373-1.276-0.906-1.675
	c-5.686-4.265-10.211-10.384-14.995-16.867l-1.994-2.687c-8.273-11.084-17.442-21.411-27.043-31.299
	c9.472,1.937,18.95,4.219,28.413,6.891C1833.703,114.762,1853.073,122.231,1872.313,130.741z M1754.885,97.366
	c16.07,13.996,30.803,29.698,43.649,46.892l1.924,2.618c0.477,0.646,1.053,1.259,1.534,1.907
	c-17.533-3.608-35.076-7.186-52.448-10.644c-8.737-1.742-17.686-3.649-26.504-5.422c-11.049-13.834-23.873-26.038-37.988-36.801
	C1707.902,94.191,1731.259,94.512,1754.885,97.366z M1886.897,220.677l37.406-19.697c1.001-0.518,2.778-1.822,4.455-3.638
	c23.81,6.704,47.302,14.228,70.456,22.655C1961.875,223.758,1924.281,223.897,1886.897,220.677z M2131.92,375.645l-56.26,43.573
	c7.523-27.799,15.866-53.378,25.089-77.392c1.959,0.15,3.996-0.033,5.732-1.244c23.713-16.382,42.487-30.79,62.334-45.989
	C2156.998,322.035,2144.71,349.104,2131.92,375.645z M2182.117,262.174c-8.187,6.191-16.23,12.297-23.665,17.994
	c-15.225,11.682-30.432,23.093-47.042,35.022c12.733-29.384,27.264-56.34,43.28-81.13c16.126-11.333,33.065-21.726,50.058-31.99
	C2197.639,222.313,2190.156,242.331,2182.117,262.174z M2221.744,152.111c-2.364,7.883-5.409,15.543-7.953,23.375
	c-9.885,5.638-19.699,11.42-29.368,17.45C2196.252,178.367,2208.565,164.545,2221.744,152.111z M2068.579,446.605
	c0.319-0.188,0.713-0.045,1.012-0.277l44.42-34.385c-7.134,14.308-14.226,28.775-21.398,42.775
	c-11.285,22.051-22.12,41.64-37.705,55.057C2059.202,487.181,2063.792,466.459,2068.579,446.605z M2087.082,499.929
	c7.766-11.164,14.492-23.75,21.34-37.098c10.781-21.05,21.526-42.608,32.157-64.343c4.388,15.136,8.185,30.471,10.592,46.106
	c-0.832,1.387-1.335,2.947-1.387,4.507c-0.026,0.969,0.514,1.955,0.858,2.951c-2.498,2.462-4.96,5.06-7.498,7.381
	C2127.058,474.099,2108.717,487.378,2087.082,499.929z M2167.111,434.499c-3.519-20.224-8.299-40.275-15.004-59.662
	c-0.024-0.072-0.128-0.078-0.154-0.147c13.086-27.423,25.585-55.387,37.581-83.776c2.236,9.381,4.895,18.627,7.749,27.635
	c5.981,18.93,11.632,36.82,11.06,55.196c-0.021,0.767,0.592,1.272,0.754,1.987c-2.912,4.817-5.43,9.543-8.624,14.43
	C2189.524,406.894,2178.451,421.439,2167.111,434.499z M2223.837,349.546c-2.282-12.43-5.898-24.536-9.634-36.355
	c-5.357-16.937-10.401-32.955-11.095-49.441c-0.052-1.248-0.585-2.351-1.118-3.437c8.596-21.593,16.469-43.445,23.945-65.528
	c3.131,4.024,6.31,8.033,9.573,11.81c9.333,10.822,17.942,21.132,20.317,33.093c-0.431,7.818-0.943,15.663-2.236,23.628
	C2249.002,291.477,2238.932,320.011,2223.837,349.546z M2248.943,194.999c-5.981-6.934-11.65-13.504-15.81-20.612
	c-0.067-0.115-0.219-0.113-0.29-0.223c2.448-7.701,5.415-15.216,7.693-22.972c7.138,15.572,11.76,32.653,14.109,50.574
	C2252.753,199.497,2250.861,197.22,2248.943,194.999z M3311.554,211.641c17.299-3.571,35.417-6.613,53.625-7.911
	c14.406,8.28,30.478,18.625,46.071,28.714c5.862,3.783,11.469,7.305,17.192,10.95c-18.211,2.548-36.337,4.897-54.273,7.201
	c-0.054-0.024-0.084-0.08-0.139-0.104c-22.917-9.604-43.564-21.479-65.424-34.047c-1.697-0.977-3.439-1.937-5.14-2.915
	C3306.165,212.947,3308.856,212.2,3311.554,211.641z M3259.935,260.815c-0.082-0.061-0.078-0.178-0.162-0.236
	c-12.289-8.432-23.834-17.938-34.901-27.925c17.619-4.663,35.271-8.958,53.094-13.177c7.34,4.087,14.597,8.219,21.782,12.36
	c13.429,7.71,27.327,15.409,41.607,22.694C3314.336,257.798,3287.091,260.427,3259.935,260.815z M3189.322,242.064
	c4.975-1.344,10.115-2.657,15.132-4.007c8.239,7.944,17.323,15.002,26.328,22.133c-12.338-0.516-24.733-0.88-36.831-1.692
	c-18.514-1.248-37.375-2.514-56.34-2.67C3155.032,251.322,3172.298,246.658,3189.322,242.064z M3131.56,273.563
	c20.525,0.139,41.033,1.283,61.194,2.652c15.134,1.016,30.733,1.677,46.255,2.113l-20.397,37.681
	c-16.766-6.618-33.312-15.227-50.336-24.105C3156.246,285.628,3144.042,279.266,3131.56,273.563z M3269.723,328.066
	c-11.66-0.596-22.868-3.183-33.947-6.481l23.19-42.845c28.9-0.29,57.571-3.051,85.774-6.503
	c-8.018,8.863-15.242,17.749-21.312,27.329l-15.816,24.909C3295.293,327.013,3282.61,328.651,3269.723,328.066z M3353.09,310.799
	c-6.468,2.477-13.29,4.908-20.33,7.172l5.647-8.906c8.993-14.143,20.12-26.827,34.786-40.437
	c20.166-2.587,40.797-5.619,61.328-8.523c-4.984,6.763-10.21,13.617-15.677,19.749c-0.479,0.537-0.334,1.278-0.659,1.887
	C3396.901,292.281,3375.292,302.273,3353.09,310.799z M3454.342,263.023c1.489-2.082,3.183-4.362,4.557-6.304
	c3.491-0.535,6.917-0.888,10.408-1.445C3464.398,257.922,3459.289,260.395,3454.342,263.023z M3493.351,233.223
	c-12.64,2.26-25.357,4.069-38.06,6.007c-10.926-6.609-22.525-14.018-34.402-21.695c-6.943-4.488-13.975-8.999-20.946-13.416
	c15,1.571,29.678,4.819,44.039,9.411c1.933,0.672,3.872,1.333,5.807,2.002C3464.563,220.594,3479.083,226.658,3493.351,233.223z
	 M5552.203,215.881c0.981-0.34,1.963-0.674,2.945-1.014c14.679-4.743,29.708-8.106,44.896-9.712
	c-6.824,4.325-13.704,8.737-20.495,13.125c-12.048,7.782-23.782,15.29-34.832,21.971c-12.696-1.939-25.411-3.744-38.047-6.005
	C5521.318,227.518,5536.58,221.11,5552.203,215.881z M5541.111,257.744c1.374,1.944,3.066,4.217,4.555,6.301
	c-4.947-2.629-10.061-5.101-14.967-7.749C5534.191,256.854,5537.618,257.209,5541.111,257.744z M5581.84,282.777
	c-0.327-0.613-0.178-1.357-0.661-1.898c-5.48-6.132-10.707-12.986-15.693-19.749c20.536,2.904,41.174,5.929,61.329,8.523
	c14.592,13.517,25.713,26.187,34.766,40.454l5.63,8.858c-7.025-2.256-13.83-4.676-20.261-7.142
	C5624.737,303.298,5603.122,293.31,5581.84,282.777z M5722.042,220.501c17.821,4.221,35.464,8.514,53.079,13.173
	c-11.092,10.016-22.642,19.531-34.872,27.927c-0.054,0.037-0.05,0.113-0.104,0.152c-27.412-0.704-54.497-3.168-81.316-6.293
	c14.213-7.257,28.051-14.924,41.41-22.601C5707.446,228.714,5714.714,224.582,5722.042,220.501z M5730.264,329.088
	c-12.759,0.596-25.492-1.051-37.899-3.617l-15.806-24.883c-6.161-9.712-13.442-18.677-21.529-27.591
	c28.329,3.448,57.025,6.284,85.956,6.635l23.256,42.964C5753.153,325.899,5741.935,328.492,5730.264,329.088z M5831.711,292.927
	c-17.001,8.867-33.542,17.476-50.305,24.096l-20.38-37.676c15.48-0.442,31.048-1.094,46.138-2.108
	c20.178-1.37,40.773-2.722,61.298-2.652C5855.946,280.289,5843.776,286.651,5831.711,292.927z M5862.395,256.852
	c-19,0.156-37.896,1.422-56.444,2.67c-12.044,0.813-24.404,1.177-36.706,1.69c8.978-7.123,18.026-14.172,26.295-22.135
	c5.001,1.346,10.128,2.654,15.091,3.994C5827.689,247.681,5844.955,252.344,5862.395,256.852z M5696.54,214.551
	c-1.699,0.977-3.45,1.939-5.142,2.915c-21.843,12.568-42.506,24.443-65.424,34.047c-0.052,0.022-0.08,0.078-0.132,0.102
	c-17.944-2.303-36.071-4.655-54.277-7.201c5.859-3.734,11.6-7.342,17.624-11.225c15.433-9.983,31.347-20.239,45.612-28.463
	c18.191,1.3,36.374,4.36,53.651,7.937C5691.149,213.223,5693.84,213.97,5696.54,214.551z M6888.536,316.16
	c-16.72-12.005-32.017-23.477-47.313-35.23c-7.337-5.617-15.268-11.647-23.327-17.749c-8.139-20.088-15.706-40.359-22.894-60.86
	c17.091,10.295,33.899,21.071,50.156,32.502C6861.23,259.671,6875.786,286.71,6888.536,316.16z M6831.218,295.642
	c19.811,15.181,38.619,29.579,62.289,45.963c1.768,1.211,3.788,1.385,5.729,1.246c9.229,23.995,17.583,49.562,25.115,77.364
	l-56.258-43.568C6855.315,350.121,6843.028,323.069,6831.218,295.642z M6759.469,152.215c2.277,7.753,5.244,15.264,7.69,22.961
	c-0.076,0.115-0.234,0.115-0.306,0.234c-4.16,7.107-9.812,13.678-15.81,20.612c-1.912,2.217-3.794,4.488-5.68,6.752
	C6747.714,184.855,6752.333,167.776,6759.469,152.215z M6744.186,240.684c2.386-11.951,11.001-22.252,20.311-33.065
	c3.268-3.781,6.44-7.79,9.571-11.821c7.482,22.096,15.355,43.956,23.956,65.561c-0.524,1.073-1.058,2.16-1.11,3.398
	c-0.693,16.486-5.755,32.469-11.094,49.406c-3.74,11.838-7.359,23.968-9.639,36.417c-15.11-29.572-25.18-58.108-29.748-86.239
	C6745.133,256.366,6744.617,248.513,6744.186,240.684z M6799.514,391.167c-3.183-4.876-5.692-9.589-8.596-14.395
	c0.165-0.72,0.782-1.231,0.761-2.004c-0.59-18.393,5.062-36.301,11.06-55.248c2.841-9.001,5.5-18.224,7.732-27.583
	c11.996,28.391,24.495,56.353,37.583,83.773c-0.024,0.063-0.117,0.069-0.139,0.132c-6.678,19.266-11.457,39.319-15.017,59.705
	C6821.55,422.472,6810.47,407.908,6799.514,391.167z M6856.86,460.474c-2.535-2.316-4.995-4.91-7.489-7.368
	c0.34-0.977,0.886-1.937,0.867-2.895c-0.035-1.595-0.555-3.19-1.422-4.611c2.423-15.606,6.228-30.968,10.609-46.097
	c10.638,21.743,21.388,43.31,32.175,64.369c5.998,11.649,12.724,24.79,21.322,37.063
	C6891.288,488.418,6872.947,475.139,6856.86,460.474z M6907.41,455.758c-7.17-14.003-14.265-28.471-21.396-42.779l44.383,34.354
	c0.308,0.245,0.72,0.093,1.049,0.29c4.789,19.845,9.385,40.561,13.687,63.157C6929.564,497.398,6918.712,477.809,6907.41,455.758z
	 M6786.216,176.508c-2.544-7.831-5.588-15.489-7.955-23.375c13.179,12.429,25.492,26.248,37.319,40.812
	C6805.9,187.911,6796.086,182.134,6786.216,176.508z M7270.655,153.142c0.134,0.141,0.1,0.36,0.245,0.494l25.364,23.552
	c-22.3,9.153-45.104,16.945-68.321,23.459c-0.247-0.318-0.154-0.765-0.451-1.055l-31.934-31.18
	c19.518-4.05,39.024-7.996,58.353-11.847C7259.43,155.467,7265.101,154.252,7270.655,153.142z M7340.181,99.814
	c15.374,2.349,30.45,5.606,45.04,10.087c-26.402,6.41-52.797,12.44-79.383,17.931c10.562-10.488,21.845-20.226,34.335-28.006
	C7340.176,99.825,7340.176,99.816,7340.181,99.814z M7394.729,125.887c-25.884,16.685-52.821,31.711-80.943,44.27
	c-0.349-0.492-0.264-1.153-0.726-1.577l-21.264-19.758C7326.111,141.872,7360.496,134.329,7394.729,125.887z M7174.718,172.889
	l34.133,33.343c-22.374,5.517-45.089,9.381-67.927,12.395c-0.8-1.636-1.74-3.263-3.474-4.178l-42.688-22.482
	C7121.31,185.033,7147.97,178.625,7174.718,172.889z M7022.687,194.71c23.641-17.918,47.644-33.678,72.055-46.79
	c-7.387,10.546-14.915,20.976-22.135,31.676C7055.832,184.227,7039.218,189.291,7022.687,194.71z M7000.796,221.017
	c23.151-8.425,46.647-15.953,70.458-22.658c1.738,1.877,3.573,3.201,4.414,3.608l37.412,19.699
	C7075.698,224.891,7038.113,224.759,7000.796,221.017z M7314.942,96.947c-14.111,10.752-26.937,22.956-38.001,36.794
	c-8.815,1.77-17.762,3.679-26.497,5.419c-17.368,3.458-34.905,7.036-52.434,10.642c0.449-0.605,0.986-1.181,1.433-1.783l2.011-2.739
	c12.817-17.149,27.555-32.857,43.709-46.903C7268.776,95.537,7292.114,95.22,7314.942,96.947z M7185.852,110.246
	c9.483-2.676,18.978-4.96,28.467-6.897c-9.632,9.912-18.82,20.248-27.08,31.323l-2.081,2.826
	c-4.75,6.431-9.222,12.499-14.874,16.729c-0.533,0.399-0.479,1.17-0.904,1.666c-23.416,5.036-46.797,10.514-70.118,16.447
	c9.37-13.6,18.742-27.201,28.413-40.58C7146.914,123.243,7166.28,115.769,7185.852,110.246z M8054.841,439.14
	c14.625-1.898,29.292-3.805,43.653-6.438c2.514-0.47,4.483-1.991,5.766-3.983c16.573,4.596,32.905,10.035,49.072,16.024
	l-63.264,15.073C8078.053,453.401,8066.284,446.521,8054.841,439.14z M8033.52,424.035c-6.087-4.401-12.403-8.505-18.271-13.175
	c16.991,2.074,33.804,5.097,50.518,8.579C8054.997,421.014,8044.303,422.89,8033.52,424.035z M8022.569,438
	c0.489,14.887,1.334,30.547,3.658,46.26c-11.047-18.441-19.065-38.686-22.281-59.706
	C8009.927,429.322,8016.367,433.504,8022.569,438z M8053.638,519.1c-0.059-0.162,0.061-0.323-0.009-0.483
	c-9.186-20.95-11.608-44.177-12.718-67.37c12.219,8.059,24.863,15.448,37.735,22.439c6.299,27.028,15.676,53.241,26.989,78.621
	c-9.084-3.328-18.146-7.584-27.113-13.233C8069.513,533.382,8061.322,526.498,8053.638,519.1z M8128.241,558.384
	c-0.301-0.045-0.6-0.195-0.901-0.243c-11.559-23.659-20.573-48.455-27.464-73.834c15.489,7.504,31.297,14.156,47.421,20.033
	c0.048,0.405-0.297,0.771-0.195,1.17c4.787,18.506,11.66,36.333,19.765,53.504C8153.59,559.771,8140.759,560.198,8128.241,558.384z
	 M8185.864,558.181c-7.539-14.915-13.83-30.56-18.64-46.736c2.028,0.644,3.985,1.528,6.02,2.145l8.286,2.462
	c10.609,3.12,20.629,6.067,30.233,10.228c15.844,6.865,29.955,16.85,44.933,27.425c2.254,1.63,4.542,3.224,6.865,4.854
	C8237.58,557,8211.668,556.971,8185.864,558.181z M8288.352,553.877c-7.281-4.646-14.354-9.673-21.427-14.666
	c-15.013-10.609-30.545-21.6-48.089-29.228c-3.22-1.389-6.524-2.147-9.799-3.326c10.423-0.611,20.851-1.077,31.226-1.077
	c2.219,0,4.646,0,6.657,0.035c0.513,0,0.832-0.459,1.321-0.544c3.961,4.444,7.749,8.889,11.368,13.199
	C8269.317,529.815,8278.955,541.742,8288.352,553.877z M8231.898,488.293c-21.262,0.267-42.572,1.833-63.81,4.639
	c-17.92-5.885-35.44-12.956-52.626-20.915l64.126-15.288c0.704-0.169,1.005-0.858,1.623-1.172c8.108,3.48,16.999,7.517,25.178,12.51
	C8215.611,473.731,8224.009,480.799,8231.898,488.293z"/>
</svg>
