<?xml version="1.0" encoding="UTF-8"?>
<svg xmlns="http://www.w3.org/2000/svg" xmlns:xlink="http://www.w3.org/1999/xlink" width="50px" height="50px" viewBox="0 0 50 50" version="1.1">
<g id="surface1">
<path style=" stroke:none;fill-rule:evenodd;fill:rgb(100%,97.647059%,97.647059%);fill-opacity:1;" d="M 29.929688 1.054688 C 29.609375 1.210938 28.839844 1.71875 28.222656 2.1875 C 26.511719 3.476562 25.578125 3.859375 24.585938 3.671875 C 24.40625 3.640625 23.628906 3.21875 22.859375 2.738281 C 21.167969 1.675781 20.617188 1.453125 19.566406 1.390625 C 18.457031 1.324219 17.925781 1.515625 17.199219 2.230469 C 15.746094 3.667969 15.292969 6.050781 15.917969 8.984375 C 16.148438 10.066406 17.003906 12.636719 17.570312 13.957031 C 17.789062 14.464844 17.957031 14.890625 17.941406 14.902344 C 17.925781 14.917969 17.71875 14.773438 17.476562 14.582031 C 15.621094 13.101562 13.117188 11.761719 10.058594 10.617188 C 8.890625 10.179688 8.648438 10.121094 7.957031 10.113281 C 7.261719 10.109375 7.101562 10.144531 6.523438 10.425781 C 5.40625 10.976562 4.476562 12.230469 4.1875 13.578125 C 3.988281 14.523438 4.125 15.914062 4.542969 17.160156 C 4.890625 18.195312 4.902344 18.265625 4.753906 18.492188 C 4.667969 18.625 4.1875 18.945312 3.691406 19.207031 C 2.113281 20.03125 1.183594 21.195312 0.667969 23.003906 C 0.492188 23.613281 0.445312 24.03125 0.441406 24.953125 C 0.441406 26.039062 0.457031 26.160156 0.703125 26.625 C 1.667969 28.449219 4.152344 29.453125 8.550781 29.789062 C 9.359375 29.851562 10.726562 29.886719 11.585938 29.867188 L 13.15625 29.835938 L 12.023438 30.425781 C 8.152344 32.453125 5.679688 34.65625 4.882812 36.789062 C 4.585938 37.582031 4.464844 38.71875 4.589844 39.507812 C 4.71875 40.320312 4.96875 40.8125 5.4375 41.199219 C 6.070312 41.722656 6.5 41.816406 8.59375 41.890625 C 9.640625 41.929688 10.617188 42.007812 10.761719 42.070312 C 11.285156 42.289062 11.421875 42.765625 11.621094 45.039062 C 11.789062 46.992188 12.03125 47.714844 12.695312 48.253906 C 13.667969 49.039062 15.316406 48.714844 17.730469 47.257812 C 21.324219 45.089844 23.503906 41.964844 24.566406 37.457031 C 24.757812 36.636719 24.863281 36.347656 24.914062 36.480469 C 27.300781 42.578125 30.710938 48.035156 32.714844 48.96875 C 33.882812 49.511719 35.136719 49.140625 35.835938 48.050781 C 36 47.796875 36.328125 46.992188 36.5625 46.261719 C 37.082031 44.667969 37.496094 43.851562 38.03125 43.390625 C 38.683594 42.828125 38.871094 42.769531 40.378906 42.667969 C 42.203125 42.546875 42.6875 42.453125 43.453125 42.066406 C 44.492188 41.542969 44.90625 40.628906 44.714844 39.277344 C 44.503906 37.792969 43.699219 36.398438 42.089844 34.730469 C 40.496094 33.078125 38.105469 31.257812 35.59375 29.789062 C 35.113281 29.507812 34.710938 29.269531 34.699219 29.261719 C 34.691406 29.253906 35.460938 29.242188 36.410156 29.230469 C 40.109375 29.195312 43.75 28.429688 46.339844 27.152344 C 48.144531 26.257812 48.835938 25.507812 49.363281 23.886719 C 49.585938 23.207031 49.625 22.9375 49.59375 22.285156 C 49.5625 21.601562 49.523438 21.445312 49.261719 21.078125 C 48.828125 20.457031 48 20.066406 46.484375 19.769531 C 45.8125 19.640625 45.078125 19.460938 44.847656 19.375 C 44.480469 19.238281 44.433594 19.1875 44.433594 18.914062 C 44.4375 18.722656 44.644531 18.226562 44.976562 17.625 C 46.464844 14.929688 46.660156 13.992188 45.988281 12.683594 C 45.328125 11.382812 44.019531 10.648438 42.367188 10.644531 C 39.804688 10.640625 35.5625 12.542969 32.179688 15.214844 C 31.800781 15.511719 31.441406 15.792969 31.378906 15.839844 C 31.316406 15.890625 31.457031 15.34375 31.691406 14.625 C 32.820312 11.183594 33.496094 7.527344 33.496094 4.871094 C 33.496094 2.734375 33.183594 1.722656 32.339844 1.128906 C 31.984375 0.878906 31.8125 0.828125 31.21875 0.800781 C 30.605469 0.773438 30.441406 0.808594 29.929688 1.054688 M 30.316406 2 C 30.050781 2.136719 29.328125 2.625 28.710938 3.089844 C 26.929688 4.429688 25.757812 4.882812 24.570312 4.6875 C 23.953125 4.589844 23.550781 4.394531 22.421875 3.660156 C 19.546875 1.785156 18.183594 1.910156 17.128906 4.144531 C 16.023438 6.484375 16.609375 9.316406 19.585938 16.003906 C 20.539062 18.140625 20.660156 18.367188 20.84375 18.316406 C 20.953125 18.285156 21.371094 18.214844 21.769531 18.164062 C 22.167969 18.109375 22.503906 18.054688 22.523438 18.039062 C 22.539062 18.023438 22.460938 17.726562 22.351562 17.378906 C 21.84375 15.761719 21.257812 12.878906 21.101562 11.226562 C 21.007812 10.234375 21.105469 9.863281 21.460938 9.863281 C 21.839844 9.867188 21.90625 10.027344 22.039062 11.242188 C 22.25 13.210938 23.148438 17.246094 23.535156 17.964844 C 23.59375 18.074219 23.941406 18.171875 24.714844 18.292969 C 25.320312 18.390625 25.859375 18.476562 25.917969 18.488281 C 26.050781 18.511719 27.027344 15.617188 27.382812 14.15625 C 27.527344 13.550781 27.671875 12.769531 27.703125 12.414062 C 27.734375 12.058594 27.800781 11.691406 27.847656 11.597656 C 27.976562 11.351562 28.480469 11.371094 28.617188 11.628906 C 28.855469 12.074219 28.289062 14.738281 27.398438 17.378906 C 27.152344 18.101562 26.953125 18.722656 26.953125 18.757812 C 26.953125 18.792969 27.289062 18.945312 27.695312 19.09375 C 28.3125 19.316406 28.453125 19.339844 28.527344 19.226562 C 30.65625 16.046875 32.679688 8.441406 32.496094 4.308594 C 32.433594 2.929688 32.234375 2.308594 31.746094 1.980469 C 31.320312 1.691406 30.917969 1.699219 30.316406 2 M 6.984375 11.335938 C 6.117188 11.765625 5.402344 12.769531 5.164062 13.878906 C 5 14.648438 5.113281 15.652344 5.480469 16.707031 C 5.707031 17.347656 5.804688 17.808594 5.808594 18.21875 C 5.8125 19.039062 5.5625 19.347656 4.382812 19.972656 C 2.449219 21 1.558594 22.433594 1.394531 24.777344 C 1.34375 25.511719 1.363281 25.621094 1.609375 26.125 C 2.6875 28.335938 7.339844 29.242188 14.796875 28.695312 C 16 28.609375 16.402344 28.535156 17.074219 28.296875 C 17.800781 28.035156 17.882812 27.980469 17.828125 27.796875 C 17.609375 27.035156 17.480469 26.5 17.480469 26.359375 C 17.480469 26.214844 17.207031 26.191406 14.820312 26.140625 C 12.808594 26.097656 11.902344 26.039062 11.105469 25.894531 C 9.917969 25.679688 9.035156 25.304688 8.953125 24.980469 C 8.820312 24.484375 9.316406 24.242188 9.808594 24.566406 C 10.238281 24.847656 11.808594 25.089844 13.910156 25.203125 C 15.035156 25.261719 16.273438 25.28125 16.65625 25.246094 L 17.355469 25.179688 L 17.421875 24.234375 C 17.480469 23.355469 17.671875 21.945312 17.828125 21.222656 C 17.886719 20.9375 17.859375 20.894531 17.480469 20.65625 C 16.738281 20.1875 14.613281 19.160156 13.867188 18.910156 C 13.464844 18.773438 12.894531 18.632812 12.597656 18.597656 C 12.300781 18.558594 12.003906 18.484375 11.9375 18.433594 C 11.769531 18.296875 11.785156 17.921875 11.964844 17.769531 C 12.183594 17.589844 13.277344 17.710938 14.160156 18.015625 C 14.894531 18.265625 16.765625 19.152344 17.773438 19.726562 L 18.3125 20.03125 L 19.035156 19.328125 L 19.757812 18.628906 L 19.59375 18.324219 C 19.289062 17.757812 18.144531 16.503906 17.246094 15.75 C 15.550781 14.328125 13.390625 13.0625 10.933594 12.054688 C 8.546875 11.074219 7.785156 10.933594 6.984375 11.335938 M 41.554688 11.683594 C 38.585938 12.160156 34.210938 14.585938 31.132812 17.464844 C 30.488281 18.070312 29.902344 18.785156 29.503906 19.453125 L 29.289062 19.8125 L 29.855469 20.195312 L 30.421875 20.582031 L 31.496094 19.863281 C 33.507812 18.515625 35.40625 17.710938 36.792969 17.617188 C 37.644531 17.558594 38.015625 17.6875 38.070312 18.050781 C 38.125 18.445312 37.929688 18.554688 37.167969 18.554688 C 36.78125 18.554688 36.203125 18.621094 35.882812 18.707031 C 35.046875 18.921875 33.464844 19.703125 32.21875 20.515625 L 31.140625 21.21875 L 31.378906 21.472656 C 32.171875 22.335938 32.617188 23.359375 32.691406 24.5 L 32.742188 25.316406 L 34.65625 25.269531 C 37.171875 25.210938 38.003906 25.019531 39.179688 24.242188 C 39.53125 24.011719 39.558594 24.007812 39.792969 24.160156 C 40.132812 24.382812 40.101562 24.632812 39.679688 25.003906 C 38.714844 25.851562 36.441406 26.328125 33.753906 26.253906 L 32.597656 26.21875 L 32.417969 26.90625 C 32.324219 27.28125 32.214844 27.660156 32.179688 27.75 C 32.132812 27.871094 32.183594 27.925781 32.390625 27.96875 C 33.613281 28.222656 37.070312 28.308594 38.71875 28.121094 C 42.488281 27.703125 46 26.5625 47.382812 25.3125 C 48.007812 24.75 48.632812 23.324219 48.632812 22.46875 C 48.632812 21.488281 48.109375 21.136719 46.019531 20.703125 C 44.417969 20.367188 44.179688 20.285156 43.820312 19.945312 C 43.183594 19.335938 43.296875 18.492188 44.246094 16.796875 C 45.328125 14.863281 45.523438 14.082031 45.125 13.234375 C 44.894531 12.734375 44.203125 12.066406 43.703125 11.859375 C 43.3125 11.695312 42.097656 11.597656 41.554688 11.683594 M 21.402344 19.148438 C 20.324219 19.359375 19.378906 20.046875 18.949219 20.941406 C 18.644531 21.566406 18.371094 23.464844 18.363281 24.960938 C 18.355469 27.078125 18.835938 28.328125 20.15625 29.648438 C 21.429688 30.925781 24.335938 32.6875 25.515625 32.898438 C 27.507812 33.261719 29.566406 31.558594 30.917969 28.441406 C 31.785156 26.433594 31.980469 24.398438 31.421875 23.207031 C 31.078125 22.472656 29.894531 21.292969 28.953125 20.742188 C 28.160156 20.277344 26.785156 19.710938 25.90625 19.488281 C 24.378906 19.097656 22.414062 18.949219 21.402344 19.148438 M 24.25 22.246094 C 23.679688 22.449219 23.191406 22.796875 22.574219 23.4375 C 20.761719 25.316406 21.515625 27.640625 24.410156 29.109375 C 26.242188 30.035156 27.785156 28.984375 28.285156 26.464844 C 28.648438 24.640625 27.96875 23.171875 26.429688 22.453125 C 25.628906 22.082031 24.90625 22.011719 24.25 22.246094 M 24.320312 23.210938 C 23.859375 23.449219 22.925781 24.386719 22.726562 24.820312 C 22.503906 25.292969 22.511719 25.992188 22.746094 26.453125 C 23.019531 26.984375 24.011719 27.863281 24.753906 28.226562 C 25.273438 28.484375 25.464844 28.53125 25.804688 28.484375 C 26.648438 28.371094 27.316406 27.226562 27.414062 25.734375 C 27.472656 24.863281 27.363281 24.488281 26.910156 23.949219 C 26.269531 23.1875 25.046875 22.839844 24.320312 23.210938 M 16.894531 29.378906 C 10.671875 31.765625 6.597656 34.695312 5.757812 37.386719 C 5.53125 38.125 5.5 39.402344 5.699219 39.871094 C 5.859375 40.25 6.195312 40.570312 6.59375 40.730469 C 6.765625 40.800781 7.691406 40.875 8.835938 40.910156 C 10.523438 40.964844 10.851562 41.003906 11.242188 41.179688 C 12.140625 41.585938 12.390625 42.242188 12.59375 44.726562 C 12.730469 46.398438 12.917969 47.089844 13.316406 47.425781 C 13.585938 47.652344 13.675781 47.675781 14.207031 47.632812 C 14.90625 47.574219 15.742188 47.238281 16.945312 46.535156 C 20.96875 44.171875 22.980469 40.964844 23.953125 35.351562 C 24.242188 33.6875 24.210938 33.519531 23.496094 33.113281 C 22.878906 32.757812 22.851562 32.753906 22.851562 33.011719 C 22.851562 33.421875 22.433594 35.234375 22.097656 36.28125 C 21.292969 38.78125 20.148438 40.34375 18.820312 40.742188 C 18.34375 40.886719 18.117188 40.761719 18.117188 40.371094 C 18.117188 40.125 18.1875 40.054688 18.652344 39.820312 C 20.03125 39.136719 21.078125 37.160156 21.734375 34.003906 C 22.082031 32.328125 22.082031 32.324219 21.410156 31.882812 C 21.101562 31.679688 20.695312 31.390625 20.503906 31.242188 L 20.15625 30.972656 L 19.234375 31.457031 C 17.792969 32.21875 16.449219 33.171875 15.421875 34.15625 C 14.503906 35.035156 14.226562 35.183594 13.984375 34.941406 C 13.710938 34.667969 13.863281 34.367188 14.671875 33.558594 C 15.613281 32.625 16.707031 31.816406 18.210938 30.953125 C 18.804688 30.613281 19.300781 30.328125 19.316406 30.316406 C 19.375 30.277344 18.332031 28.953125 18.222656 28.933594 C 18.164062 28.917969 17.566406 29.121094 16.894531 29.378906 M 31.421875 29.59375 L 31.070312 30.277344 L 31.820312 30.828125 C 34.460938 32.769531 36.597656 34.863281 37.050781 35.953125 C 37.179688 36.257812 37.179688 36.324219 37.050781 36.507812 C 36.785156 36.890625 36.488281 36.777344 36.101562 36.148438 C 35.613281 35.359375 34.660156 34.355469 33.371094 33.273438 C 32.09375 32.203125 30.722656 31.152344 30.601562 31.152344 C 30.554688 31.152344 30.316406 31.398438 30.078125 31.703125 C 29.683594 32.199219 28.832031 32.972656 28.445312 33.1875 C 28.320312 33.257812 28.394531 33.511719 28.910156 34.824219 C 29.691406 36.820312 30.828125 39.195312 31.464844 40.164062 C 31.90625 40.839844 31.949219 40.949219 31.851562 41.164062 C 31.773438 41.34375 31.664062 41.40625 31.453125 41.40625 C 31.203125 41.40625 31.101562 41.308594 30.660156 40.648438 C 30.007812 39.675781 29.0625 37.722656 28.167969 35.5 C 27.574219 34.023438 27.433594 33.746094 27.28125 33.777344 C 27.179688 33.796875 26.660156 33.828125 26.125 33.84375 C 25.585938 33.863281 25.140625 33.878906 25.132812 33.882812 C 25.050781 33.90625 26.058594 36.671875 26.621094 37.96875 C 29.054688 43.585938 32.285156 48.25 33.734375 48.242188 C 34.175781 48.238281 34.78125 47.851562 35.03125 47.410156 C 35.15625 47.195312 35.414062 46.515625 35.609375 45.898438 C 36.304688 43.695312 37.027344 42.625 38.210938 42.046875 C 38.667969 41.824219 38.949219 41.769531 40.101562 41.6875 C 42.394531 41.527344 43.183594 41.304688 43.558594 40.703125 C 43.96875 40.054688 43.6875 38.621094 42.894531 37.324219 C 41.445312 34.945312 37.675781 31.960938 33.246094 29.671875 L 31.773438 28.910156 L 31.421875 29.59375 "/>
<path style=" stroke:none;fill-rule:evenodd;fill:rgb(100%,94.117647%,94.117647%);fill-opacity:1;" d="M 30.761719 1.851562 C 30.328125 1.980469 29.953125 2.214844 28.808594 3.074219 C 28.191406 3.539062 27.316406 4.101562 26.863281 4.328125 C 26.066406 4.722656 26.007812 4.734375 25.105469 4.734375 C 24.046875 4.730469 23.941406 4.691406 22.414062 3.703125 C 21.003906 2.796875 20.101562 2.40625 19.394531 2.402344 C 18.4375 2.398438 17.839844 2.832031 17.277344 3.929688 C 16.324219 5.792969 16.535156 8.246094 17.980469 12.109375 C 18.191406 12.671875 18.878906 14.292969 19.507812 15.707031 L 20.648438 18.28125 L 20.992188 18.21875 C 21.183594 18.183594 21.59375 18.128906 21.90625 18.097656 C 22.429688 18.042969 22.472656 18.019531 22.417969 17.832031 C 21.5 14.703125 20.796875 10.609375 21.085938 10.074219 C 21.21875 9.824219 21.6875 9.785156 21.875 10.011719 C 21.945312 10.09375 22.035156 10.566406 22.082031 11.0625 C 22.222656 12.640625 22.6875 15.027344 23.191406 16.769531 C 23.539062 17.976562 23.621094 18.109375 24.023438 18.140625 C 24.210938 18.15625 24.710938 18.234375 25.136719 18.320312 C 25.558594 18.402344 25.941406 18.433594 25.980469 18.390625 C 26.09375 18.265625 27.019531 15.394531 27.292969 14.304688 C 27.425781 13.769531 27.585938 12.957031 27.644531 12.5 C 27.792969 11.394531 28.125 11.039062 28.5625 11.523438 C 28.929688 11.925781 28.53125 14.09375 27.527344 17.144531 C 27.246094 18 27.011719 18.714844 27.007812 18.730469 C 27.003906 18.75 27.308594 18.886719 27.6875 19.042969 L 28.367188 19.320312 L 28.550781 19.109375 C 28.867188 18.742188 29.742188 16.898438 30.253906 15.527344 C 31.742188 11.53125 32.6875 6.421875 32.417969 3.808594 C 32.363281 3.304688 32.246094 2.738281 32.152344 2.550781 C 31.875 1.992188 31.289062 1.695312 30.761719 1.851562 M 7.273438 11.253906 C 6.015625 11.703125 5.15625 13.117188 5.15625 14.746094 C 5.15625 15.433594 5.214844 15.761719 5.507812 16.660156 C 6.160156 18.667969 5.984375 19.1875 4.363281 20.042969 C 2.835938 20.851562 2.019531 21.894531 1.632812 23.535156 C 1.363281 24.679688 1.335938 25.140625 1.511719 25.738281 C 1.921875 27.15625 3.722656 28.101562 6.933594 28.585938 C 8.316406 28.796875 13.464844 28.824219 15.234375 28.632812 C 16.300781 28.515625 17.773438 28.105469 17.773438 27.925781 C 17.773438 27.882812 17.710938 27.589844 17.636719 27.277344 C 17.558594 26.964844 17.472656 26.597656 17.445312 26.464844 L 17.390625 26.21875 L 15.117188 26.203125 C 12.785156 26.183594 11.140625 26.027344 10.128906 25.734375 C 9.09375 25.433594 8.652344 24.933594 9.039062 24.503906 C 9.246094 24.277344 9.457031 24.265625 9.742188 24.464844 C 10.367188 24.90625 12.734375 25.195312 15.679688 25.195312 L 17.355469 25.195312 L 17.414062 24.046875 C 17.464844 23.039062 17.664062 21.589844 17.824219 21.089844 C 17.863281 20.957031 17.734375 20.839844 17.265625 20.578125 C 15.222656 19.433594 13.285156 18.652344 12.511719 18.652344 C 12.238281 18.652344 12.046875 18.589844 11.914062 18.457031 C 11.664062 18.207031 11.667969 18.019531 11.925781 17.761719 C 12.109375 17.578125 12.199219 17.5625 12.730469 17.621094 C 13.058594 17.660156 13.660156 17.796875 14.0625 17.929688 C 14.8125 18.179688 16.9375 19.183594 17.835938 19.714844 L 18.335938 20.007812 L 18.648438 19.621094 C 18.820312 19.40625 19.128906 19.117188 19.335938 18.980469 C 19.601562 18.804688 19.695312 18.683594 19.65625 18.570312 C 19.441406 17.984375 18.15625 16.539062 17.03125 15.617188 C 15.050781 14 12.292969 12.519531 9.386719 11.515625 C 8.257812 11.125 7.792969 11.066406 7.273438 11.253906 M 40.578125 11.957031 C 39.359375 12.273438 38.597656 12.578125 37.109375 13.332031 C 34.175781 14.824219 30.816406 17.472656 29.785156 19.105469 C 29.570312 19.445312 29.394531 19.742188 29.394531 19.765625 C 29.394531 19.8125 30.347656 20.507812 30.414062 20.507812 C 30.441406 20.507812 30.957031 20.175781 31.5625 19.769531 C 32.746094 18.980469 34.234375 18.210938 35.253906 17.867188 C 36.117188 17.574219 37.59375 17.492188 37.9375 17.714844 C 38.222656 17.902344 38.261719 18.269531 38.023438 18.46875 C 37.917969 18.554688 37.574219 18.605469 37.023438 18.613281 C 36.339844 18.621094 36.027344 18.683594 35.367188 18.925781 C 34.378906 19.296875 33.136719 19.949219 32.054688 20.667969 L 31.246094 21.207031 L 31.449219 21.46875 C 32.292969 22.554688 32.660156 23.394531 32.769531 24.5 L 32.835938 25.171875 L 33.191406 25.230469 C 34.074219 25.378906 36.457031 25.21875 37.542969 24.9375 C 38.195312 24.769531 38.960938 24.410156 39.152344 24.175781 C 39.3125 23.984375 39.78125 23.976562 39.9375 24.164062 C 40.292969 24.59375 39.699219 25.269531 38.601562 25.683594 C 37.527344 26.089844 36.835938 26.1875 34.703125 26.242188 L 32.636719 26.292969 L 32.480469 26.890625 C 32.394531 27.222656 32.300781 27.582031 32.269531 27.699219 C 32.214844 27.894531 32.265625 27.914062 33.21875 28.039062 C 34.640625 28.226562 37.917969 28.203125 39.453125 27.992188 C 42.65625 27.554688 45.535156 26.613281 47.097656 25.488281 C 47.550781 25.164062 47.726562 24.949219 48.003906 24.402344 C 48.425781 23.566406 48.671875 22.644531 48.589844 22.207031 C 48.507812 21.769531 48.132812 21.34375 47.660156 21.15625 C 47.449219 21.070312 46.691406 20.886719 45.976562 20.746094 C 45.261719 20.601562 44.480469 20.394531 44.238281 20.277344 C 43.203125 19.785156 43.089844 18.867188 43.878906 17.402344 C 45.054688 15.222656 45.25 14.761719 45.257812 14.128906 C 45.261719 13.640625 45.214844 13.4375 44.996094 13.070312 C 44.664062 12.503906 44.140625 12.0625 43.566406 11.867188 C 42.910156 11.644531 41.628906 11.683594 40.578125 11.957031 M 27.351562 25.253906 C 27.355469 25.367188 27.378906 25.390625 27.410156 25.3125 C 27.4375 25.242188 27.433594 25.15625 27.402344 25.125 C 27.371094 25.089844 27.347656 25.148438 27.351562 25.253906 M 26.453125 28.101562 C 26.332031 28.253906 26.335938 28.257812 26.488281 28.136719 C 26.582031 28.0625 26.660156 27.988281 26.660156 27.964844 C 26.660156 27.886719 26.578125 27.9375 26.453125 28.101562 M 16.894531 29.433594 C 12.441406 31.171875 9.253906 33.015625 7.410156 34.925781 C 6.136719 36.25 5.640625 37.304688 5.625 38.71875 C 5.613281 39.792969 5.808594 40.257812 6.402344 40.566406 C 6.734375 40.742188 7.046875 40.777344 8.691406 40.835938 C 9.738281 40.871094 10.730469 40.945312 10.894531 40.996094 C 12.136719 41.386719 12.378906 41.894531 12.644531 44.679688 C 12.839844 46.746094 13.011719 47.308594 13.523438 47.539062 C 13.855469 47.691406 14 47.6875 14.699219 47.503906 C 16.164062 47.125 18.308594 45.757812 19.832031 44.242188 C 22.039062 42.039062 23.199219 39.492188 23.929688 35.222656 C 24.1875 33.71875 24.148438 33.523438 23.519531 33.171875 C 23.246094 33.023438 23.007812 32.917969 22.984375 32.941406 C 22.960938 32.964844 22.832031 33.511719 22.703125 34.160156 C 22.195312 36.648438 21.320312 38.703125 20.296875 39.796875 C 19.367188 40.789062 18.21875 41.167969 18.023438 40.546875 C 17.921875 40.230469 18.070312 40.035156 18.59375 39.800781 C 20.058594 39.140625 21.179688 36.863281 21.835938 33.214844 C 21.984375 32.40625 21.984375 32.289062 21.855469 32.21875 C 21.652344 32.105469 20.816406 31.535156 20.449219 31.261719 L 20.144531 31.039062 L 19.617188 31.300781 C 17.992188 32.117188 16.285156 33.320312 15.1875 34.425781 C 14.789062 34.828125 14.394531 35.15625 14.3125 35.15625 C 14.121094 35.15625 13.769531 34.8125 13.769531 34.625 C 13.769531 34.433594 14.449219 33.660156 15.226562 32.972656 C 15.953125 32.328125 17.492188 31.273438 18.535156 30.703125 C 18.921875 30.492188 19.238281 30.289062 19.238281 30.246094 C 19.238281 30.207031 19.039062 29.929688 18.796875 29.632812 C 18.558594 29.335938 18.359375 29.050781 18.359375 29 C 18.359375 28.863281 18.332031 28.871094 16.894531 29.433594 M 31.457031 29.644531 C 31.277344 29.992188 31.144531 30.292969 31.164062 30.308594 C 33.746094 32.132812 35.980469 34.167969 36.804688 35.441406 C 37.269531 36.164062 37.308594 36.453125 36.960938 36.679688 C 36.738281 36.828125 36.699219 36.828125 36.476562 36.679688 C 36.34375 36.59375 36.140625 36.339844 36.027344 36.117188 C 35.617188 35.316406 33.773438 33.5625 31.597656 31.90625 L 30.625 31.164062 L 29.871094 31.96875 C 29.457031 32.414062 28.960938 32.882812 28.769531 33.015625 C 28.578125 33.144531 28.417969 33.304688 28.417969 33.367188 C 28.417969 33.59375 29.625 36.503906 30.328125 37.964844 C 30.722656 38.789062 31.242188 39.761719 31.488281 40.128906 C 31.996094 40.894531 32.035156 41.140625 31.683594 41.371094 C 31.449219 41.523438 31.421875 41.523438 31.171875 41.339844 C 30.570312 40.902344 29.28125 38.410156 28.019531 35.253906 C 27.46875 33.878906 27.445312 33.839844 27.179688 33.863281 C 27.027344 33.878906 26.519531 33.898438 26.050781 33.910156 C 25.578125 33.917969 25.195312 33.960938 25.195312 34 C 25.195312 34.179688 26.0625 36.519531 26.582031 37.742188 C 28.871094 43.101562 31.910156 47.6875 33.472656 48.136719 C 33.800781 48.230469 34.378906 48.066406 34.683594 47.789062 C 34.988281 47.515625 35.226562 46.980469 35.699219 45.53125 C 36.1875 44.039062 36.457031 43.523438 37.125 42.8125 C 37.851562 42.046875 38.390625 41.796875 39.578125 41.691406 C 42.542969 41.421875 42.972656 41.320312 43.398438 40.8125 C 43.730469 40.421875 43.792969 39.90625 43.605469 39.105469 C 43.09375 36.894531 40.773438 34.410156 36.765625 31.789062 C 36.015625 31.296875 35.046875 30.695312 34.617188 30.449219 C 33.929688 30.058594 31.882812 29.003906 31.8125 29.003906 C 31.800781 29.003906 31.636719 29.292969 31.457031 29.644531 "/>
<path style=" stroke:none;fill-rule:evenodd;fill:rgb(100%,94.117647%,94.117647%);fill-opacity:1;" d="M 21.734375 19.15625 C 20.476562 19.3125 19.464844 19.972656 19 20.929688 C 18.464844 22.03125 18.21875 25.582031 18.585938 26.941406 C 18.949219 28.300781 19.875 29.570312 21.207031 30.546875 C 22.015625 31.140625 23.464844 32 24.414062 32.460938 C 25.1875 32.832031 25.300781 32.859375 26.078125 32.859375 C 26.820312 32.859375 26.976562 32.828125 27.554688 32.542969 C 29.539062 31.566406 31.492188 28.082031 31.707031 25.144531 C 31.808594 23.757812 31.246094 22.554688 30.023438 21.546875 C 28.011719 19.886719 24.339844 18.828125 21.734375 19.15625 M 23.96875 22.296875 C 23.21875 22.652344 22.230469 23.632812 21.863281 24.371094 C 21.503906 25.101562 21.449219 25.960938 21.71875 26.605469 C 22.132812 27.59375 23.179688 28.5625 24.519531 29.195312 C 25.585938 29.699219 26.5 29.550781 27.265625 28.746094 C 28.371094 27.585938 28.773438 25.21875 28.078125 23.945312 C 27.257812 22.441406 25.308594 21.660156 23.96875 22.296875 "/>
<path style=" stroke:none;fill-rule:evenodd;fill:rgb(46.666667%,20%,24.313725%);fill-opacity:1;" d="M 31.738281 1.988281 C 31.738281 2.011719 31.816406 2.085938 31.910156 2.160156 C 32.0625 2.28125 32.066406 2.277344 31.945312 2.125 C 31.820312 1.960938 31.738281 1.910156 31.738281 1.988281 M 32.441406 4.148438 C 32.441406 4.3125 32.464844 4.367188 32.488281 4.269531 C 32.515625 4.175781 32.511719 4.042969 32.484375 3.976562 C 32.460938 3.910156 32.4375 3.988281 32.441406 4.148438 M 32.445312 5.515625 C 32.449219 5.734375 32.46875 5.808594 32.492188 5.6875 C 32.515625 5.566406 32.511719 5.390625 32.488281 5.296875 C 32.464844 5.203125 32.445312 5.304688 32.445312 5.515625 M 16.625 6.492188 C 16.628906 6.710938 16.648438 6.785156 16.671875 6.664062 C 16.695312 6.542969 16.691406 6.367188 16.667969 6.273438 C 16.644531 6.179688 16.625 6.28125 16.625 6.492188 M 32.332031 6.796875 C 32.335938 6.910156 32.359375 6.933594 32.390625 6.855469 C 32.417969 6.785156 32.414062 6.699219 32.382812 6.667969 C 32.351562 6.632812 32.328125 6.691406 32.332031 6.796875 M 32.234375 7.578125 C 32.238281 7.691406 32.261719 7.714844 32.292969 7.636719 C 32.320312 7.566406 32.316406 7.480469 32.285156 7.449219 C 32.253906 7.414062 32.230469 7.472656 32.234375 7.578125 M 21.996094 10.644531 C 21.996094 10.832031 22.015625 10.910156 22.039062 10.816406 C 22.066406 10.722656 22.066406 10.566406 22.039062 10.472656 C 22.015625 10.378906 21.996094 10.457031 21.996094 10.644531 M 21.011719 11.035156 C 21.011719 11.167969 21.035156 11.222656 21.0625 11.15625 C 21.085938 11.089844 21.085938 10.980469 21.0625 10.914062 C 21.035156 10.847656 21.011719 10.902344 21.011719 11.035156 M 28.101562 11.394531 C 28.167969 11.421875 28.277344 11.421875 28.34375 11.394531 C 28.410156 11.367188 28.355469 11.34375 28.222656 11.34375 C 28.089844 11.34375 28.035156 11.367188 28.101562 11.394531 M 22.078125 11.679688 C 22.082031 11.792969 22.105469 11.816406 22.136719 11.738281 C 22.164062 11.667969 22.160156 11.582031 22.128906 11.550781 C 22.097656 11.515625 22.074219 11.574219 22.078125 11.679688 M 42.210938 11.6875 C 42.304688 11.714844 42.460938 11.714844 42.554688 11.6875 C 42.648438 11.664062 42.570312 11.644531 42.382812 11.644531 C 42.195312 11.644531 42.117188 11.664062 42.210938 11.6875 M 21.101562 11.972656 C 21.105469 12.085938 21.128906 12.109375 21.160156 12.03125 C 21.1875 11.960938 21.183594 11.875 21.152344 11.84375 C 21.121094 11.808594 21.097656 11.867188 21.101562 11.972656 M 27.644531 12.363281 C 27.648438 12.476562 27.671875 12.5 27.703125 12.421875 C 27.730469 12.351562 27.726562 12.265625 27.695312 12.234375 C 27.664062 12.199219 27.640625 12.257812 27.644531 12.363281 M 28.621094 12.65625 C 28.625 12.769531 28.648438 12.792969 28.679688 12.714844 C 28.707031 12.644531 28.703125 12.558594 28.671875 12.527344 C 28.640625 12.492188 28.617188 12.550781 28.621094 12.65625 M 5.09375 14.355469 C 5.09375 14.488281 5.117188 14.542969 5.144531 14.476562 C 5.171875 14.410156 5.171875 14.300781 5.144531 14.234375 C 5.117188 14.167969 5.09375 14.222656 5.09375 14.355469 M 5.09375 15.136719 C 5.09375 15.269531 5.117188 15.324219 5.144531 15.257812 C 5.171875 15.191406 5.171875 15.082031 5.144531 15.015625 C 5.117188 14.949219 5.09375 15.003906 5.09375 15.136719 M 31.921875 16.773438 C 31.800781 16.925781 31.804688 16.929688 31.957031 16.808594 C 32.121094 16.683594 32.171875 16.601562 32.09375 16.601562 C 32.070312 16.601562 31.996094 16.679688 31.921875 16.773438 M 30.855469 17.75 L 30.515625 18.117188 L 30.882812 17.777344 C 31.085938 17.59375 31.25 17.429688 31.25 17.414062 C 31.25 17.335938 31.167969 17.40625 30.855469 17.75 M 12.28125 17.648438 C 12.402344 17.671875 12.578125 17.667969 12.671875 17.644531 C 12.765625 17.621094 12.664062 17.601562 12.453125 17.601562 C 12.234375 17.605469 12.160156 17.625 12.28125 17.648438 M 21.660156 18.132812 C 21.730469 18.160156 21.816406 18.15625 21.847656 18.125 C 21.882812 18.09375 21.824219 18.070312 21.71875 18.074219 C 21.605469 18.078125 21.582031 18.101562 21.660156 18.132812 M 24.394531 18.230469 C 24.464844 18.257812 24.550781 18.253906 24.582031 18.222656 C 24.617188 18.191406 24.558594 18.167969 24.453125 18.171875 C 24.339844 18.175781 24.316406 18.199219 24.394531 18.230469 M 2.828125 21.070312 L 2.492188 21.4375 L 2.855469 21.097656 C 3.058594 20.914062 3.222656 20.75 3.222656 20.734375 C 3.222656 20.65625 3.140625 20.726562 2.828125 21.070312 M 48.144531 21.421875 C 48.144531 21.445312 48.222656 21.519531 48.316406 21.59375 C 48.46875 21.714844 48.472656 21.710938 48.351562 21.558594 C 48.226562 21.394531 48.144531 21.34375 48.144531 21.421875 M 17.390625 23.59375 C 17.394531 23.707031 17.417969 23.730469 17.449219 23.652344 C 17.476562 23.582031 17.472656 23.496094 17.441406 23.464844 C 17.410156 23.429688 17.386719 23.488281 17.390625 23.59375 M 26.710938 23.828125 C 26.804688 23.9375 26.90625 24.023438 26.933594 24.023438 C 26.960938 24.023438 26.902344 23.9375 26.804688 23.828125 C 26.710938 23.71875 26.609375 23.632812 26.582031 23.632812 C 26.554688 23.632812 26.613281 23.71875 26.710938 23.828125 M 23.332031 24 L 23.09375 24.265625 L 23.363281 24.03125 C 23.617188 23.808594 23.675781 23.730469 23.601562 23.730469 C 23.582031 23.730469 23.460938 23.851562 23.332031 24 M 39.746094 24.058594 C 39.746094 24.082031 39.824219 24.15625 39.917969 24.230469 C 40.070312 24.351562 40.074219 24.347656 39.953125 24.195312 C 39.828125 24.03125 39.746094 23.980469 39.746094 24.058594 M 9.253906 24.382812 C 9.320312 24.40625 9.429688 24.40625 9.496094 24.382812 C 9.5625 24.355469 9.507812 24.332031 9.375 24.332031 C 9.242188 24.332031 9.1875 24.355469 9.253906 24.382812 M 1.375 24.570312 C 1.378906 24.683594 1.402344 24.707031 1.433594 24.628906 C 1.460938 24.558594 1.457031 24.472656 1.425781 24.441406 C 1.394531 24.40625 1.371094 24.464844 1.375 24.570312 M 32.753906 24.828125 C 32.761719 25.210938 32.785156 25.246094 33.035156 25.257812 C 33.269531 25.265625 33.273438 25.261719 33.0625 25.226562 C 32.863281 25.191406 32.816406 25.117188 32.785156 24.796875 L 32.746094 24.414062 L 32.753906 24.828125 M 39.636719 25.074219 C 39.515625 25.226562 39.519531 25.230469 39.671875 25.109375 C 39.835938 24.984375 39.886719 24.902344 39.808594 24.902344 C 39.785156 24.902344 39.710938 24.980469 39.636719 25.074219 M 13.011719 25.164062 C 13.105469 25.191406 13.261719 25.191406 13.355469 25.164062 C 13.449219 25.140625 13.371094 25.121094 13.183594 25.121094 C 12.996094 25.121094 12.917969 25.140625 13.011719 25.164062 M 36.503906 25.164062 C 36.574219 25.191406 36.660156 25.1875 36.691406 25.15625 C 36.726562 25.125 36.667969 25.101562 36.5625 25.105469 C 36.449219 25.109375 36.425781 25.132812 36.503906 25.164062 M 35.476562 25.261719 C 35.570312 25.289062 35.703125 25.285156 35.769531 25.257812 C 35.835938 25.234375 35.757812 25.210938 35.59375 25.214844 C 35.433594 25.214844 35.378906 25.238281 35.476562 25.261719 M 27.351562 25.9375 C 27.355469 26.050781 27.378906 26.074219 27.410156 25.996094 C 27.4375 25.925781 27.433594 25.839844 27.402344 25.808594 C 27.371094 25.773438 27.347656 25.832031 27.351562 25.9375 M 12.574219 26.140625 C 12.640625 26.164062 12.75 26.164062 12.816406 26.140625 C 12.882812 26.113281 12.828125 26.089844 12.695312 26.089844 C 12.5625 26.089844 12.507812 26.113281 12.574219 26.140625 M 14.917969 26.246094 C 15.359375 26.261719 16.085938 26.261719 16.527344 26.246094 C 16.972656 26.226562 16.609375 26.210938 15.722656 26.210938 C 14.835938 26.210938 14.472656 26.226562 14.917969 26.246094 M 32.695312 26.238281 C 32.765625 26.265625 32.851562 26.261719 32.882812 26.230469 C 32.917969 26.199219 32.859375 26.175781 32.753906 26.179688 C 32.640625 26.183594 32.617188 26.207031 32.695312 26.238281 M 35.816406 26.238281 C 35.882812 26.265625 35.992188 26.265625 36.058594 26.238281 C 36.125 26.210938 36.070312 26.1875 35.9375 26.1875 C 35.804688 26.1875 35.75 26.210938 35.816406 26.238281 M 33.378906 28.09375 C 33.449219 28.121094 33.535156 28.117188 33.566406 28.085938 C 33.601562 28.054688 33.542969 28.03125 33.4375 28.035156 C 33.324219 28.039062 33.300781 28.0625 33.378906 28.09375 M 38.75 28.09375 C 38.820312 28.121094 38.90625 28.117188 38.9375 28.085938 C 38.972656 28.054688 38.914062 28.03125 38.808594 28.035156 C 38.695312 28.039062 38.671875 28.0625 38.75 28.09375 M 34.5 28.191406 C 34.59375 28.21875 34.726562 28.214844 34.792969 28.1875 C 34.859375 28.164062 34.78125 28.140625 34.617188 28.144531 C 34.457031 28.144531 34.402344 28.167969 34.5 28.191406 M 37.523438 28.191406 C 37.617188 28.21875 37.773438 28.21875 37.867188 28.191406 C 37.960938 28.167969 37.882812 28.148438 37.695312 28.148438 C 37.507812 28.148438 37.429688 28.167969 37.523438 28.191406 M 15.898438 28.582031 C 15.96875 28.609375 16.054688 28.605469 16.085938 28.574219 C 16.121094 28.542969 16.0625 28.519531 15.957031 28.523438 C 15.84375 28.527344 15.820312 28.550781 15.898438 28.582031 M 7.402344 28.679688 C 7.472656 28.707031 7.558594 28.703125 7.589844 28.671875 C 7.625 28.640625 7.566406 28.617188 7.460938 28.621094 C 7.347656 28.625 7.324219 28.648438 7.402344 28.679688 M 14.820312 28.679688 C 14.886719 28.703125 14.996094 28.703125 15.0625 28.679688 C 15.128906 28.652344 15.074219 28.628906 14.941406 28.628906 C 14.808594 28.628906 14.753906 28.652344 14.820312 28.679688 M 8.472656 28.777344 C 8.539062 28.804688 8.648438 28.804688 8.714844 28.777344 C 8.78125 28.75 8.726562 28.726562 8.59375 28.726562 C 8.460938 28.726562 8.40625 28.75 8.472656 28.777344 M 13.402344 28.777344 C 13.496094 28.804688 13.652344 28.804688 13.746094 28.777344 C 13.839844 28.753906 13.761719 28.734375 13.574219 28.734375 C 13.386719 28.734375 13.308594 28.753906 13.402344 28.777344 M 15.417969 32.789062 C 15.296875 32.941406 15.300781 32.945312 15.453125 32.824219 C 15.617188 32.699219 15.667969 32.617188 15.589844 32.617188 C 15.566406 32.617188 15.492188 32.695312 15.417969 32.789062 M 22.894531 32.917969 C 22.859375 32.972656 22.851562 33.042969 22.878906 33.066406 C 22.902344 33.09375 22.949219 33.046875 22.984375 32.964844 C 23.050781 32.792969 22.992188 32.761719 22.894531 32.917969 M 34.523438 33.007812 C 34.617188 33.117188 34.71875 33.203125 34.746094 33.203125 C 34.773438 33.203125 34.714844 33.117188 34.617188 33.007812 C 34.523438 32.898438 34.421875 32.8125 34.394531 32.8125 C 34.367188 32.8125 34.425781 32.898438 34.523438 33.007812 M 14.539062 33.570312 C 14.417969 33.722656 14.421875 33.726562 14.574219 33.605469 C 14.667969 33.53125 14.746094 33.457031 14.746094 33.433594 C 14.746094 33.355469 14.664062 33.40625 14.539062 33.570312 M 15.710938 33.863281 C 15.589844 34.015625 15.59375 34.019531 15.746094 33.898438 C 15.839844 33.824219 15.917969 33.75 15.917969 33.726562 C 15.917969 33.648438 15.835938 33.699219 15.710938 33.863281 M 27.246094 33.730469 C 27.246094 33.75 27.3125 33.792969 27.398438 33.828125 C 27.484375 33.859375 27.523438 33.84375 27.488281 33.789062 C 27.433594 33.695312 27.246094 33.652344 27.246094 33.730469 M 25.855469 33.957031 C 25.976562 33.980469 26.171875 33.980469 26.292969 33.957031 C 26.414062 33.933594 26.316406 33.914062 26.074219 33.914062 C 25.832031 33.914062 25.734375 33.933594 25.855469 33.957031 M 34.765625 34.617188 C 35.058594 34.914062 35.316406 35.15625 35.34375 35.15625 C 35.371094 35.15625 35.15625 34.914062 34.863281 34.617188 C 34.570312 34.324219 34.3125 34.082031 34.285156 34.082031 C 34.257812 34.082031 34.472656 34.324219 34.765625 34.617188 M 39.941406 34.117188 C 39.941406 34.140625 40.019531 34.214844 40.113281 34.289062 C 40.265625 34.410156 40.269531 34.40625 40.148438 34.253906 C 40.023438 34.089844 39.941406 34.039062 39.941406 34.117188 M 13.777344 34.628906 C 13.78125 34.742188 13.804688 34.765625 13.835938 34.6875 C 13.863281 34.617188 13.859375 34.53125 13.828125 34.5 C 13.796875 34.464844 13.773438 34.523438 13.777344 34.628906 M 36.035156 34.507812 C 36.035156 34.53125 36.113281 34.605469 36.207031 34.679688 C 36.359375 34.800781 36.363281 34.796875 36.242188 34.644531 C 36.117188 34.480469 36.035156 34.429688 36.035156 34.507812 M 7.460938 34.789062 L 7.273438 35.007812 L 7.496094 34.824219 C 7.703125 34.648438 7.757812 34.570312 7.679688 34.570312 C 7.664062 34.570312 7.5625 34.667969 7.460938 34.789062 M 14.832031 34.742188 C 14.710938 34.894531 14.714844 34.898438 14.867188 34.777344 C 15.03125 34.652344 15.082031 34.570312 15.003906 34.570312 C 14.980469 34.570312 14.90625 34.648438 14.832031 34.742188 M 14.238281 35.125 C 14.308594 35.152344 14.394531 35.148438 14.425781 35.117188 C 14.460938 35.085938 14.402344 35.0625 14.296875 35.066406 C 14.183594 35.070312 14.160156 35.09375 14.238281 35.125 M 5.574219 38.144531 C 5.578125 38.257812 5.601562 38.28125 5.632812 38.203125 C 5.660156 38.132812 5.65625 38.046875 5.625 38.015625 C 5.59375 37.980469 5.570312 38.039062 5.574219 38.144531 M 19.617188 39.039062 C 19.496094 39.191406 19.5 39.195312 19.652344 39.074219 C 19.816406 38.949219 19.867188 38.867188 19.789062 38.867188 C 19.765625 38.867188 19.691406 38.945312 19.617188 39.039062 M 19.226562 39.429688 C 19.105469 39.582031 19.109375 39.585938 19.261719 39.464844 C 19.425781 39.339844 19.476562 39.257812 19.398438 39.257812 C 19.375 39.257812 19.300781 39.335938 19.226562 39.429688 M 17.976562 40.390625 C 17.980469 40.503906 18.003906 40.527344 18.035156 40.449219 C 18.0625 40.378906 18.058594 40.292969 18.027344 40.261719 C 17.996094 40.226562 17.972656 40.285156 17.976562 40.390625 M 8.128906 40.894531 C 8.492188 40.910156 9.085938 40.910156 9.449219 40.894531 C 9.8125 40.875 9.515625 40.859375 8.789062 40.859375 C 8.0625 40.859375 7.765625 40.875 8.128906 40.894531 M 11.765625 41.503906 C 11.863281 41.609375 11.964844 41.699219 11.992188 41.699219 C 12.019531 41.699219 11.960938 41.609375 11.867188 41.503906 C 11.769531 41.398438 11.667969 41.308594 11.640625 41.308594 C 11.613281 41.308594 11.671875 41.398438 11.765625 41.503906 M 41.386719 41.570312 C 41.457031 41.597656 41.542969 41.59375 41.574219 41.5625 C 41.609375 41.53125 41.550781 41.507812 41.445312 41.511719 C 41.332031 41.515625 41.308594 41.539062 41.386719 41.570312 M 39.867188 41.667969 C 39.960938 41.695312 40.117188 41.695312 40.210938 41.667969 C 40.304688 41.644531 40.226562 41.625 40.039062 41.625 C 39.851562 41.625 39.773438 41.644531 39.867188 41.667969 M 12.507812 43.808594 C 12.511719 43.921875 12.535156 43.945312 12.566406 43.867188 C 12.59375 43.796875 12.589844 43.710938 12.558594 43.679688 C 12.527344 43.644531 12.503906 43.703125 12.507812 43.808594 M 19.820312 44.3125 L 19.484375 44.679688 L 19.847656 44.339844 C 20.1875 44.027344 20.257812 43.945312 20.183594 43.945312 C 20.167969 43.945312 20.003906 44.109375 19.820312 44.3125 M 12.613281 44.921875 C 12.613281 45.054688 12.636719 45.109375 12.664062 45.042969 C 12.6875 44.976562 12.6875 44.867188 12.664062 44.800781 C 12.636719 44.734375 12.613281 44.789062 12.613281 44.921875 M 12.703125 45.957031 C 12.707031 46.070312 12.730469 46.09375 12.761719 46.015625 C 12.789062 45.945312 12.785156 45.859375 12.753906 45.828125 C 12.722656 45.792969 12.699219 45.851562 12.703125 45.957031 M 31.789062 46.875 C 31.882812 46.984375 31.984375 47.070312 32.011719 47.070312 C 32.039062 47.070312 31.980469 46.984375 31.882812 46.875 C 31.789062 46.765625 31.6875 46.679688 31.660156 46.679688 C 31.632812 46.679688 31.691406 46.765625 31.789062 46.875 M 32.421875 47.496094 C 32.421875 47.519531 32.5 47.59375 32.59375 47.667969 C 32.746094 47.789062 32.75 47.785156 32.628906 47.632812 C 32.503906 47.46875 32.421875 47.417969 32.421875 47.496094 "/>
<path style=" stroke:none;fill-rule:evenodd;fill:rgb(46.666667%,20%,24.313725%);fill-opacity:1;" d="M 32.429688 3.769531 C 32.433594 3.882812 32.457031 3.90625 32.488281 3.828125 C 32.515625 3.757812 32.511719 3.671875 32.480469 3.640625 C 32.449219 3.605469 32.425781 3.664062 32.429688 3.769531 M 16.609375 6.015625 C 16.613281 6.128906 16.636719 6.152344 16.667969 6.074219 C 16.695312 6.003906 16.691406 5.917969 16.660156 5.886719 C 16.628906 5.851562 16.605469 5.910156 16.609375 6.015625 M 32.429688 6.015625 C 32.433594 6.128906 32.457031 6.152344 32.488281 6.074219 C 32.515625 6.003906 32.511719 5.917969 32.480469 5.886719 C 32.449219 5.851562 32.425781 5.910156 32.429688 6.015625 M 16.609375 6.992188 C 16.613281 7.105469 16.636719 7.128906 16.667969 7.050781 C 16.695312 6.980469 16.691406 6.894531 16.660156 6.863281 C 16.628906 6.828125 16.605469 6.886719 16.609375 6.992188 M 21.003906 10.703125 C 21.007812 10.816406 21.03125 10.839844 21.0625 10.761719 C 21.089844 10.691406 21.085938 10.605469 21.054688 10.574219 C 21.023438 10.539062 21 10.597656 21.003906 10.703125 M 41.875 11.6875 C 41.945312 11.714844 42.03125 11.710938 42.0625 11.679688 C 42.097656 11.648438 42.039062 11.625 41.933594 11.628906 C 41.820312 11.632812 41.796875 11.65625 41.875 11.6875 M 42.753906 11.6875 C 42.824219 11.714844 42.910156 11.710938 42.941406 11.679688 C 42.976562 11.648438 42.917969 11.625 42.8125 11.628906 C 42.699219 11.632812 42.675781 11.65625 42.753906 11.6875 M 17.675781 16.148438 C 17.675781 16.171875 17.753906 16.246094 17.847656 16.320312 C 18 16.441406 18.003906 16.4375 17.882812 16.285156 C 17.757812 16.121094 17.675781 16.070312 17.675781 16.148438 M 18.3125 16.796875 C 18.40625 16.90625 18.507812 16.992188 18.535156 16.992188 C 18.5625 16.992188 18.503906 16.90625 18.40625 16.796875 C 18.3125 16.6875 18.210938 16.601562 18.183594 16.601562 C 18.15625 16.601562 18.214844 16.6875 18.3125 16.796875 M 31.335938 17.261719 C 31.214844 17.414062 31.21875 17.417969 31.371094 17.296875 C 31.464844 17.222656 31.542969 17.148438 31.542969 17.125 C 31.542969 17.046875 31.460938 17.097656 31.335938 17.261719 M 38.09375 18.125 C 38.097656 18.238281 38.121094 18.261719 38.152344 18.183594 C 38.179688 18.113281 38.175781 18.027344 38.144531 17.996094 C 38.113281 17.960938 38.089844 18.019531 38.09375 18.125 M 21.953125 18.132812 C 22.023438 18.160156 22.109375 18.15625 22.140625 18.125 C 22.175781 18.09375 22.117188 18.070312 22.011719 18.074219 C 21.898438 18.078125 21.875 18.101562 21.953125 18.132812 M 30.359375 18.238281 C 30.238281 18.390625 30.242188 18.394531 30.394531 18.273438 C 30.558594 18.148438 30.609375 18.066406 30.53125 18.066406 C 30.507812 18.066406 30.433594 18.144531 30.359375 18.238281 M 12.332031 18.621094 C 12.425781 18.648438 12.558594 18.644531 12.625 18.617188 C 12.691406 18.59375 12.613281 18.570312 12.453125 18.574219 C 12.289062 18.574219 12.234375 18.597656 12.332031 18.621094 M 21.898438 19.109375 C 21.992188 19.136719 22.148438 19.136719 22.242188 19.109375 C 22.335938 19.085938 22.257812 19.066406 22.070312 19.066406 C 21.882812 19.066406 21.804688 19.085938 21.898438 19.109375 M 23.023438 19.113281 C 23.144531 19.136719 23.339844 19.136719 23.460938 19.113281 C 23.582031 19.089844 23.484375 19.070312 23.242188 19.070312 C 23 19.070312 22.902344 19.089844 23.023438 19.113281 M 21.269531 19.207031 C 21.339844 19.234375 21.425781 19.230469 21.457031 19.199219 C 21.492188 19.167969 21.433594 19.144531 21.328125 19.148438 C 21.214844 19.152344 21.191406 19.175781 21.269531 19.207031 M 24.199219 19.207031 C 24.269531 19.234375 24.355469 19.230469 24.386719 19.199219 C 24.421875 19.167969 24.363281 19.144531 24.257812 19.148438 C 24.144531 19.152344 24.121094 19.175781 24.199219 19.207031 M 18.789062 19.457031 L 18.601562 19.679688 L 18.824219 19.492188 C 18.945312 19.390625 19.042969 19.289062 19.042969 19.273438 C 19.042969 19.195312 18.964844 19.25 18.789062 19.457031 M 24.785156 19.304688 C 24.855469 19.332031 24.941406 19.328125 24.972656 19.296875 C 25.007812 19.265625 24.949219 19.242188 24.84375 19.246094 C 24.730469 19.25 24.707031 19.273438 24.785156 19.304688 M 19.472656 20.140625 L 19.289062 20.359375 L 19.507812 20.175781 C 19.714844 20 19.769531 19.921875 19.691406 19.921875 C 19.675781 19.921875 19.574219 20.019531 19.472656 20.140625 M 29.785156 21.324219 C 29.785156 21.347656 29.863281 21.421875 29.957031 21.496094 C 30.109375 21.617188 30.113281 21.613281 29.992188 21.460938 C 29.867188 21.296875 29.785156 21.246094 29.785156 21.324219 M 24.492188 22.136719 C 24.5625 22.164062 24.648438 22.160156 24.679688 22.128906 C 24.714844 22.097656 24.65625 22.074219 24.550781 22.078125 C 24.4375 22.082031 24.414062 22.105469 24.492188 22.136719 M 25.46875 22.136719 C 25.539062 22.164062 25.625 22.160156 25.65625 22.128906 C 25.691406 22.097656 25.632812 22.074219 25.527344 22.078125 C 25.414062 22.082031 25.390625 22.105469 25.46875 22.136719 M 18.5625 22.324219 C 18.566406 22.4375 18.589844 22.460938 18.621094 22.382812 C 18.648438 22.3125 18.644531 22.226562 18.613281 22.195312 C 18.582031 22.160156 18.558594 22.21875 18.5625 22.324219 M 22.988281 22.972656 L 22.804688 23.195312 L 23.023438 23.007812 C 23.230469 22.832031 23.285156 22.753906 23.207031 22.753906 C 23.191406 22.753906 23.089844 22.851562 22.988281 22.972656 M 18.464844 23.007812 C 18.46875 23.121094 18.492188 23.144531 18.523438 23.066406 C 18.550781 22.996094 18.546875 22.910156 18.515625 22.878906 C 18.484375 22.84375 18.460938 22.902344 18.464844 23.007812 M 22.304688 23.65625 L 22.117188 23.875 L 22.339844 23.691406 C 22.546875 23.515625 22.601562 23.4375 22.523438 23.4375 C 22.507812 23.4375 22.40625 23.535156 22.304688 23.65625 M 18.378906 23.875 C 18.378906 24.039062 18.402344 24.09375 18.425781 23.996094 C 18.453125 23.902344 18.449219 23.769531 18.421875 23.703125 C 18.398438 23.636719 18.375 23.714844 18.378906 23.875 M 17.390625 23.886719 C 17.394531 24 17.417969 24.023438 17.449219 23.945312 C 17.476562 23.875 17.472656 23.789062 17.441406 23.757812 C 17.410156 23.722656 17.386719 23.78125 17.390625 23.886719 M 28.328125 24.863281 C 28.332031 24.976562 28.355469 25 28.386719 24.921875 C 28.414062 24.851562 28.410156 24.765625 28.378906 24.734375 C 28.347656 24.699219 28.324219 24.757812 28.328125 24.863281 M 15.210938 25.265625 C 15.492188 25.285156 15.953125 25.285156 16.234375 25.265625 C 16.515625 25.246094 16.285156 25.230469 15.722656 25.230469 C 15.160156 25.230469 14.929688 25.246094 15.210938 25.265625 M 21.492188 25.644531 C 21.496094 25.757812 21.519531 25.78125 21.550781 25.703125 C 21.578125 25.632812 21.574219 25.546875 21.542969 25.515625 C 21.511719 25.480469 21.488281 25.539062 21.492188 25.644531 M 31.65625 25.683594 C 31.65625 25.816406 31.679688 25.871094 31.707031 25.804688 C 31.734375 25.738281 31.734375 25.628906 31.707031 25.5625 C 31.679688 25.496094 31.65625 25.550781 31.65625 25.683594 M 18.378906 26.023438 C 18.378906 26.1875 18.402344 26.242188 18.425781 26.144531 C 18.453125 26.050781 18.449219 25.917969 18.421875 25.851562 C 18.398438 25.785156 18.375 25.863281 18.378906 26.023438 M 28.335938 26.171875 C 28.335938 26.304688 28.359375 26.359375 28.386719 26.292969 C 28.414062 26.226562 28.414062 26.117188 28.386719 26.050781 C 28.359375 25.984375 28.335938 26.039062 28.335938 26.171875 M 12.96875 26.140625 C 13.039062 26.167969 13.125 26.164062 13.15625 26.132812 C 13.191406 26.101562 13.132812 26.078125 13.027344 26.082031 C 12.914062 26.085938 12.890625 26.109375 12.96875 26.140625 M 31.550781 26.230469 C 31.554688 26.34375 31.578125 26.367188 31.609375 26.289062 C 31.636719 26.21875 31.632812 26.132812 31.601562 26.101562 C 31.570312 26.066406 31.546875 26.125 31.550781 26.230469 M 32.988281 26.238281 C 33.058594 26.265625 33.144531 26.261719 33.175781 26.230469 C 33.210938 26.199219 33.152344 26.175781 33.046875 26.179688 C 32.933594 26.183594 32.910156 26.207031 32.988281 26.238281 M 35.527344 26.238281 C 35.597656 26.265625 35.683594 26.261719 35.714844 26.230469 C 35.75 26.199219 35.691406 26.175781 35.585938 26.179688 C 35.472656 26.183594 35.449219 26.207031 35.527344 26.238281 M 28.230469 26.71875 C 28.234375 26.832031 28.257812 26.855469 28.289062 26.777344 C 28.316406 26.707031 28.3125 26.621094 28.28125 26.589844 C 28.25 26.554688 28.226562 26.613281 28.230469 26.71875 M 22.363281 27.667969 C 22.363281 27.683594 22.507812 27.828125 22.679688 27.984375 L 23 28.273438 L 22.710938 27.953125 C 22.445312 27.660156 22.363281 27.59375 22.363281 27.667969 M 34.160156 28.191406 C 34.230469 28.21875 34.316406 28.214844 34.347656 28.183594 C 34.382812 28.152344 34.324219 28.128906 34.21875 28.132812 C 34.105469 28.136719 34.082031 28.160156 34.160156 28.191406 M 8.183594 28.777344 C 8.253906 28.804688 8.339844 28.800781 8.371094 28.769531 C 8.40625 28.738281 8.347656 28.714844 8.242188 28.71875 C 8.128906 28.722656 8.105469 28.746094 8.183594 28.777344 M 13.945312 28.777344 C 14.015625 28.804688 14.101562 28.800781 14.132812 28.769531 C 14.167969 28.738281 14.109375 28.714844 14.003906 28.71875 C 13.890625 28.722656 13.867188 28.746094 13.945312 28.777344 M 10.527344 28.878906 C 10.808594 28.902344 11.25 28.898438 11.503906 28.878906 C 11.753906 28.859375 11.523438 28.84375 10.984375 28.84375 C 10.449219 28.84375 10.242188 28.859375 10.527344 28.878906 M 19.53125 29.039062 C 19.53125 29.0625 19.609375 29.136719 19.703125 29.210938 C 19.855469 29.332031 19.859375 29.328125 19.738281 29.175781 C 19.613281 29.011719 19.53125 28.960938 19.53125 29.039062 M 25.175781 29.460938 C 25.246094 29.488281 25.332031 29.484375 25.363281 29.453125 C 25.398438 29.421875 25.339844 29.398438 25.234375 29.402344 C 25.121094 29.40625 25.097656 29.429688 25.175781 29.460938 M 20.507812 30.015625 C 20.507812 30.039062 20.585938 30.113281 20.679688 30.1875 C 20.832031 30.308594 20.835938 30.304688 20.714844 30.152344 C 20.589844 29.988281 20.507812 29.9375 20.507812 30.015625 M 28.804688 31.617188 L 28.273438 32.179688 L 28.832031 31.644531 C 29.140625 31.351562 29.394531 31.097656 29.394531 31.082031 C 29.394531 31.011719 29.300781 31.09375 28.804688 31.617188 M 25.953125 32.976562 C 26.019531 33 26.128906 33 26.195312 32.976562 C 26.261719 32.949219 26.207031 32.925781 26.074219 32.925781 C 25.941406 32.925781 25.886719 32.949219 25.953125 32.976562 M 34.765625 33.238281 C 34.765625 33.261719 34.84375 33.335938 34.9375 33.410156 C 35.089844 33.53125 35.09375 33.527344 34.972656 33.375 C 34.847656 33.210938 34.765625 33.160156 34.765625 33.238281 M 33.984375 33.824219 C 33.984375 33.847656 34.0625 33.921875 34.15625 33.996094 C 34.308594 34.117188 34.3125 34.113281 34.191406 33.960938 C 34.066406 33.796875 33.984375 33.746094 33.984375 33.824219 M 35.742188 34.214844 C 35.742188 34.238281 35.820312 34.3125 35.914062 34.386719 C 36.066406 34.507812 36.070312 34.503906 35.949219 34.351562 C 35.824219 34.1875 35.742188 34.136719 35.742188 34.214844 M 7.800781 34.449219 C 7.679688 34.601562 7.683594 34.605469 7.835938 34.484375 C 8 34.359375 8.050781 34.277344 7.972656 34.277344 C 7.949219 34.277344 7.875 34.355469 7.800781 34.449219 M 41.164062 35.253906 C 41.425781 35.523438 41.664062 35.742188 41.691406 35.742188 C 41.71875 35.742188 41.523438 35.523438 41.257812 35.253906 C 40.996094 34.984375 40.757812 34.765625 40.730469 34.765625 C 40.703125 34.765625 40.898438 34.984375 41.164062 35.253906 M 7.117188 35.132812 C 6.996094 35.285156 7 35.289062 7.152344 35.167969 C 7.316406 35.042969 7.367188 34.960938 7.289062 34.960938 C 7.265625 34.960938 7.191406 35.039062 7.117188 35.132812 M 40.410156 41.667969 C 40.480469 41.695312 40.566406 41.691406 40.597656 41.660156 C 40.632812 41.628906 40.574219 41.605469 40.46875 41.609375 C 40.355469 41.613281 40.332031 41.636719 40.410156 41.667969 M 20.300781 43.824219 C 20.179688 43.976562 20.183594 43.980469 20.335938 43.859375 C 20.5 43.734375 20.550781 43.652344 20.472656 43.652344 C 20.449219 43.652344 20.375 43.730469 20.300781 43.824219 M 12.605469 45.273438 C 12.609375 45.386719 12.632812 45.410156 12.664062 45.332031 C 12.691406 45.261719 12.6875 45.175781 12.65625 45.144531 C 12.625 45.109375 12.601562 45.167969 12.605469 45.273438 "/>
<path style=" stroke:none;fill-rule:evenodd;fill:rgb(100%,94.117647%,94.117647%);fill-opacity:1;" d="M 24.742188 23.148438 C 23.804688 23.34375 22.566406 24.742188 22.5625 25.613281 C 22.554688 26.3125 23.152344 27.140625 24.132812 27.789062 C 25.351562 28.601562 25.960938 28.636719 26.59375 27.9375 C 27.214844 27.25 27.578125 25.414062 27.257812 24.589844 C 26.910156 23.691406 25.636719 22.960938 24.742188 23.148438 "/>
</g>
</svg>
