<?xml version="1.0" encoding="UTF-8"?>
<svg xmlns="http://www.w3.org/2000/svg" xmlns:xlink="http://www.w3.org/1999/xlink" width="71px" height="71px" viewBox="0 0 71 71" version="1.1">
<g id="surface1">
<path style=" stroke:rgb(46.666667%,20%,24.313725%);stroke-width: 0.7;fill-rule:evenodd;fill:rgb(46.666667%,20%,24.313725%);fill-opacity:1;" d="M 14.695312 2.535156 C 12.453125 3.296875 10.878906 4.9375 10.207031 7.203125 C 10.007812 7.875 9.984375 9.734375 9.984375 25.054688 L 9.984375 42.15625 L 8.597656 42.15625 C 6.425781 42.15625 6.65625 40.886719 6.65625 52.890625 C 6.65625 62.613281 6.667969 63.105469 6.929688 63.949219 C 7.597656 66.117188 9.316406 67.835938 11.480469 68.507812 C 12.355469 68.777344 12.820312 68.78125 35.5 68.78125 C 58.179688 68.78125 58.644531 68.777344 59.519531 68.507812 C 61.683594 67.835938 63.402344 66.117188 64.070312 63.949219 C 64.332031 63.105469 64.34375 62.613281 64.34375 52.890625 C 64.34375 40.886719 64.574219 42.15625 62.402344 42.15625 L 61.015625 42.15625 L 61.015625 25.042969 C 61.015625 8.367188 61.007812 7.910156 60.742188 7.042969 C 60.222656 5.367188 58.875 3.726562 57.410156 2.980469 C 55.820312 2.175781 57.066406 2.21875 35.441406 2.222656 L 15.601562 2.226562 L 14.695312 2.535156 M 16.292969 4.574219 C 14.210938 4.886719 12.640625 6.507812 12.328125 8.664062 C 12.261719 9.121094 12.207031 16.847656 12.207031 25.828125 L 12.203125 42.15625 L 14.246094 42.15625 L 14.625 41.082031 C 16.90625 34.625 22.546875 29.34375 29.222656 27.421875 C 29.847656 27.242188 30.398438 27.054688 30.445312 27.011719 C 30.492188 26.964844 29.152344 25.253906 27.472656 23.207031 C 24.703125 19.835938 24.414062 19.433594 24.410156 18.960938 C 24.40625 18.578125 24.730469 17.789062 25.644531 15.964844 C 26.328125 14.601562 26.988281 13.449219 27.113281 13.398438 C 27.410156 13.285156 43.589844 13.285156 43.886719 13.398438 C 44.234375 13.535156 46.59375 18.339844 46.59375 18.917969 C 46.59375 19.414062 46.722656 19.242188 41.496094 25.621094 C 40.757812 26.523438 40.398438 27.0625 40.515625 27.09375 C 42.589844 27.703125 44.167969 28.273438 45.316406 28.835938 C 50.441406 31.34375 54.273438 35.5625 56.304688 40.941406 L 56.765625 42.15625 L 58.804688 42.15625 L 58.765625 25.203125 C 58.730469 8.84375 58.71875 8.230469 58.460938 7.625 C 57.875 6.257812 56.890625 5.273438 55.578125 4.746094 C 55.027344 4.523438 53.613281 4.503906 35.984375 4.488281 C 25.535156 4.476562 16.675781 4.515625 16.292969 4.574219 M 34.667969 6.933594 C 34.421875 7.179688 34.390625 7.394531 34.390625 8.875 C 34.390625 10.824219 34.527344 11.09375 35.5 11.09375 C 36.472656 11.09375 36.609375 10.824219 36.609375 8.875 C 36.609375 6.925781 36.472656 6.65625 35.5 6.65625 C 35.128906 6.65625 34.851562 6.75 34.667969 6.933594 M 24.128906 7.070312 C 23.640625 7.5625 23.710938 8.085938 24.441406 9.417969 C 25.175781 10.757812 25.386719 10.953125 26.070312 10.953125 C 26.789062 10.953125 27.179688 10.582031 27.179688 9.898438 C 27.179688 9.378906 26.277344 7.558594 25.769531 7.050781 C 25.417969 6.695312 24.492188 6.707031 24.128906 7.070312 M 45.230469 7.050781 C 44.722656 7.558594 43.820312 9.378906 43.820312 9.898438 C 43.820312 10.582031 44.210938 10.953125 44.929688 10.953125 C 45.617188 10.953125 45.820312 10.761719 46.570312 9.398438 C 47.226562 8.210938 47.316406 7.519531 46.871094 7.070312 C 46.507812 6.707031 45.582031 6.695312 45.230469 7.050781 M 27.972656 16.574219 C 27.6875 17.148438 27.457031 17.644531 27.457031 17.683594 C 27.457031 17.71875 28.097656 17.75 28.882812 17.75 L 30.308594 17.75 L 30.824219 16.707031 C 31.109375 16.132812 31.339844 15.636719 31.339844 15.597656 C 31.339844 15.5625 30.699219 15.53125 29.914062 15.53125 L 28.488281 15.53125 L 27.972656 16.574219 M 33.519531 16.574219 C 33.234375 17.148438 33.003906 17.644531 33.003906 17.683594 C 33.003906 17.71875 34.128906 17.75 35.5 17.75 C 36.871094 17.75 37.996094 17.71875 37.996094 17.683594 C 37.996094 17.644531 37.765625 17.148438 37.480469 16.574219 L 36.964844 15.53125 L 34.035156 15.53125 L 33.519531 16.574219 M 40.214844 16.640625 L 40.773438 17.75 L 42.15625 17.75 C 42.917969 17.75 43.542969 17.71875 43.542969 17.683594 C 43.542969 17.644531 43.3125 17.148438 43.027344 16.574219 L 42.511719 15.53125 L 39.65625 15.53125 L 40.214844 16.640625 M 28.179688 20.210938 C 28.292969 20.34375 29.523438 21.84375 30.910156 23.539062 L 33.433594 26.625 L 37.566406 26.625 L 40.089844 23.539062 C 41.476562 21.84375 42.707031 20.34375 42.820312 20.210938 C 43.019531 19.984375 42.960938 19.96875 41.796875 19.972656 L 40.5625 19.976562 L 38.6875 22.351562 C 36.171875 25.542969 36.199219 25.515625 35.53125 25.515625 C 34.878906 25.515625 34.894531 25.535156 32.242188 22.222656 L 30.4375 19.976562 L 29.203125 19.972656 C 28.039062 19.96875 27.980469 19.984375 28.179688 20.210938 M 33.65625 20.15625 C 33.859375 20.496094 35.429688 22.453125 35.5 22.453125 C 35.570312 22.453125 37.140625 20.496094 37.34375 20.15625 C 37.433594 20.003906 37.097656 19.96875 35.5 19.96875 C 33.902344 19.96875 33.566406 20.003906 33.65625 20.15625 M 34.007812 29 C 26.972656 29.511719 20.714844 33.730469 17.679688 40.007812 C 16.566406 42.304688 16.554688 42.15625 17.851562 42.15625 L 18.945312 42.15625 L 19.421875 41.15625 C 21.480469 36.84375 25.269531 33.496094 29.820312 31.976562 C 38.347656 29.121094 47.71875 33.078125 51.578125 41.15625 L 52.054688 42.15625 L 53.148438 42.15625 C 54.445312 42.15625 54.433594 42.304688 53.320312 40.007812 C 51.519531 36.277344 48.472656 33.148438 44.773438 31.210938 C 42.429688 29.984375 39.726562 29.199219 37.351562 29.046875 C 36.675781 29.003906 35.96875 28.953125 35.777344 28.933594 C 35.585938 28.910156 34.789062 28.941406 34.007812 29 M 32.71875 33.632812 C 29.425781 34.230469 25.964844 36.21875 23.835938 38.738281 C 23.054688 39.660156 21.632812 41.796875 21.632812 42.046875 C 21.632812 42.105469 23.382812 42.15625 25.519531 42.15625 C 29.074219 42.15625 29.453125 42.179688 29.925781 42.421875 C 30.667969 42.804688 31.171875 43.394531 31.542969 44.320312 C 31.742188 44.8125 32 45.207031 32.195312 45.308594 C 32.648438 45.550781 38.351562 45.550781 38.804688 45.308594 C 39 45.207031 39.257812 44.8125 39.457031 44.320312 C 39.828125 43.394531 40.332031 42.804688 41.074219 42.421875 C 41.546875 42.179688 41.925781 42.15625 45.480469 42.15625 C 47.617188 42.15625 49.367188 42.105469 49.367188 42.046875 C 49.367188 41.796875 47.945312 39.660156 47.164062 38.738281 C 44.996094 36.171875 41.550781 34.214844 38.167969 33.625 C 36.726562 33.375 34.132812 33.378906 32.71875 33.632812 M 8.902344 53.5625 C 8.941406 62.257812 8.957031 62.78125 9.210938 63.375 C 9.8125 64.785156 10.75 65.703125 12.132812 66.230469 C 12.804688 66.484375 13.554688 66.492188 35.570312 66.492188 L 58.3125 66.492188 L 59.226562 66.058594 C 60.804688 65.3125 61.75 64.042969 62 62.335938 C 62.066406 61.878906 62.121094 57.648438 62.121094 52.9375 L 62.125 44.375 L 52.3125 44.378906 C 44.796875 44.378906 42.425781 44.417969 42.179688 44.550781 C 41.984375 44.652344 41.726562 45.046875 41.527344 45.539062 C 41.140625 46.503906 40.632812 47.085938 39.867188 47.441406 C 39.371094 47.671875 38.914062 47.699219 35.460938 47.699219 C 31.9375 47.703125 31.5625 47.679688 31.089844 47.4375 C 30.347656 47.054688 29.84375 46.464844 29.472656 45.539062 C 29.273438 45.046875 29.015625 44.652344 28.820312 44.550781 C 28.574219 44.417969 26.199219 44.378906 18.679688 44.378906 L 8.859375 44.375 L 8.902344 53.5625 "/>
</g>
</svg>
