<?xml version="1.0" encoding="UTF-8"?>
<svg xmlns="http://www.w3.org/2000/svg" xmlns:xlink="http://www.w3.org/1999/xlink" width="45px" height="45px" viewBox="0 0 45 45" version="1.1">
<g id="surface1">
<path style=" stroke:none;fill-rule:evenodd;fill:rgb(20.392157%,83.921569%,11.764706%);fill-opacity:1;" d="M 19.644531 0.132812 C 9.417969 1.464844 1.394531 9.507812 0.136719 19.691406 C -0.0429688 21.113281 -0.0429688 23.886719 0.136719 25.308594 C 0.769531 30.425781 3.082031 35.046875 6.824219 38.675781 C 10.128906 41.878906 14.074219 43.894531 18.632812 44.707031 C 20.363281 45.015625 23.46875 45.09375 25.234375 44.871094 C 32.421875 43.96875 38.546875 39.867188 42.179688 33.515625 C 43.496094 31.214844 44.53125 28.089844 44.824219 25.53125 C 44.882812 25.046875 44.964844 24.585938 45.007812 24.5 C 45.105469 24.316406 45.117188 20.363281 45.019531 20.421875 C 44.980469 20.445312 44.898438 20.042969 44.839844 19.527344 C 44.613281 17.609375 43.949219 15.230469 43.117188 13.359375 C 39.902344 6.136719 33.121094 1.101562 25.308594 0.136719 C 23.980469 -0.03125 20.90625 -0.03125 19.644531 0.132812 M 20.472656 8.566406 C 17.316406 9.082031 14.710938 10.417969 12.5625 12.628906 C 10.839844 14.398438 9.847656 16.058594 9.144531 18.355469 C 8.691406 19.835938 8.578125 20.628906 8.578125 22.367188 C 8.574219 24.554688 8.878906 26.09375 9.683594 27.925781 L 10.035156 28.738281 L 9.285156 32.394531 C 8.511719 36.148438 8.496094 36.277344 8.824219 36.496094 C 9.007812 36.617188 9.316406 36.558594 12.789062 35.734375 L 16.277344 34.910156 L 16.835938 35.160156 C 21.613281 37.300781 27.285156 36.515625 31.421875 33.132812 C 33.832031 31.164062 35.527344 28.304688 36.21875 25.046875 C 36.507812 23.703125 36.511719 21.199219 36.234375 19.8125 C 35.082031 14.125 30.855469 9.847656 25.234375 8.6875 C 24.109375 8.457031 21.542969 8.390625 20.472656 8.566406 M 20.882812 11.605469 C 16.851562 12.238281 13.457031 15.085938 12.183594 18.898438 C 11.769531 20.144531 11.648438 20.949219 11.648438 22.414062 C 11.65625 24.367188 11.984375 25.738281 12.886719 27.53125 L 13.269531 28.296875 L 12.832031 30.421875 C 12.589844 31.59375 12.414062 32.570312 12.433594 32.589844 C 12.457031 32.613281 13.421875 32.40625 14.582031 32.132812 L 16.6875 31.632812 L 17.460938 32.019531 C 19.179688 32.882812 20.640625 33.234375 22.496094 33.230469 C 23.785156 33.230469 24.699219 33.09375 25.878906 32.722656 C 29.035156 31.730469 31.644531 29.1875 32.761719 26.015625 C 33.214844 24.738281 33.347656 23.921875 33.351562 22.414062 C 33.355469 20.5625 33.0625 19.230469 32.304688 17.640625 C 31.179688 15.28125 28.96875 13.214844 26.597656 12.296875 C 25.191406 11.753906 24.347656 11.589844 22.808594 11.554688 C 22.035156 11.539062 21.167969 11.558594 20.882812 11.605469 M 17.355469 15.800781 C 16.925781 16.074219 16.058594 17.078125 15.78125 17.632812 C 15.472656 18.242188 15.382812 19.265625 15.554688 20.152344 C 15.882812 21.835938 16.84375 23.367188 18.753906 25.269531 C 21.308594 27.804688 23.566406 29.042969 25.839844 29.15625 C 27.636719 29.246094 28.667969 28.71875 29.6875 27.183594 C 30.132812 26.515625 30.085938 25.898438 29.5625 25.535156 C 29.335938 25.378906 26.605469 24.609375 26.277344 24.609375 C 25.902344 24.609375 25.707031 24.726562 25.078125 25.324219 C 24.460938 25.914062 24.230469 25.964844 23.617188 25.652344 C 22.621094 25.144531 21.066406 23.867188 19.984375 22.667969 C 18.980469 21.554688 18.882812 21.203125 19.382812 20.511719 C 19.957031 19.714844 20.039062 19.554688 20.039062 19.234375 C 20.039062 18.847656 18.898438 16.226562 18.59375 15.921875 C 18.3125 15.632812 17.714844 15.578125 17.355469 15.800781 M 0.0390625 22.5 C 0.0390625 23.636719 0.0507812 24.101562 0.0664062 23.53125 C 0.0820312 22.964844 0.0820312 22.035156 0.0664062 21.46875 C 0.0507812 20.898438 0.0390625 21.363281 0.0390625 22.5 "/>
<path style=" stroke:none;fill-rule:evenodd;fill:rgb(81.176471%,92.54902%,80%);fill-opacity:1;" d="M 21.050781 8.519531 C 13.511719 9.398438 8.007812 16 8.609375 23.433594 C 8.746094 25.109375 9.222656 26.980469 9.808594 28.144531 C 9.925781 28.371094 10.019531 28.65625 10.019531 28.777344 C 10.019531 28.898438 9.703125 30.53125 9.316406 32.402344 C 8.929688 34.277344 8.613281 35.921875 8.613281 36.054688 C 8.613281 36.214844 8.6875 36.34375 8.832031 36.4375 C 9.042969 36.578125 9.203125 36.546875 12.664062 35.730469 L 16.273438 34.875 L 16.992188 35.183594 C 18.964844 36.023438 20.160156 36.253906 22.542969 36.25 C 24.601562 36.246094 25.28125 36.140625 27.023438 35.558594 C 31.097656 34.195312 34.40625 30.828125 35.761719 26.660156 C 37.371094 21.722656 36.042969 16.246094 32.347656 12.570312 C 31.101562 11.328125 30.101562 10.609375 28.609375 9.886719 C 27.308594 9.253906 26.457031 8.96875 25.085938 8.703125 C 24.011719 8.496094 22.027344 8.40625 21.050781 8.519531 M 21.324219 11.523438 C 17.746094 11.898438 14.484375 14.128906 12.832031 17.324219 C 11.980469 18.976562 11.601562 20.527344 11.601562 22.367188 C 11.601562 24.160156 11.96875 25.710938 12.8125 27.457031 L 13.230469 28.328125 L 12.785156 30.492188 C 12.539062 31.679688 12.359375 32.660156 12.386719 32.667969 C 12.414062 32.679688 13.386719 32.457031 14.546875 32.179688 L 16.65625 31.667969 L 17.402344 32.039062 C 18.34375 32.507812 19.429688 32.894531 20.390625 33.097656 C 21.421875 33.320312 23.582031 33.324219 24.582031 33.109375 C 29.140625 32.128906 32.480469 28.707031 33.265625 24.203125 C 33.4375 23.222656 33.433594 21.503906 33.261719 20.511719 C 32.421875 15.699219 28.453125 12.019531 23.550781 11.515625 C 22.558594 11.414062 22.328125 11.417969 21.324219 11.523438 M 17.519531 15.769531 C 17.148438 15.9375 16.285156 16.835938 15.921875 17.433594 C 15.136719 18.738281 15.421875 20.757812 16.679688 22.753906 C 18.007812 24.855469 20.566406 27.171875 22.808594 28.289062 C 24.011719 28.890625 24.921875 29.117188 26.148438 29.121094 C 27.027344 29.121094 27.285156 29.089844 27.695312 28.929688 C 28.671875 28.546875 29.96875 27.078125 29.96875 26.347656 C 29.96875 26.070312 29.914062 25.941406 29.683594 25.71875 C 29.441406 25.476562 29.179688 25.375 27.867188 25.015625 C 26.851562 24.734375 26.25 24.609375 26.078125 24.644531 C 25.925781 24.675781 25.566406 24.933594 25.210938 25.269531 C 24.660156 25.789062 24.570312 25.839844 24.234375 25.839844 C 23.574219 25.835938 22.320312 24.992188 20.738281 23.488281 C 19.046875 21.878906 18.765625 21.246094 19.386719 20.429688 C 19.871094 19.796875 20.039062 19.488281 20.039062 19.234375 C 20.039062 18.863281 18.738281 16.027344 18.492188 15.867188 C 18.179688 15.664062 17.835938 15.628906 17.519531 15.769531 "/>
<path style=" stroke:none;fill-rule:evenodd;fill:rgb(47.843137%,78.431373%,43.921569%);fill-opacity:1;" d="M 21.292969 8.5 C 21.378906 8.519531 21.496094 8.519531 21.558594 8.496094 C 21.617188 8.472656 21.546875 8.453125 21.402344 8.453125 C 21.257812 8.457031 21.207031 8.476562 21.292969 8.5 M 23.492188 8.5 C 23.574219 8.519531 23.695312 8.519531 23.753906 8.496094 C 23.8125 8.472656 23.742188 8.453125 23.597656 8.453125 C 23.453125 8.457031 23.40625 8.476562 23.492188 8.5 M 22.214844 11.488281 C 22.371094 11.507812 22.628906 11.507812 22.785156 11.488281 C 22.941406 11.46875 22.8125 11.453125 22.5 11.453125 C 22.1875 11.453125 22.058594 11.46875 22.214844 11.488281 M 21.070312 11.570312 C 21.132812 11.597656 21.230469 11.597656 21.292969 11.570312 C 21.351562 11.546875 21.300781 11.527344 21.179688 11.527344 C 21.0625 11.527344 21.011719 11.546875 21.070312 11.570312 M 23.707031 11.570312 C 23.769531 11.597656 23.867188 11.597656 23.929688 11.570312 C 23.988281 11.546875 23.9375 11.527344 23.820312 11.527344 C 23.699219 11.527344 23.648438 11.546875 23.707031 11.570312 M 13.4375 11.753906 C 13.328125 11.894531 13.328125 11.898438 13.46875 11.789062 C 13.617188 11.671875 13.664062 11.601562 13.589844 11.601562 C 13.570312 11.601562 13.503906 11.671875 13.4375 11.753906 M 31.375 11.636719 C 31.375 11.652344 31.445312 11.722656 31.53125 11.789062 C 31.671875 11.898438 31.671875 11.894531 31.5625 11.753906 C 31.449219 11.609375 31.375 11.5625 31.375 11.636719 M 32.34375 12.523438 C 32.507812 12.695312 32.660156 12.832031 32.6875 12.832031 C 32.710938 12.832031 32.59375 12.695312 32.429688 12.523438 C 32.269531 12.355469 32.113281 12.21875 32.089844 12.21875 C 32.066406 12.21875 32.179688 12.355469 32.34375 12.523438 M 33.046875 13.304688 C 33.046875 13.324219 33.117188 13.390625 33.199219 13.457031 C 33.339844 13.566406 33.34375 13.566406 33.234375 13.425781 C 33.117188 13.277344 33.046875 13.230469 33.046875 13.304688 M 29.265625 13.832031 C 29.265625 13.851562 29.335938 13.917969 29.421875 13.984375 C 29.5625 14.09375 29.5625 14.09375 29.453125 13.953125 C 29.339844 13.804688 29.265625 13.757812 29.265625 13.832031 M 29.96875 14.441406 C 29.96875 14.457031 30.097656 14.585938 30.257812 14.726562 L 30.542969 14.984375 L 30.285156 14.699219 C 30.042969 14.433594 29.96875 14.375 29.96875 14.441406 M 14.671875 14.742188 L 14.457031 14.984375 L 14.699219 14.773438 C 14.832031 14.65625 14.941406 14.546875 14.941406 14.53125 C 14.941406 14.460938 14.871094 14.519531 14.671875 14.742188 M 17.085938 16.019531 L 16.917969 16.214844 L 17.117188 16.046875 C 17.300781 15.890625 17.355469 15.820312 17.285156 15.820312 C 17.265625 15.820312 17.179688 15.910156 17.085938 16.019531 M 16.382812 16.722656 L 16.214844 16.917969 L 16.414062 16.75 C 16.597656 16.59375 16.652344 16.523438 16.582031 16.523438 C 16.5625 16.523438 16.476562 16.613281 16.382812 16.722656 M 15.476562 19.828125 C 15.480469 19.929688 15.5 19.949219 15.527344 19.878906 C 15.554688 19.816406 15.550781 19.742188 15.523438 19.710938 C 15.492188 19.683594 15.472656 19.734375 15.476562 19.828125 M 8.621094 20.617188 C 8.625 20.71875 8.644531 20.742188 8.671875 20.671875 C 8.699219 20.605469 8.695312 20.53125 8.667969 20.503906 C 8.636719 20.472656 8.617188 20.523438 8.621094 20.617188 M 11.695312 20.617188 C 11.699219 20.71875 11.722656 20.742188 11.75 20.671875 C 11.773438 20.605469 11.773438 20.53125 11.742188 20.503906 C 11.714844 20.472656 11.691406 20.523438 11.695312 20.617188 M 33.230469 20.617188 C 33.234375 20.71875 33.253906 20.742188 33.28125 20.671875 C 33.308594 20.605469 33.304688 20.53125 33.277344 20.503906 C 33.246094 20.472656 33.226562 20.523438 33.230469 20.617188 M 36.304688 20.617188 C 36.308594 20.71875 36.332031 20.742188 36.359375 20.671875 C 36.382812 20.605469 36.382812 20.53125 36.351562 20.503906 C 36.324219 20.472656 36.300781 20.523438 36.304688 20.617188 M 11.617188 21.269531 C 11.617188 21.390625 11.636719 21.441406 11.660156 21.378906 C 11.683594 21.320312 11.683594 21.21875 11.660156 21.160156 C 11.636719 21.097656 11.617188 21.148438 11.617188 21.269531 M 33.324219 21.269531 C 33.324219 21.390625 33.34375 21.441406 33.367188 21.378906 C 33.394531 21.320312 33.394531 21.21875 33.367188 21.160156 C 33.34375 21.097656 33.324219 21.148438 33.324219 21.269531 M 36.410156 21.578125 C 36.410156 21.769531 36.429688 21.839844 36.449219 21.730469 C 36.46875 21.621094 36.46875 21.460938 36.445312 21.378906 C 36.425781 21.292969 36.40625 21.382812 36.410156 21.578125 M 8.546875 21.621094 C 8.546875 21.789062 8.5625 21.859375 8.585938 21.773438 C 8.609375 21.691406 8.609375 21.550781 8.585938 21.46875 C 8.5625 21.382812 8.546875 21.453125 8.546875 21.621094 M 19.953125 22.71875 C 20.113281 22.890625 20.269531 23.027344 20.292969 23.027344 C 20.316406 23.027344 20.203125 22.890625 20.039062 22.71875 C 19.875 22.550781 19.722656 22.414062 19.695312 22.414062 C 19.671875 22.414062 19.789062 22.550781 19.953125 22.71875 M 8.546875 23.160156 C 8.546875 23.351562 8.566406 23.421875 8.585938 23.3125 C 8.609375 23.203125 8.609375 23.042969 8.585938 22.960938 C 8.5625 22.875 8.546875 22.964844 8.546875 23.160156 M 36.410156 23.160156 C 36.410156 23.351562 36.429688 23.421875 36.449219 23.3125 C 36.46875 23.203125 36.46875 23.042969 36.445312 22.960938 C 36.425781 22.875 36.40625 22.964844 36.410156 23.160156 M 11.617188 23.46875 C 11.617188 23.585938 11.636719 23.636719 11.660156 23.578125 C 11.683594 23.515625 11.683594 23.417969 11.660156 23.355469 C 11.636719 23.296875 11.617188 23.347656 11.617188 23.46875 M 33.324219 23.46875 C 33.324219 23.585938 33.34375 23.636719 33.367188 23.578125 C 33.394531 23.515625 33.394531 23.417969 33.367188 23.355469 C 33.34375 23.296875 33.324219 23.347656 33.324219 23.46875 M 20.742188 23.496094 C 20.742188 23.507812 20.871094 23.636719 21.027344 23.78125 L 21.3125 24.039062 L 21.054688 23.753906 C 20.816406 23.484375 20.742188 23.425781 20.742188 23.496094 M 36.3125 24.171875 C 36.3125 24.289062 36.332031 24.339844 36.355469 24.28125 C 36.382812 24.21875 36.382812 24.121094 36.355469 24.058594 C 36.332031 24 36.3125 24.050781 36.3125 24.171875 M 17.796875 24.34375 C 17.886719 24.441406 17.976562 24.523438 18 24.523438 C 18.023438 24.523438 17.972656 24.441406 17.886719 24.34375 C 17.796875 24.25 17.707031 24.171875 17.683594 24.171875 C 17.660156 24.171875 17.710938 24.25 17.796875 24.34375 M 21.664062 24.34375 C 21.753906 24.441406 21.84375 24.523438 21.867188 24.523438 C 21.890625 24.523438 21.839844 24.441406 21.753906 24.34375 C 21.664062 24.25 21.574219 24.171875 21.550781 24.171875 C 21.527344 24.171875 21.578125 24.25 21.664062 24.34375 M 36.21875 24.75 C 36.222656 24.851562 36.242188 24.871094 36.269531 24.800781 C 36.296875 24.738281 36.292969 24.664062 36.265625 24.632812 C 36.234375 24.605469 36.214844 24.65625 36.21875 24.75 M 25.175781 25.246094 L 24.742188 25.707031 L 25.203125 25.273438 C 25.457031 25.03125 25.664062 24.824219 25.664062 24.808594 C 25.664062 24.746094 25.582031 24.816406 25.175781 25.246094 M 19.46875 26.015625 C 19.554688 26.113281 19.648438 26.191406 19.671875 26.191406 C 19.695312 26.191406 19.644531 26.113281 19.554688 26.015625 C 19.46875 25.917969 19.375 25.839844 19.351562 25.839844 C 19.328125 25.839844 19.378906 25.917969 19.46875 26.015625 M 20.039062 26.488281 C 20.039062 26.507812 20.109375 26.574219 20.191406 26.640625 C 20.332031 26.75 20.335938 26.75 20.226562 26.609375 C 20.109375 26.460938 20.039062 26.414062 20.039062 26.488281 M 28.863281 28.148438 L 28.695312 28.34375 L 28.894531 28.175781 C 29.078125 28.019531 29.132812 27.949219 29.0625 27.949219 C 29.042969 27.949219 28.957031 28.039062 28.863281 28.148438 M 25.382812 29.152344 C 25.449219 29.175781 25.523438 29.175781 25.550781 29.144531 C 25.582031 29.117188 25.53125 29.09375 25.4375 29.097656 C 25.335938 29.101562 25.3125 29.125 25.382812 29.152344 M 26.789062 29.152344 C 26.855469 29.175781 26.929688 29.175781 26.957031 29.144531 C 26.988281 29.117188 26.9375 29.09375 26.84375 29.097656 C 26.742188 29.101562 26.71875 29.125 26.789062 29.152344 M 30.492188 29.773438 L 30.277344 30.015625 L 30.519531 29.800781 C 30.652344 29.683594 30.761719 29.574219 30.761719 29.558594 C 30.761719 29.492188 30.691406 29.546875 30.492188 29.773438 M 29.789062 30.476562 L 29.574219 30.71875 L 29.816406 30.503906 C 29.949219 30.386719 30.058594 30.277344 30.058594 30.261719 C 30.058594 30.195312 29.988281 30.25 29.789062 30.476562 M 33.300781 31.179688 C 33.191406 31.320312 33.191406 31.320312 33.332031 31.210938 C 33.417969 31.144531 33.484375 31.078125 33.484375 31.058594 C 33.484375 30.984375 33.414062 31.03125 33.300781 31.179688 M 32.734375 31.839844 L 32.476562 32.125 L 32.761719 31.867188 C 32.917969 31.722656 33.046875 31.59375 33.046875 31.582031 C 33.046875 31.511719 32.972656 31.570312 32.734375 31.839844 M 31.855469 32.71875 L 31.597656 33.003906 L 31.882812 32.746094 C 32.148438 32.503906 32.207031 32.429688 32.140625 32.429688 C 32.125 32.429688 31.996094 32.558594 31.855469 32.71875 M 12.375 32.667969 C 12.441406 32.691406 12.515625 32.691406 12.542969 32.660156 C 12.574219 32.632812 12.523438 32.609375 12.429688 32.613281 C 12.328125 32.617188 12.304688 32.640625 12.375 32.667969 M 24.503906 33.105469 C 24.570312 33.132812 24.644531 33.128906 24.671875 33.101562 C 24.703125 33.070312 24.652344 33.050781 24.558594 33.054688 C 24.457031 33.058594 24.433594 33.078125 24.503906 33.105469 M 20.902344 33.195312 C 20.964844 33.21875 21.039062 33.21875 21.070312 33.1875 C 21.097656 33.160156 21.046875 33.136719 20.953125 33.140625 C 20.851562 33.144531 20.832031 33.167969 20.902344 33.195312 M 23.976562 33.195312 C 24.042969 33.21875 24.117188 33.21875 24.144531 33.1875 C 24.175781 33.160156 24.125 33.136719 24.03125 33.140625 C 23.929688 33.144531 23.90625 33.167969 23.976562 33.195312 M 21.820312 33.285156 C 21.953125 33.304688 22.152344 33.304688 22.257812 33.285156 C 22.367188 33.265625 22.257812 33.246094 22.015625 33.246094 C 21.773438 33.25 21.6875 33.265625 21.820312 33.285156 M 22.875 33.285156 C 23.007812 33.304688 23.207031 33.304688 23.3125 33.285156 C 23.421875 33.265625 23.3125 33.246094 23.070312 33.246094 C 22.828125 33.25 22.742188 33.265625 22.875 33.285156 M 8.53125 36 C 8.535156 36.101562 8.558594 36.121094 8.585938 36.050781 C 8.609375 35.988281 8.609375 35.914062 8.578125 35.882812 C 8.550781 35.855469 8.527344 35.90625 8.53125 36 M 20.808594 36.269531 C 20.867188 36.292969 20.96875 36.292969 21.027344 36.269531 C 21.089844 36.246094 21.039062 36.226562 20.917969 36.226562 C 20.796875 36.226562 20.746094 36.246094 20.808594 36.269531 M 23.976562 36.269531 C 24.042969 36.296875 24.117188 36.292969 24.144531 36.265625 C 24.175781 36.234375 24.125 36.214844 24.03125 36.21875 C 23.929688 36.222656 23.90625 36.242188 23.976562 36.269531 M 22.125 36.363281 C 22.332031 36.382812 22.667969 36.382812 22.875 36.363281 C 23.078125 36.34375 22.910156 36.328125 22.5 36.328125 C 22.089844 36.328125 21.921875 36.34375 22.125 36.363281 "/>
</g>
</svg>
