<?xml version="1.0" encoding="UTF-8"?>
<svg xmlns="http://www.w3.org/2000/svg" xmlns:xlink="http://www.w3.org/1999/xlink" width="71px" height="71px" viewBox="0 0 71 71" version="1.1">
<g id="surface1">
<path style=" stroke:rgb(46.666667%,20%,24.313725%);stroke-width: 0.7;fill-rule:evenodd;fill:rgb(46.666667%,20%,24.313725%);fill-opacity:1;" d="M 33.558594 0.199219 C 32.605469 0.464844 31.609375 1.019531 30.558594 1.867188 C 28.320312 3.679688 25.574219 4.378906 22.691406 3.875 C 18.996094 3.230469 15.609375 5.261719 14.414062 8.832031 C 14.257812 9.304688 13.882812 10.070312 13.585938 10.53125 C 12.375 12.398438 10.929688 13.566406 8.675781 14.484375 C 7.886719 14.808594 6.984375 15.269531 6.679688 15.515625 C 4.640625 17.125 3.585938 19.40625 3.796875 21.730469 C 4.066406 24.6875 4.0625 25.578125 3.765625 26.738281 C 3.386719 28.238281 2.8125 29.394531 1.867188 30.558594 C 0.484375 32.265625 0.00390625 33.542969 0.00390625 35.5 C 0.00390625 37.457031 0.484375 38.734375 1.867188 40.441406 C 2.789062 41.574219 3.339844 42.667969 3.75 44.164062 C 4.066406 45.300781 4.070312 45.882812 3.796875 49.378906 C 3.621094 51.664062 4.675781 53.898438 6.679688 55.484375 C 6.984375 55.730469 7.886719 56.191406 8.675781 56.515625 C 11.601562 57.707031 13.382812 59.484375 14.480469 62.304688 C 15.054688 63.785156 15.273438 64.140625 16.152344 65.046875 C 17.867188 66.816406 20.203125 67.558594 22.691406 67.125 C 25.574219 66.621094 28.320312 67.320312 30.558594 69.132812 C 32.269531 70.515625 33.546875 70.996094 35.5 70.996094 C 37.453125 70.996094 38.730469 70.515625 40.441406 69.132812 C 42.679688 67.320312 45.425781 66.621094 48.308594 67.125 C 50.796875 67.558594 53.132812 66.816406 54.847656 65.046875 C 55.726562 64.140625 55.945312 63.785156 56.519531 62.304688 C 57.617188 59.484375 59.398438 57.707031 62.324219 56.515625 C 63.113281 56.191406 64.015625 55.730469 64.320312 55.484375 C 66.324219 53.898438 67.378906 51.664062 67.203125 49.378906 C 66.929688 45.882812 66.933594 45.300781 67.25 44.164062 C 67.660156 42.667969 68.210938 41.574219 69.132812 40.4375 C 69.992188 39.378906 70.652344 38.175781 70.796875 37.398438 C 70.847656 37.113281 70.949219 36.847656 71.015625 36.808594 C 71.082031 36.765625 71.140625 36.109375 71.140625 35.34375 C 71.140625 34.570312 71.085938 33.992188 71.015625 34.035156 C 70.949219 34.078125 70.847656 33.882812 70.796875 33.601562 C 70.652344 32.824219 69.992188 31.621094 69.132812 30.5625 C 68.210938 29.425781 67.660156 28.332031 67.25 26.835938 C 66.933594 25.699219 66.929688 25.117188 67.203125 21.621094 C 67.378906 19.335938 66.324219 17.101562 64.320312 15.515625 C 64.015625 15.269531 63.113281 14.808594 62.324219 14.484375 C 59.398438 13.292969 57.617188 11.515625 56.519531 8.695312 C 55.945312 7.214844 55.726562 6.859375 54.847656 5.953125 C 53.132812 4.183594 50.796875 3.441406 48.308594 3.875 C 45.425781 4.378906 42.679688 3.679688 40.441406 1.867188 C 39.359375 0.992188 38.382812 0.460938 37.371094 0.1875 C 36.515625 -0.0390625 34.398438 -0.0351562 33.558594 0.199219 M 34.382812 3.175781 C 33.777344 3.371094 33.382812 3.617188 32.449219 4.371094 C 30.761719 5.738281 28.804688 6.605469 26.503906 7.007812 C 25.019531 7.265625 24.089844 7.261719 22.546875 6.992188 C 21.179688 6.753906 20.476562 6.816406 19.625 7.246094 C 18.390625 7.871094 17.886719 8.460938 17.34375 9.914062 C 16.039062 13.417969 13.394531 16.039062 9.789062 17.394531 C 9.292969 17.582031 8.691406 17.875 8.457031 18.050781 C 7.867188 18.484375 7.242188 19.464844 6.984375 20.363281 C 6.785156 21.046875 6.785156 21.238281 7.003906 22.652344 C 7.546875 26.167969 6.597656 29.699219 4.371094 32.449219 C 3.246094 33.839844 3.121094 34.140625 3.121094 35.5 C 3.121094 36.875 3.234375 37.136719 4.460938 38.671875 C 6.621094 41.363281 7.542969 44.867188 7.003906 48.347656 C 6.785156 49.761719 6.785156 49.953125 6.984375 50.636719 C 7.238281 51.515625 7.867188 52.515625 8.417969 52.914062 C 8.628906 53.074219 9.398438 53.4375 10.125 53.730469 C 13.566406 55.117188 16.074219 57.679688 17.355469 61.117188 C 17.886719 62.539062 18.398438 63.132812 19.625 63.753906 C 20.476562 64.183594 21.179688 64.246094 22.546875 64.007812 C 24.089844 63.738281 25.019531 63.734375 26.503906 63.992188 C 28.804688 64.394531 30.765625 65.265625 32.449219 66.628906 C 33.839844 67.753906 34.140625 67.878906 35.5 67.878906 C 36.859375 67.878906 37.160156 67.753906 38.550781 66.628906 C 40.234375 65.265625 42.195312 64.394531 44.496094 63.992188 C 45.980469 63.734375 46.910156 63.738281 48.453125 64.007812 C 49.859375 64.25 50.53125 64.183594 51.445312 63.707031 C 52.648438 63.082031 53.128906 62.476562 53.800781 60.738281 C 54.398438 59.195312 55.285156 57.859375 56.574219 56.574219 C 57.871094 55.277344 59.171875 54.417969 60.875 53.730469 C 61.601562 53.4375 62.371094 53.074219 62.582031 52.914062 C 63.132812 52.515625 63.761719 51.515625 64.015625 50.636719 C 64.214844 49.953125 64.214844 49.761719 63.996094 48.347656 C 63.457031 44.867188 64.378906 41.363281 66.539062 38.671875 C 67.765625 37.136719 67.878906 36.875 67.878906 35.5 C 67.878906 34.140625 67.753906 33.839844 66.628906 32.449219 C 64.410156 29.707031 63.449219 26.152344 63.992188 22.6875 C 64.257812 20.984375 64.183594 20.410156 63.542969 19.230469 C 63.082031 18.382812 62.394531 17.839844 61.230469 17.402344 C 59.75 16.84375 58.765625 16.296875 57.648438 15.40625 C 55.875 14 54.59375 12.285156 53.796875 10.261719 C 53.066406 8.398438 52.664062 7.902344 51.375 7.246094 C 50.523438 6.816406 49.820312 6.753906 48.453125 6.992188 C 46.910156 7.261719 45.980469 7.265625 44.496094 7.007812 C 42.195312 6.605469 40.234375 5.734375 38.550781 4.371094 C 38.054688 3.96875 37.429688 3.527344 37.164062 3.394531 C 36.625 3.117188 34.957031 2.988281 34.382812 3.175781 M 25.03125 19.34375 C 23.878906 19.597656 23.09375 19.964844 22.109375 20.707031 C 19.988281 22.304688 18.847656 25.082031 19.25 27.664062 C 20.125 33.304688 26.550781 35.980469 31.078125 32.585938 C 33.257812 30.957031 34.40625 28.199219 34 25.585938 C 33.328125 21.242188 29.253906 18.410156 25.03125 19.34375 M 49.800781 19.238281 C 49.589844 19.277344 43.96875 24.824219 34.40625 34.417969 C 22.5625 46.304688 19.320312 49.632812 19.230469 49.996094 C 18.972656 51.019531 19.949219 51.984375 21.035156 51.78125 C 21.484375 51.695312 23.339844 49.882812 36.601562 36.574219 C 48.4375 24.695312 51.679688 21.367188 51.769531 21.003906 C 51.929688 20.375 51.570312 19.644531 50.964844 19.355469 C 50.5 19.132812 50.394531 19.125 49.800781 19.238281 M 24.992188 22.621094 C 24 23.003906 22.992188 24.023438 22.617188 25.03125 C 22 26.671875 22.371094 28.460938 23.582031 29.667969 C 26.285156 32.375 30.921875 30.453125 30.921875 26.625 C 30.921875 23.574219 27.875 21.515625 24.992188 22.621094 M 0.0507812 35.5 C 0.0507812 36.300781 0.0742188 36.628906 0.101562 36.226562 C 0.128906 35.828125 0.128906 35.171875 0.101562 34.773438 C 0.0742188 34.371094 0.0507812 34.699219 0.0507812 35.5 M 42.78125 37.09375 C 41.628906 37.347656 40.84375 37.714844 39.859375 38.457031 C 37.738281 40.054688 36.597656 42.832031 37 45.414062 C 37.875 51.054688 44.300781 53.730469 48.828125 50.335938 C 51.007812 48.707031 52.15625 45.949219 51.75 43.335938 C 51.078125 38.992188 47.003906 36.160156 42.78125 37.09375 M 42.742188 40.371094 C 41.75 40.753906 40.742188 41.773438 40.367188 42.78125 C 39.285156 45.667969 41.328125 48.671875 44.375 48.671875 C 46.773438 48.671875 48.671875 46.773438 48.671875 44.375 C 48.671875 41.324219 45.625 39.265625 42.742188 40.371094 "/>
</g>
</svg>
