<?xml version="1.0" encoding="UTF-8"?>
<svg xmlns="http://www.w3.org/2000/svg" xmlns:xlink="http://www.w3.org/1999/xlink" width="16px" height="16px" viewBox="0 0 16 16" version="1.1">
<g id="surface1">
<path style=" stroke:none;fill-rule:evenodd;fill:rgb(46.666667%,20%,24.313725%);fill-opacity:1;" d="M 4.21875 0.046875 C 3.710938 0.132812 3.164062 0.304688 2.78125 0.5 C 1.464844 1.164062 0.507812 2.339844 0.152344 3.726562 C 0 4.332031 0 4.292969 0 8 C 0 11.707031 0 11.667969 0.152344 12.273438 C 0.597656 14.011719 1.988281 15.402344 3.726562 15.847656 C 4.332031 16 4.292969 16 8 16 C 11.707031 16 11.667969 16 12.273438 15.847656 C 13.660156 15.492188 14.835938 14.535156 15.5 13.21875 C 15.699219 12.824219 15.90625 12.152344 15.953125 11.742188 C 15.964844 11.644531 15.988281 11.554688 16.003906 11.542969 C 16.019531 11.535156 16.03125 9.992188 16.03125 7.964844 C 16.03125 5.902344 16.019531 4.410156 16.003906 4.417969 C 15.988281 4.429688 15.964844 4.355469 15.953125 4.257812 C 15.90625 3.847656 15.699219 3.175781 15.5 2.78125 C 14.835938 1.464844 13.660156 0.507812 12.273438 0.152344 C 11.667969 0 11.714844 0 7.96875 0.00390625 C 5.269531 0.0078125 4.398438 0.015625 4.21875 0.046875 M 4.734375 1.53125 C 3.582031 1.632812 2.601562 2.246094 2 3.25 C 1.8125 3.5625 1.675781 3.910156 1.585938 4.324219 L 1.515625 4.640625 L 1.515625 11.359375 L 1.585938 11.683594 C 1.808594 12.679688 2.378906 13.476562 3.25 14 C 3.5625 14.1875 3.910156 14.324219 4.324219 14.414062 L 4.640625 14.484375 L 11.359375 14.484375 L 11.683594 14.414062 C 12.679688 14.191406 13.476562 13.621094 14 12.75 C 14.1875 12.4375 14.324219 12.089844 14.414062 11.675781 L 14.484375 11.359375 L 14.484375 4.640625 L 14.414062 4.324219 C 14.105469 2.925781 13.089844 1.902344 11.699219 1.589844 C 11.390625 1.519531 11.375 1.519531 8.203125 1.511719 C 6.449219 1.511719 4.890625 1.519531 4.734375 1.53125 M 12.078125 3.199219 C 11.761719 3.335938 11.652344 3.761719 11.867188 4.027344 C 12.207031 4.445312 12.84375 4.226562 12.84375 3.695312 C 12.84375 3.316406 12.425781 3.046875 12.078125 3.199219 M 7.289062 4.046875 C 6.738281 4.148438 6.082031 4.425781 5.640625 4.75 C 4.8125 5.351562 4.222656 6.300781 4.046875 7.304688 C 3.984375 7.660156 3.984375 8.339844 4.046875 8.695312 C 4.1875 9.503906 4.605469 10.289062 5.191406 10.867188 C 5.765625 11.425781 6.519531 11.816406 7.304688 11.953125 C 7.660156 12.015625 8.339844 12.015625 8.695312 11.953125 C 10.347656 11.664062 11.664062 10.347656 11.953125 8.695312 C 12.015625 8.339844 12.015625 7.660156 11.953125 7.304688 C 11.664062 5.652344 10.347656 4.335938 8.695312 4.046875 C 8.363281 3.988281 7.609375 3.988281 7.289062 4.046875 M 0.015625 8 C 0.015625 9.96875 0.0195312 10.773438 0.0234375 9.789062 C 0.0273438 8.804688 0.0273438 7.195312 0.0234375 6.210938 C 0.0195312 5.226562 0.015625 6.03125 0.015625 8 M 7.417969 5.589844 C 6.707031 5.765625 6.078125 6.28125 5.761719 6.953125 C 5.59375 7.3125 5.53125 7.601562 5.53125 8.007812 C 5.53125 9.371094 6.632812 10.46875 8 10.46875 C 9.367188 10.46875 10.46875 9.371094 10.46875 8.007812 C 10.46875 7.601562 10.40625 7.3125 10.238281 6.953125 C 9.914062 6.269531 9.261719 5.742188 8.539062 5.582031 C 8.242188 5.515625 7.707031 5.519531 7.417969 5.589844 "/>
</g>
</svg>
