<?xml version="1.0" encoding="UTF-8"?>
<svg xmlns="http://www.w3.org/2000/svg" xmlns:xlink="http://www.w3.org/1999/xlink" width="70" height="71" viewBox="0 0 70 71" version="1.1">
<g id="surface1">
<path style=" stroke:rgb(46.666667%,20%,24.313725%);stroke-width: 0.7;fill-rule:evenodd;fill:rgb(46.666667%,20%,24.313725%);fill-opacity:1;" d="M 34.492188 0.90625 C 33.910156 1.488281 33.910156 2.390625 34.488281 2.972656 C 34.769531 3.253906 34.980469 3.328125 35.5 3.328125 C 36.5 3.328125 37.109375 2.585938 36.921875 1.597656 C 36.886719 1.410156 36.699219 1.097656 36.503906 0.90625 C 36.007812 0.40625 34.992188 0.40625 34.492188 0.90625 M 17.460938 4.84375 C 17.125 5.179688 17.054688 5.363281 17.054688 5.914062 L 17.054688 6.582031 L 22.15625 11.679688 L 27.253906 16.78125 L 27.964844 16.78125 C 28.59375 16.78125 28.722656 16.726562 29.039062 16.351562 C 29.300781 16.042969 29.398438 15.765625 29.398438 15.347656 C 29.398438 14.777344 29.371094 14.746094 24.230469 9.605469 L 19.0625 4.4375 L 18.464844 4.4375 C 17.988281 4.4375 17.785156 4.519531 17.460938 4.84375 M 46.769531 9.605469 C 41.628906 14.746094 41.601562 14.777344 41.601562 15.347656 C 41.601562 15.765625 41.699219 16.042969 41.960938 16.351562 C 42.277344 16.726562 42.40625 16.78125 43.035156 16.78125 L 43.746094 16.78125 L 48.84375 11.679688 L 53.945312 6.582031 L 53.945312 5.914062 C 53.945312 5.363281 53.875 5.179688 53.539062 4.84375 C 53.214844 4.519531 53.011719 4.4375 52.535156 4.4375 L 51.9375 4.4375 L 46.769531 9.605469 M 34.496094 6.507812 L 34.042969 6.910156 L 34 10.910156 C 33.949219 15.484375 33.984375 15.921875 34.484375 16.421875 C 34.996094 16.929688 36.003906 16.929688 36.515625 16.421875 C 37.015625 15.921875 37.050781 15.484375 37 10.910156 L 36.957031 6.910156 L 36.503906 6.507812 C 36.164062 6.203125 35.910156 6.101562 35.5 6.101562 C 35.089844 6.101562 34.835938 6.203125 34.496094 6.507812 M 13.644531 14.527344 C 13.488281 14.660156 11.019531 17.671875 8.160156 21.21875 C 5.300781 24.761719 2.296875 28.492188 1.480469 29.503906 C 0.09375 31.226562 0 31.378906 0 31.960938 C 0 32.757812 -0.0234375 32.734375 4.039062 36.222656 L 7.316406 39.035156 L 10.367188 43.144531 L 13.417969 47.25 L 13.027344 47.832031 C 12.382812 48.789062 12.160156 49.660156 12.230469 50.945312 C 12.308594 52.324219 12.636719 53.125 13.527344 54.074219 C 14.167969 54.757812 15.179688 55.347656 16.03125 55.527344 C 16.453125 55.617188 16.464844 55.640625 16.542969 56.589844 C 16.742188 58.964844 18.558594 60.9375 20.820312 61.238281 L 21.464844 61.324219 L 21.554688 62.042969 C 21.84375 64.335938 23.773438 66.101562 26.15625 66.257812 L 27.15625 66.320312 L 27.316406 66.960938 C 27.664062 68.355469 28.679688 69.546875 30.089844 70.214844 C 30.867188 70.582031 31.136719 70.636719 32.097656 70.632812 C 33.582031 70.621094 34.558594 70.242188 35.609375 69.269531 L 36.402344 68.535156 L 36.941406 69.003906 C 37.757812 69.710938 38.828125 70.066406 40.148438 70.078125 C 41.109375 70.082031 41.382812 70.027344 42.160156 69.660156 C 43.71875 68.925781 44.835938 67.457031 45.019531 65.910156 L 45.105469 65.203125 L 45.949219 65.039062 C 48.125 64.609375 49.773438 62.941406 50.011719 60.914062 L 50.097656 60.207031 L 50.898438 60.066406 C 53.046875 59.6875 54.765625 57.949219 55.007812 55.910156 C 55.054688 55.515625 55.101562 55.191406 55.117188 55.191406 C 55.128906 55.191406 55.507812 55.125 55.957031 55.039062 C 57.582031 54.738281 58.867188 53.769531 59.589844 52.300781 C 59.933594 51.601562 59.976562 51.367188 59.972656 50.128906 C 59.972656 48.960938 59.921875 48.640625 59.652344 48.09375 L 59.332031 47.449219 L 63.808594 38.066406 L 67.28125 35.085938 C 69.195312 33.445312 70.792969 32.007812 70.839844 31.894531 C 70.898438 31.753906 70.957031 31.820312 71.027344 32.101562 C 71.085938 32.351562 71.105469 32.132812 71.066406 31.5625 C 71.035156 31.023438 70.910156 30.460938 70.789062 30.273438 C 70.25 29.449219 58.871094 14.742188 58.605469 14.527344 C 58.4375 14.390625 58.070312 14.289062 57.746094 14.285156 C 57.25 14.285156 56.710938 14.582031 53.261719 16.78125 L 49.34375 19.273438 L 39.308594 19.273438 L 35.226562 20.445312 L 31.140625 21.613281 L 27.144531 20.511719 L 23.144531 19.410156 L 19.109375 16.847656 C 15.546875 14.582031 15.011719 14.285156 14.507812 14.285156 C 14.175781 14.289062 13.816406 14.390625 13.644531 14.527344 M 9.152344 24.71875 C 6.0625 28.550781 3.535156 31.722656 3.535156 31.773438 C 3.535156 31.894531 8.054688 35.777344 8.195312 35.777344 C 8.257812 35.777344 11 32.496094 14.292969 28.484375 C 19.246094 22.449219 20.246094 21.160156 20.089844 21.019531 C 19.78125 20.738281 15.027344 17.75 14.890625 17.753906 C 14.824219 17.753906 12.242188 20.886719 9.152344 24.71875 M 55.46875 18.875 C 54.515625 19.488281 53.320312 20.246094 52.816406 20.566406 L 51.894531 21.148438 L 57.296875 28.011719 C 60.265625 31.785156 62.738281 34.890625 62.792969 34.910156 C 62.917969 34.957031 67.464844 31.054688 67.464844 30.902344 C 67.464844 30.703125 57.492188 17.761719 57.339844 17.765625 C 57.265625 17.765625 56.421875 18.265625 55.46875 18.875 M 34.539062 23.691406 L 29.488281 25.167969 L 26.8125 29.882812 C 25.339844 32.476562 24.097656 34.796875 24.046875 35.039062 C 23.925781 35.667969 24.207031 36.386719 24.757812 36.871094 C 25.601562 37.613281 26.746094 37.574219 27.488281 36.78125 C 27.683594 36.570312 28.765625 34.765625 29.894531 32.765625 C 31.617188 29.714844 32.019531 29.09375 32.394531 28.917969 C 32.792969 28.726562 33.214844 28.730469 36.699219 28.980469 C 38.824219 29.132812 40.75 29.289062 40.976562 29.328125 C 41.300781 29.386719 43.160156 31.167969 49.277344 37.269531 C 53.613281 41.597656 57.1875 45.074219 57.21875 45 C 57.253906 44.921875 58.082031 43.175781 59.066406 41.117188 C 60.050781 39.058594 60.808594 37.3125 60.75 37.234375 C 60.691406 37.15625 58.011719 33.742188 54.789062 29.640625 L 48.933594 22.1875 L 39.589844 22.210938 L 34.539062 23.691406 M 17.191406 29.625 C 13.953125 33.574219 11.074219 37.085938 10.796875 37.433594 L 10.292969 38.066406 L 12.714844 41.324219 C 14.046875 43.117188 15.226562 44.707031 15.335938 44.859375 C 15.527344 45.121094 15.546875 45.125 15.914062 44.886719 C 17.238281 44.027344 18.804688 43.761719 20.167969 44.160156 C 21.136719 44.441406 21.507812 44.65625 22.304688 45.40625 C 22.933594 46 23.472656 46.914062 23.636719 47.664062 C 23.730469 48.097656 23.75 48.109375 24.320312 48.03125 C 25.707031 47.839844 27.476562 48.539062 28.503906 49.679688 C 29.078125 50.320312 29.675781 51.574219 29.675781 52.136719 C 29.675781 52.824219 29.90625 53.070312 30.617188 53.140625 C 32.023438 53.273438 33.367188 54.234375 34.117188 55.632812 C 34.53125 56.402344 34.59375 56.660156 34.644531 57.773438 L 34.699219 59.039062 L 35.273438 59.207031 C 37.992188 60.003906 39.457031 62.960938 38.492188 65.703125 C 38.292969 66.269531 38.292969 66.277344 38.703125 66.621094 C 40.25 67.921875 42.464844 66.652344 42.09375 64.675781 C 42.011719 64.238281 41.652344 63.800781 39.988281 62.117188 C 38.335938 60.4375 37.972656 59.996094 37.902344 59.582031 C 37.742188 58.585938 38.386719 57.828125 39.398438 57.828125 C 39.78125 57.828125 40.113281 58.097656 41.933594 59.890625 C 43.507812 61.441406 44.15625 61.992188 44.542969 62.097656 C 46.160156 62.542969 47.589844 60.972656 47.003906 59.394531 C 46.921875 59.179688 45.433594 57.570312 43.695312 55.816406 C 41.953125 54.0625 40.429688 52.472656 40.304688 52.28125 C 39.921875 51.707031 40.011719 51.070312 40.546875 50.53125 C 41.070312 50.007812 41.621094 49.917969 42.265625 50.253906 C 42.472656 50.363281 43.96875 51.824219 45.59375 53.503906 C 47.214844 55.1875 48.769531 56.699219 49.042969 56.871094 C 50.675781 57.878906 52.679688 56.210938 51.996094 54.417969 C 51.917969 54.210938 49.679688 51.839844 47.023438 49.144531 C 43.363281 45.441406 42.175781 44.15625 42.132812 43.855469 C 42.03125 43.179688 42.269531 42.585938 42.75 42.289062 C 43.28125 41.964844 43.695312 41.945312 44.222656 42.21875 C 44.4375 42.328125 46.628906 44.484375 49.097656 47.007812 C 51.5625 49.53125 53.789062 51.722656 54.039062 51.878906 C 55.710938 52.910156 57.726562 51.136719 56.9375 49.328125 C 56.828125 49.074219 53.171875 45.3125 48.371094 40.523438 L 40 32.167969 L 37.300781 31.960938 C 35.8125 31.851562 34.433594 31.757812 34.230469 31.757812 C 33.898438 31.757812 33.710938 32.027344 32.164062 34.773438 C 30.097656 38.4375 29.824219 38.835938 28.925781 39.441406 C 26.34375 41.195312 22.914062 40.28125 21.535156 37.472656 C 21.199219 36.78125 21.148438 36.519531 21.148438 35.429688 C 21.148438 34.671875 21.226562 33.992188 21.34375 33.695312 C 21.453125 33.429688 22.75 31.078125 24.222656 28.472656 C 25.695312 25.867188 26.902344 23.679688 26.902344 23.609375 C 26.902344 23.535156 26.136719 23.273438 25.203125 23.023438 C 24.269531 22.773438 23.410156 22.539062 23.292969 22.507812 C 23.152344 22.46875 21.171875 24.777344 17.191406 29.625 M 0.0390625 31.964844 C 0.0390625 32.34375 0.0664062 32.484375 0.0976562 32.273438 C 0.132812 32.0625 0.128906 31.75 0.0976562 31.582031 C 0.0664062 31.410156 0.0390625 31.582031 0.0390625 31.964844 M 18.097656 47.070312 C 17.867188 47.171875 17.128906 47.820312 16.453125 48.503906 C 15.335938 49.636719 15.21875 49.808594 15.152344 50.386719 C 14.980469 51.910156 16.28125 53.011719 17.734375 52.578125 C 18.445312 52.363281 20.574219 50.1875 20.773438 49.476562 C 21.046875 48.476562 20.558594 47.472656 19.59375 47.0625 C 19.039062 46.824219 18.632812 46.828125 18.097656 47.070312 M 24.199219 51.058594 C 23.605469 51.261719 19.730469 55.136719 19.539062 55.71875 C 19.0625 57.160156 20.5625 58.703125 22.015625 58.269531 C 22.769531 58.042969 26.539062 54.230469 26.738281 53.488281 C 27 52.539062 26.535156 51.582031 25.609375 51.160156 C 24.957031 50.867188 24.789062 50.855469 24.199219 51.058594 M 28.773438 56.285156 C 28.113281 56.703125 24.710938 60.210938 24.550781 60.644531 C 24.339844 61.207031 24.371094 61.546875 24.683594 62.195312 C 25.140625 63.136719 26.191406 63.582031 27.136719 63.226562 C 27.585938 63.058594 31.257812 59.46875 31.558594 58.90625 C 32.003906 58.066406 31.664062 56.800781 30.859375 56.304688 C 30.277344 55.945312 29.328125 55.9375 28.773438 56.285156 M 32.796875 62.242188 C 32.566406 62.382812 31.898438 63.003906 31.3125 63.621094 C 30.523438 64.449219 30.222656 64.871094 30.152344 65.25 C 29.949219 66.316406 30.660156 67.441406 31.679688 67.671875 C 32.582031 67.875 33.105469 67.613281 34.410156 66.304688 C 35.890625 64.828125 36.117188 64.289062 35.695312 63.265625 C 35.34375 62.425781 34.714844 61.984375 33.851562 61.988281 C 33.472656 61.988281 33.042969 62.09375 32.796875 62.242188 "/>
</g>
</svg>
