<?xml version="1.0" encoding="UTF-8"?>
<svg xmlns="http://www.w3.org/2000/svg" xmlns:xlink="http://www.w3.org/1999/xlink" width="16px" height="16px" viewBox="0 0 16 16" version="1.1">
<g id="surface1">
<path style=" stroke:none;fill-rule:evenodd;fill:rgb(46.666667%,20%,24.313725%);fill-opacity:1;" d="M 7.023438 0.078125 C 4.535156 0.378906 2.351562 1.820312 1.058594 4.015625 C 0.523438 4.929688 0.148438 6.078125 0.03125 7.164062 C -0.015625 7.613281 -0.0078125 8.59375 0.046875 9.023438 C 0.203125 10.25 0.617188 11.375 1.296875 12.421875 C 1.894531 13.335938 2.789062 14.214844 3.75 14.816406 C 4.5 15.292969 5.496094 15.695312 6.296875 15.855469 C 6.433594 15.882812 6.578125 15.914062 6.617188 15.921875 L 6.6875 15.9375 L 6.6875 9.6875 L 4.75 9.6875 L 4.75 7.46875 L 6.683594 7.46875 L 6.695312 6.335938 C 6.707031 5.230469 6.710938 5.195312 6.789062 4.894531 C 7.054688 3.910156 7.683594 3.261719 8.628906 3 C 9.046875 2.882812 9.480469 2.859375 10.289062 2.902344 C 10.6875 2.925781 11.070312 2.949219 11.132812 2.960938 L 11.25 2.976562 L 11.25 4.9375 L 10.566406 4.9375 C 10.191406 4.9375 9.804688 4.953125 9.703125 4.972656 C 9.378906 5.03125 9.167969 5.179688 9.050781 5.433594 C 8.988281 5.570312 8.984375 5.636719 8.972656 6.523438 L 8.964844 7.46875 L 10.058594 7.46875 C 11.078125 7.46875 11.15625 7.472656 11.15625 7.523438 C 11.15625 7.589844 10.910156 9.523438 10.890625 9.617188 L 10.875 9.6875 L 8.96875 9.6875 L 8.96875 15.96875 L 9.039062 15.96875 C 9.152344 15.96875 9.652344 15.875 9.96875 15.796875 C 10.691406 15.613281 11.605469 15.226562 12.21875 14.84375 C 12.90625 14.414062 13.804688 13.625 14.257812 13.046875 C 15.171875 11.878906 15.742188 10.5625 15.921875 9.199219 C 15.953125 8.980469 15.988281 8.773438 16.003906 8.742188 C 16.039062 8.671875 16.039062 7.304688 16.003906 7.324219 C 15.988281 7.335938 15.96875 7.230469 15.957031 7.089844 C 15.914062 6.570312 15.691406 5.675781 15.472656 5.121094 C 15.035156 4.019531 14.421875 3.101562 13.574219 2.28125 C 12.289062 1.035156 10.710938 0.285156 8.945312 0.078125 C 8.460938 0.0195312 7.492188 0.0234375 7.023438 0.078125 M 0.0117188 8.046875 C 0.0117188 8.441406 0.0195312 8.597656 0.0234375 8.398438 C 0.0273438 8.195312 0.0273438 7.871094 0.0234375 7.679688 C 0.0195312 7.484375 0.0117188 7.652344 0.0117188 8.046875 "/>
</g>
</svg>
