<?xml version="1.0" encoding="UTF-8"?>
<svg xmlns="http://www.w3.org/2000/svg" xmlns:xlink="http://www.w3.org/1999/xlink" width="16px" height="16px" viewBox="0 0 16 16" version="1.1">
<g id="surface1">
<path style=" stroke:none;fill-rule:evenodd;fill:rgb(46.666667%,20%,24.313725%);fill-opacity:1;" d="M 7.140625 0.046875 C 4.277344 0.421875 1.847656 2.308594 0.804688 4.96875 C 0.410156 5.972656 0.257812 6.875 0.289062 8.027344 C 0.324219 9.273438 0.578125 10.28125 1.140625 11.371094 L 1.339844 11.753906 L 0.667969 13.726562 C 0.300781 14.808594 0 15.742188 0 15.796875 C 0 15.917969 0.0820312 16 0.207031 16 C 0.257812 16 1.222656 15.707031 2.355469 15.347656 L 4.410156 14.695312 L 4.730469 14.84375 C 5.542969 15.222656 6.402344 15.46875 7.28125 15.5625 C 7.957031 15.640625 8.910156 15.605469 9.578125 15.480469 C 12.585938 14.929688 15.011719 12.671875 15.765625 9.734375 C 15.957031 8.988281 15.984375 8.734375 15.984375 7.78125 C 15.984375 7.023438 15.972656 6.875 15.910156 6.519531 C 15.621094 4.902344 14.929688 3.542969 13.8125 2.394531 C 12.519531 1.0625 10.933594 0.273438 9.09375 0.0429688 C 8.652344 -0.0117188 7.574219 -0.0078125 7.140625 0.046875 M 7.242188 1.707031 C 4.550781 2.125 2.464844 4.171875 2.011719 6.84375 C 1.945312 7.226562 1.921875 8.019531 1.964844 8.390625 C 2.082031 9.417969 2.394531 10.296875 2.945312 11.152344 C 3.0625 11.332031 3.15625 11.503906 3.15625 11.53125 C 3.15625 11.5625 3.007812 12.023438 2.828125 12.5625 C 2.644531 13.101562 2.503906 13.542969 2.507812 13.546875 C 2.511719 13.550781 2.972656 13.410156 3.53125 13.230469 C 4.089844 13.050781 4.574219 12.90625 4.609375 12.90625 C 4.644531 12.90625 4.753906 12.957031 4.859375 13.019531 C 5.769531 13.566406 6.691406 13.863281 7.726562 13.9375 C 9.980469 14.097656 12.148438 12.996094 13.390625 11.0625 C 13.816406 10.398438 14.148438 9.523438 14.289062 8.6875 C 14.339844 8.371094 14.339844 7.210938 14.285156 6.90625 C 14.039062 5.523438 13.472656 4.410156 12.527344 3.464844 C 11.574219 2.515625 10.363281 1.90625 9.003906 1.703125 C 8.609375 1.644531 7.628906 1.644531 7.242188 1.707031 M 5.503906 4.191406 C 5.105469 4.273438 4.914062 4.371094 4.714844 4.589844 C 4.441406 4.882812 4.277344 5.273438 4.214844 5.78125 C 4.167969 6.144531 4.203125 6.527344 4.3125 6.890625 C 4.527344 7.601562 5.316406 8.75 6.175781 9.601562 C 6.96875 10.382812 7.65625 10.828125 8.628906 11.183594 C 9.4375 11.480469 9.949219 11.582031 10.429688 11.550781 C 10.792969 11.527344 10.914062 11.496094 11.203125 11.355469 C 11.625 11.144531 11.929688 10.871094 12.066406 10.578125 C 12.230469 10.222656 12.300781 9.660156 12.203125 9.457031 C 12.140625 9.324219 11.972656 9.226562 11.113281 8.824219 C 10.351562 8.46875 10.171875 8.417969 9.96875 8.5 C 9.910156 8.523438 9.773438 8.667969 9.609375 8.871094 C 9.464844 9.054688 9.300781 9.257812 9.242188 9.320312 L 9.140625 9.4375 L 8.820312 9.285156 C 8.089844 8.929688 7.316406 8.257812 6.746094 7.488281 L 6.566406 7.242188 L 6.777344 6.996094 C 7.054688 6.679688 7.1875 6.429688 7.1875 6.234375 C 7.1875 6.035156 6.582031 4.554688 6.398438 4.308594 C 6.257812 4.121094 6 4.085938 5.503906 4.191406 "/>
</g>
</svg>
